<?xml version="1.0" encoding="utf-8"?>
<!-- Generator: Adobe Illustrator 25.4.1, SVG Export Plug-In . SVG Version: 6.00 Build 0)  -->
<svg version="1.1" id="Capa_1" xmlns="http://www.w3.org/2000/svg" xmlns:xlink="http://www.w3.org/1999/xlink" x="0px" y="0px"
	 width="1385.3px" height="1178.6px" viewBox="0 0 1385.3 1178.6" style="enable-background:new 0 0 1385.3 1178.6;"
	 xml:space="preserve">
<style type="text/css">
	.st0{clip-path:url(#SVGID_00000183955995550799659030000001579489752084813214_);}
	.st1{fill:url(#Rectángulo_209_00000164491801936255510610000016600091961985499292_);}
	.st2{opacity:0.35;}
	.st3{fill:none;stroke:#D9D9D9;stroke-width:2;stroke-miterlimit:10;}
</style>
<g id="Grupo_4327" transform="translate(380.436 355.002)">
	<g id="Grupo_397" transform="translate(-339.166 -2.067)">
		<g>
			<g>
				<defs>
					<path id="SVGID_1_" d="M-44.3-358.6V831.7h1335.9c1.4-2.9,2.9-5.8,4.2-8.7c0.3-0.7,0.7-1.4,1.1-2.2l0,0
						c0.3-0.6,0.5-1.2,0.7-1.7c2.3-5,4.4-10,6.4-15.1c0.2-0.4,0.3-0.8,0.5-1.3c1.8-4.7,3.6-9.5,5.2-14.3c0.2-0.7,0.5-1.4,0.8-2.1
						s0.4-1.4,0.6-2.2c1.2-3.6,2.2-7.2,3.2-10.8c0.4-1.6,1-3.1,1.4-4.7c1.6-6.1,3-12.2,4.5-18.2c0-0.1,0.1-0.2,0.1-0.3
						c0.5-2,1-4.1,1.5-6.1v-0.1c0.7-3.1,1.4-6.3,2.1-9.4v-0.1c25.1-113,25.6-221,6.3-342.8c-0.1-0.5-0.2-1-0.2-1.5
						c-1.2-7.3-2.4-14.6-3.7-21.9c-0.2-1.1-0.4-2.2-0.6-3.3c-1.2-6.9-2.5-13.9-3.9-20.9c-0.3-1.6-0.6-3.2-0.9-4.8
						c-1.3-6.7-2.7-13.4-4.1-20.2c-0.4-2-0.8-4-1.3-6c-1.4-6.5-2.8-13.1-4.3-19.7c-0.5-2.4-1.1-4.7-1.6-7.1
						c-1.5-6.4-3-12.8-4.5-19.3c-0.6-2.7-1.3-5.3-1.9-8c-1.5-6.3-3.1-12.6-4.7-18.9c-0.8-3-1.5-6-2.3-9c-1.6-6.1-3.2-12.3-4.8-18.6
						c-0.9-3.3-1.8-6.7-2.7-10.1c-1.6-6-3.3-12.1-5-18.3c-1-3.7-2-7.4-3.1-11.1c-1.7-5.9-3.3-11.9-5-17.9c-1.1-4-2.3-8.1-3.5-12.2
						c-1.7-5.9-3.4-11.7-5.1-17.7c-1.3-4.4-2.6-9-4-13.5c-1.7-5.7-3.4-11.3-5.1-17.1c-1.5-4.9-3-9.9-4.5-14.9
						c-1.7-5.5-3.3-11-5.1-16.6c-1.7-5.4-3.4-11-5.1-16.5c-1.6-5.2-3.2-10.4-4.9-15.7c-2-6.4-4-12.8-6.1-19.3
						c-1.4-4.6-2.9-9.1-4.4-13.8c-2.4-7.6-4.9-15.3-7.4-23c-1.2-3.7-2.3-7.4-3.6-11.1c-2.9-9-5.8-18.1-8.8-27.2
						c-0.9-2.7-1.7-5.3-2.6-8.1c-3.9-11.9-7.8-24.1-11.9-36.3c-4-12.3-8-24.4-11.9-36.3c-0.9-2.7-1.8-5.3-2.7-8
						c-3-9.1-6-18.2-9-27.1c-1.2-3.7-2.5-7.3-3.7-11c-2.6-7.7-5.1-15.4-7.7-22.9c-1.6-4.6-3.1-9.1-4.6-13.7
						c-2.2-6.4-4.3-12.8-6.5-19.1c-1.8-5.2-3.6-10.4-5.4-15.5c-1.9-5.4-3.8-10.9-5.6-16.3c-1.9-5.5-3.9-11-5.8-16.5
						c-1.7-4.8-3.4-9.6-5.1-14.4c-2-5.7-4.1-11.4-6.1-17c-1.6-4.3-3.1-8.7-4.7-12.9c-2.1-5.8-4.2-11.6-6.3-17.3c-0.4-1-0.7-2-1.1-3
						L-44.3-358.6z"/>
				</defs>
				<clipPath id="SVGID_00000157991534313646676660000012790700175953857466_">
					<use xlink:href="#SVGID_1_"  style="overflow:visible;"/>
				</clipPath>
				<g id="Grupo_396" style="clip-path:url(#SVGID_00000157991534313646676660000012790700175953857466_);">
					
						<radialGradient id="Rectángulo_209_00000074426350632465509060000012253952213640370573_" cx="692.2766" cy="-16.3248" r="1.712" gradientTransform="matrix(-737.4766 -1510.7126 -1709.6818 834.6063 482556.9688 1060041.625)" gradientUnits="userSpaceOnUse">
						<stop  offset="0" style="stop-color:#054666"/>
						<stop  offset="0.287" style="stop-color:#044260"/>
						<stop  offset="0.646" style="stop-color:#033751"/>
						<stop  offset="1" style="stop-color:#01273B"/>
					</radialGradient>
					
						<polygon id="Rectángulo_209" style="fill:url(#Rectángulo_209_00000074426350632465509060000012253952213640370573_);" points="
						-513.5,-129.5 1081.4,-908 1818.8,602.7 224,1381.2 					"/>
				</g>
			</g>
		</g>
	</g>
	<g id="Grupo_398" transform="translate(-379.436 -354.002)" class="st2">
		<path id="Trazado_1624" class="st3" d="M2150.6,471.8c0-0.3-0.1-0.6-0.1-0.8c-0.6-4.5-1.1-9-1.8-13.5c-0.1-0.7-0.2-1.4-0.3-2.1
			c-0.6-4.3-1.3-8.6-2-12.9c-0.2-1-0.3-2-0.5-3c-0.7-4.1-1.4-8.3-2.2-12.5c-0.2-1.2-0.4-2.5-0.7-3.7c-0.7-4-1.5-8.1-2.3-12.2
			c-0.3-1.5-0.6-2.9-0.9-4.4c-0.8-3.9-1.6-7.9-2.5-11.9c-0.3-1.7-0.7-3.3-1.1-5c-0.8-3.9-1.7-7.8-2.6-11.7c-0.4-1.9-0.8-3.7-1.3-5.6
			c-0.9-3.8-1.8-7.7-2.7-11.5c-0.5-2.1-1-4.2-1.5-6.3c-0.9-3.8-1.8-7.5-2.8-11.3c-0.6-2.3-1.2-4.6-1.7-6.9
			c-0.9-3.7-1.9-7.4-2.9-11.1c-0.7-2.5-1.3-5-2-7.6c-1-3.6-1.9-7.3-2.9-11c-0.7-2.8-1.5-5.6-2.3-8.4c-1-3.5-1.9-7-2.9-10.6
			c-0.9-3.1-1.7-6.2-2.6-9.3c-1-3.4-1.9-6.8-2.9-10.3c-1-3.4-2-6.8-3-10.3c-0.9-3.3-1.9-6.5-2.8-9.8c-1.2-4-2.3-8-3.5-12
			c-0.8-2.9-1.7-5.7-2.5-8.6c-1.4-4.7-2.8-9.5-4.3-14.3c-0.7-2.3-1.4-4.6-2.1-6.9c-1.7-5.6-3.4-11.2-5.1-16.9c-0.5-1.7-1-3.3-1.5-5
			c-2.3-7.4-4.6-15-6.9-22.6c-2.4-7.6-4.7-15.2-7-22.6c-0.5-1.7-1-3.3-1.6-5c-1.8-5.7-3.5-11.3-5.3-16.9c-0.7-2.3-1.4-4.6-2.2-6.9
			c-1.5-4.8-3-9.6-4.5-14.3c-0.9-2.9-1.8-5.7-2.7-8.5c-1.3-4-2.6-8-3.8-11.9c-1.1-3.3-2.1-6.5-3.2-9.7c-1.1-3.4-2.2-6.8-3.3-10.1
			c-1.1-3.5-2.3-6.9-3.4-10.3c-1-3-2-6-3-9c-1.2-3.6-2.4-7.1-3.6-10.6c-0.9-2.7-1.9-5.4-2.8-8.1c-1.3-3.6-2.5-7.2-3.8-10.8
			c-0.9-2.4-1.7-4.9-2.6-7.2c-1.3-3.7-2.7-7.4-4-11.1c-0.8-2.1-1.5-4.3-2.3-6.4c-1.4-3.8-2.8-7.5-4.2-11.3c-0.7-1.9-1.4-3.8-2.2-5.7
			c-1.4-3.8-2.9-7.5-4.3-11.2c-0.7-1.7-1.4-3.5-2-5.2c-1.5-3.8-3-7.6-4.5-11.3c-0.6-1.5-1.2-3.1-1.9-4.6c-1.6-3.8-3.2-7.7-4.8-11.4
			c-0.6-1.3-1.1-2.6-1.7-3.9c-1.7-3.9-3.3-7.7-5-11.6c-0.5-1.1-1-2.2-1.5-3.3c-1.8-3.9-3.5-7.8-5.3-11.7c-0.4-0.9-0.8-1.7-1.2-2.6
			c-1.9-4-3.8-8-5.7-11.9c-0.3-0.6-0.6-1.2-0.9-1.8c-2-4.1-4.1-8.2-6.2-12.3c-0.1-0.2-0.2-0.5-0.4-0.7
			c-34.7-67.3-75.1-119.5-131-163.8l0,0c-1.5-1.2-3.1-2.5-4.6-3.7l0,0c-1.1-0.8-2.2-1.6-3.3-2.5l0,0c-3.1-2.3-6.1-4.7-9.2-7
			c-0.8-0.6-1.7-1.1-2.5-1.7c-1.9-1.3-3.9-2.6-5.9-3.9c-0.4-0.2-0.8-0.5-1.1-0.8s-0.8-0.4-1.2-0.7c-2.7-1.7-5.4-3.3-8.2-4.8
			c-0.2-0.1-0.4-0.3-0.7-0.4c-3-1.6-6.1-3.1-9.2-4.6c-0.4-0.2-0.7-0.4-1-0.5l0,0c-0.4-0.2-0.9-0.4-1.4-0.6c-2.8-1.3-5.5-2.5-8.4-3.6
			c-0.4-0.2-0.9-0.4-1.3-0.6c-3.2-1.3-6.5-2.5-9.8-3.6c-0.4-0.1-0.7-0.3-1.1-0.4h-0.1c-0.5-0.2-1.1-0.3-1.6-0.5
			c-2.8-0.9-5.6-1.8-8.5-2.7c-0.7-0.2-1.3-0.4-2-0.6c-3.4-1-6.8-1.9-10.2-2.7c-0.4-0.1-0.7-0.2-1.1-0.3l0,0
			c-0.3-0.1-0.5-0.1-0.8-0.2c-7.5-1.8-15.2-3.4-23.1-4.7c-0.2,0-0.4-0.1-0.6-0.1l0,0c-0.4-0.1-0.8-0.1-1.2-0.2
			c-5.5-0.9-11-1.7-16.6-2.3c-0.7-0.1-1.5-0.2-2.2-0.3c-5.6-0.6-11.2-1.2-16.9-1.6c-0.4,0-0.7-0.1-1.1-0.1c-0.1,0-0.2,0-0.4,0
			c-0.2,0-0.4,0-0.7,0c-8-0.6-16.1-0.9-24.2-1.1c-0.3,0-0.5,0-0.8,0h-0.6c-0.2,0-0.5,0-0.7,0c-8.1-0.1-16.2-0.1-24.3,0.1
			c-0.2,0-0.5,0-0.7,0h-0.7c-0.2,0-0.5,0-0.7,0c-8.1,0.2-16.2,0.6-24.3,1.1c-0.2,0-0.5,0-0.7,0h-0.5c-0.2,0-0.5,0-0.7,0.1
			c-8.2,0.5-16.3,1.2-24.3,2c-0.2,0-0.4,0-0.6,0.1l0,0c-0.6,0.1-1.3,0.1-1.9,0.2c-1.8,0.2-3.6,0.4-5.4,0.6c-1.2,0.1-2.3,0.3-3.5,0.4
			c-1.9,0.2-3.8,0.4-5.7,0.7c-1,0.1-2,0.2-3,0.4c-2.1,0.3-4.2,0.5-6.3,0.8c-0.8,0.1-1.6,0.2-2.4,0.3c-2.3,0.3-4.6,0.6-6.9,0.9
			c-0.6,0.1-1.2,0.2-1.8,0.2c-2.7,0.4-5.4,0.8-8,1.2l-0.5,0.1c-11.6,1.7-22.9,3.6-33.6,5.6l-0.5,0.1c-2.5,0.5-4.9,0.9-7.3,1.4
			c-0.3,0.1-0.6,0.1-1,0.2c-2.2,0.4-4.4,0.9-6.6,1.3c-0.4,0.1-0.9,0.2-1.3,0.3c-2.1,0.4-4.1,0.8-6.2,1.3l-1.2,0.3
			c-2,0.4-4,0.8-6,1.3l-1.2,0.3c-2,0.4-3.9,0.9-5.9,1.3l-1,0.2c-2,0.4-4,0.9-5.9,1.3l-0.7,0.2c-2,0.5-4,0.9-5.9,1.4l-0.5,0.1
			c-12.6,3-23.5,5.7-32.1,8.1l-0.7,0.2c-1.2,0.3-2.3,0.6-3.4,0.9l-0.9,0.3l-2.9,0.8l-0.8,0.2c-0.8,0.2-1.6,0.5-2.4,0.7l-1,0.3
			c-0.7,0.2-1.3,0.4-2,0.6c-0.3,0.1-0.6,0.2-0.9,0.3l-1.6,0.5c-0.3,0.1-0.6,0.2-0.9,0.3l-1.2,0.4l-0.8,0.2l-0.8,0.2
			c-0.3,0.1-0.5,0.2-0.7,0.2l-0.8,0.3l-0.2,0.1c-0.6,0.2-1,0.3-1,0.3l-126,38.8l-100.7,31l-126,38.8c0,0-0.4,0.1-1,0.3l-0.2,0.1
			c-0.2,0.1-0.5,0.2-0.8,0.3l-0.7,0.2c-0.3,0.1-0.5,0.2-0.8,0.3s-0.5,0.2-0.8,0.3c-0.4,0.1-0.8,0.2-1.2,0.4
			c-0.3,0.1-0.6,0.2-0.9,0.3l-1.6,0.5l-0.9,0.3c-0.6,0.2-1.3,0.4-1.9,0.6c-0.3,0.1-0.7,0.2-1,0.3c-0.7,0.2-1.5,0.5-2.3,0.8l-0.9,0.3
			c-0.9,0.3-1.8,0.6-2.8,1l-0.9,0.3c-1,0.4-2.1,0.7-3.3,1.1l-0.7,0.2c-1.4,0.5-2.8,1-4.3,1.5l0,0c-7.7,2.7-16.7,6-26.8,9.9l-0.5,0.2
			c-1.8,0.7-3.7,1.4-5.6,2.2c-0.2,0.1-0.5,0.2-0.7,0.3c-1.8,0.7-3.7,1.5-5.6,2.2l-1,0.4c-1.8,0.7-3.7,1.5-5.5,2.2l-1.2,0.5
			c-1.8,0.8-3.7,1.5-5.6,2.3l-1.2,0.5c-1.9,0.8-3.8,1.6-5.8,2.4c-0.4,0.2-0.8,0.4-1.3,0.5c-2,0.9-4.1,1.7-6.1,2.6
			c-0.3,0.1-0.6,0.3-1,0.4c-2.2,1-4.5,1.9-6.7,2.9l-0.6,0.2c-10,4.4-20.3,9.1-30.9,14.2l-0.6,0.3c-2.4,1.1-4.8,2.3-7.2,3.5
			c-0.6,0.3-1.1,0.6-1.7,0.8c-2,1-4.1,2-6.1,3.1c-0.7,0.4-1.5,0.8-2.2,1.1c-1.9,0.9-3.7,1.9-5.6,2.9c-0.9,0.5-1.8,1-2.8,1.4
			c-1.7,0.9-3.4,1.8-5.1,2.7c-1.1,0.6-2.1,1.1-3.2,1.7c-1.6,0.8-3.2,1.7-4.7,2.6c-0.6,0.3-1.1,0.6-1.7,0.9l0,0
			c-0.2,0.1-0.4,0.2-0.6,0.3c-7.1,3.9-14.1,7.9-21.2,12c-0.2,0.1-0.4,0.2-0.6,0.3c-0.1,0.1-0.3,0.2-0.4,0.2
			c-0.2,0.1-0.4,0.2-0.6,0.4c-6.9,4.1-13.8,8.4-20.7,12.7c-0.2,0.1-0.4,0.2-0.6,0.4s-0.4,0.2-0.6,0.4c-0.2,0.1-0.4,0.3-0.6,0.4
			c-6.8,4.4-13.5,8.9-20.1,13.6c-0.2,0.1-0.4,0.3-0.6,0.4c-0.2,0.1-0.3,0.2-0.5,0.4c-0.2,0.1-0.4,0.3-0.6,0.5
			c-6.6,4.7-13,9.5-19.4,14.5c-0.2,0.1-0.4,0.3-0.5,0.4s-0.2,0.2-0.3,0.2c-0.3,0.2-0.6,0.5-0.8,0.7c-4.4,3.5-8.8,7.1-13.1,10.8
			c-0.6,0.5-1.1,1-1.7,1.5c-4.2,3.7-8.4,7.4-12.4,11.2c-0.3,0.3-0.6,0.5-0.9,0.8l0,0c-0.1,0.1-0.3,0.3-0.4,0.4
			c-5.7,5.5-11.2,11.1-16.4,16.8c-0.2,0.2-0.4,0.4-0.6,0.6l0,0c-0.2,0.3-0.5,0.6-0.7,0.8c-2.3,2.6-4.6,5.3-6.9,8
			c-0.5,0.5-0.9,1.1-1.3,1.6c-1.9,2.3-3.7,4.6-5.5,6.9c-0.3,0.4-0.7,0.9-1,1.3l0,0c-0.2,0.3-0.4,0.6-0.7,0.9c-2.1,2.8-4.1,5.6-6,8.5
			c-0.3,0.4-0.5,0.8-0.8,1.3c-1.7,2.5-3.3,5.1-4.8,7.6c-0.3,0.4-0.6,0.9-0.8,1.3l0,0c-0.2,0.3-0.4,0.7-0.6,1c-1.7,3-3.4,5.9-5,8.9
			c-0.1,0.2-0.2,0.5-0.4,0.8c-1.4,2.8-2.8,5.6-4.1,8.5c-0.2,0.4-0.4,0.8-0.6,1.2c-0.2,0.4-0.3,0.9-0.5,1.3c-0.9,2.1-1.8,4.3-2.6,6.5
			c-0.4,0.9-0.8,1.9-1.1,2.8c-1.3,3.7-2.5,7.3-3.7,11c0,0.1,0,0.1-0.1,0.2c-0.4,1.2-0.8,2.4-1.2,3.7l0,0c-0.6,1.9-1.2,3.8-1.8,5.6
			v0.1c-21.2,68-25.3,133.8-16.2,208.9c0,0.3,0.1,0.6,0.1,0.9c0.5,4.5,1.2,9,1.8,13.5c0.1,0.7,0.2,1.4,0.3,2.1
			c0.6,4.3,1.3,8.6,2,12.9c0.2,1,0.3,2,0.5,2.9c0.7,4.1,1.4,8.3,2.2,12.5c0.2,1.2,0.4,2.5,0.7,3.7c0.7,4,1.5,8.1,2.3,12.2
			c0.3,1.5,0.6,2.9,0.9,4.4c0.8,3.9,1.6,7.9,2.5,11.9c0.3,1.7,0.7,3.3,1.1,5c0.8,3.9,1.7,7.8,2.6,11.7c0.4,1.9,0.8,3.7,1.3,5.6
			c0.9,3.8,1.8,7.7,2.7,11.5c0.5,2.1,1,4.2,1.5,6.3c0.9,3.8,1.8,7.5,2.8,11.3c0.6,2.3,1.2,4.6,1.7,6.9c0.9,3.7,1.9,7.4,2.9,11.1
			c0.7,2.5,1.3,5,2,7.5c1,3.6,1.9,7.3,2.9,11c0.7,2.8,1.5,5.6,2.3,8.4c1,3.5,1.9,7,2.9,10.6c0.9,3.1,1.7,6.2,2.6,9.3
			c1,3.4,1.9,6.8,2.9,10.3c1,3.4,2,6.8,3,10.3c0.9,3.3,1.9,6.5,2.8,9.8c1.2,4,2.3,8,3.5,12c0.8,2.9,1.7,5.7,2.5,8.6
			c1.4,4.7,2.8,9.5,4.3,14.3c0.7,2.3,1.4,4.6,2.1,6.9c1.7,5.6,3.4,11.3,5.1,16.9c0.5,1.7,1,3.3,1.5,5c2.3,7.4,4.6,15,6.9,22.6
			s4.7,15.2,7,22.6c0.5,1.7,1,3.3,1.6,5c1.8,5.7,3.5,11.3,5.3,16.9c0.7,2.3,1.5,4.6,2.2,6.9c1.5,4.8,3,9.6,4.5,14.3
			c0.9,2.9,1.8,5.7,2.7,8.5c1.3,4,2.6,8,3.8,11.9c1.1,3.3,2.1,6.5,3.2,9.7c1.1,3.4,2.2,6.8,3.3,10.1c1.1,3.5,2.3,6.9,3.4,10.3
			c1,3,2,6,3,9c1.2,3.6,2.4,7.1,3.6,10.6c0.9,2.7,1.8,5.4,2.8,8.1c1.3,3.6,2.5,7.2,3.8,10.8c0.9,2.4,1.7,4.9,2.6,7.2
			c1.3,3.7,2.7,7.4,4,11.1c0.8,2.1,1.5,4.3,2.3,6.4c1.4,3.8,2.8,7.5,4.2,11.3c0.7,1.9,1.4,3.8,2.2,5.7c1.4,3.8,2.9,7.5,4.3,11.2
			c0.7,1.7,1.4,3.5,2,5.2c1.5,3.8,3,7.6,4.5,11.3c0.6,1.5,1.2,3.1,1.9,4.6c1.6,3.8,3.2,7.7,4.8,11.4c0.6,1.3,1.1,2.6,1.7,3.9
			c1.7,3.9,3.3,7.8,5,11.6c0.5,1.1,1,2.2,1.5,3.3c1.8,3.9,3.5,7.8,5.3,11.7c0.4,0.9,0.8,1.7,1.2,2.6c1.9,4,3.8,8,5.7,11.9
			c0.3,0.6,0.6,1.2,0.9,1.8c2,4.1,4.1,8.2,6.2,12.3c0.1,0.2,0.2,0.5,0.4,0.7c34.7,67.3,75.1,119.5,131,163.8l0,0
			c1.5,1.2,3.1,2.5,4.6,3.7l0,0c1.1,0.8,2.2,1.6,3.3,2.5l0,0c3.1,2.3,6.1,4.7,9.2,7c0.8,0.6,1.7,1.1,2.5,1.7
			c1.9,1.3,3.9,2.6,5.8,3.9c0.4,0.2,0.8,0.5,1.1,0.8s0.8,0.4,1.2,0.7c2.7,1.7,5.4,3.3,8.2,4.8c0.2,0.1,0.4,0.3,0.7,0.4
			c3,1.6,6.1,3.1,9.2,4.6c0.4,0.2,0.7,0.4,1,0.5l0,0c0.5,0.2,0.9,0.4,1.4,0.6c2.8,1.3,5.5,2.5,8.4,3.6c0.4,0.2,0.9,0.4,1.3,0.6
			c3.2,1.3,6.5,2.5,9.8,3.6c0.4,0.1,0.7,0.3,1.1,0.4h0.1c0.5,0.2,1.1,0.3,1.6,0.5c2.8,0.9,5.6,1.8,8.5,2.7c0.7,0.2,1.3,0.4,2,0.6
			c3.4,1,6.8,1.9,10.2,2.7c0.4,0.1,0.7,0.2,1.1,0.3l0,0c0.3,0.1,0.5,0.1,0.8,0.2c7.5,1.8,15.2,3.4,23.1,4.7c0.2,0,0.4,0.1,0.6,0.1
			l0,0c0.4,0.1,0.8,0.1,1.2,0.2c5.5,0.9,11,1.7,16.6,2.3c0.7,0.1,1.5,0.2,2.2,0.3c5.6,0.6,11.2,1.2,16.9,1.6c0.4,0,0.7,0.1,1.1,0.1
			c0.1,0,0.3,0,0.4,0c0.2,0,0.4,0,0.7,0c8,0.6,16.1,0.9,24.2,1.1c0.3,0,0.5,0,0.8,0h0.6c0.2,0,0.5,0,0.7,0
			c8.1,0.1,16.2,0.1,24.3-0.1c0.2,0,0.5,0,0.7,0h0.7c0.2,0,0.5,0,0.7,0c8.1-0.2,16.2-0.6,24.3-1.1c0.2,0,0.5,0,0.7,0h0.5
			c0.2,0,0.5,0,0.7-0.1c8.2-0.5,16.3-1.2,24.3-2c0.2,0,0.4,0,0.6-0.1l0,0c0.6-0.1,1.3-0.1,1.9-0.2c1.8-0.2,3.6-0.4,5.4-0.6
			c1.2-0.1,2.3-0.3,3.5-0.4c1.9-0.2,3.8-0.4,5.7-0.7c1-0.1,2-0.2,3-0.4c2.1-0.3,4.2-0.5,6.3-0.8c0.8-0.1,1.6-0.2,2.4-0.3
			c2.3-0.3,4.6-0.6,6.9-0.9l1.8-0.2c2.7-0.4,5.4-0.8,8-1.2l0.5-0.1c11.6-1.7,22.9-3.6,33.6-5.6l0.5-0.1c2.5-0.5,4.9-0.9,7.3-1.4
			c0.3-0.1,0.6-0.1,1-0.2c2.2-0.4,4.4-0.9,6.6-1.3c0.4-0.1,0.9-0.2,1.3-0.3c2.1-0.4,4.1-0.8,6.2-1.3l1.2-0.3c2-0.4,4-0.8,6-1.3
			l1.2-0.3c2-0.4,3.9-0.9,5.9-1.3c0.3-0.1,0.6-0.1,1-0.2c2-0.4,4-0.9,5.9-1.3l0.7-0.2c2-0.5,4-0.9,5.9-1.4c0.2,0,0.3-0.1,0.5-0.1
			c12.6-3,23.5-5.7,32.1-8.1c0.2-0.1,0.4-0.1,0.7-0.2c1.2-0.3,2.3-0.6,3.4-0.9l0.9-0.3c1-0.3,2-0.5,2.9-0.8c0.3-0.1,0.6-0.2,0.8-0.2
			c0.8-0.2,1.6-0.5,2.4-0.7l1-0.3c0.7-0.2,1.3-0.4,2-0.6c0.3-0.1,0.6-0.2,0.9-0.3c0.6-0.2,1.1-0.3,1.6-0.5l0.9-0.3
			c0.4-0.1,0.8-0.2,1.2-0.4c0.3-0.1,0.6-0.2,0.8-0.2l0.8-0.2c0.3-0.1,0.5-0.2,0.7-0.2c0.3-0.1,0.6-0.2,0.8-0.2l0.2-0.1
			c0.6-0.2,1-0.3,1-0.3l126-38.8l100.7-31l126-38.8c0,0,0.4-0.1,1-0.3c0.1,0,0.2-0.1,0.2-0.1c0.2-0.1,0.5-0.2,0.8-0.3l0.7-0.2
			c0.3-0.1,0.5-0.2,0.8-0.3s0.5-0.2,0.8-0.3l1.2-0.4l0.9-0.3l1.6-0.5l0.9-0.3c0.6-0.2,1.3-0.4,1.9-0.6c0.3-0.1,0.7-0.2,1-0.3
			l2.3-0.8c0.3-0.1,0.6-0.2,0.9-0.3c0.9-0.3,1.8-0.6,2.8-1c0.3-0.1,0.6-0.2,0.9-0.3c1-0.4,2.1-0.7,3.3-1.1l0.7-0.2
			c1.4-0.5,2.8-1,4.3-1.5c0,0,0,0,0.1,0c7.7-2.7,16.7-6,26.8-9.9l0.5-0.2c1.8-0.7,3.7-1.4,5.6-2.2c0.2-0.1,0.5-0.2,0.7-0.3
			c1.8-0.7,3.7-1.5,5.6-2.2c0.3-0.1,0.6-0.3,1-0.4c1.8-0.7,3.7-1.5,5.5-2.2l1.2-0.5c1.8-0.8,3.7-1.5,5.6-2.3l1.2-0.5
			c1.9-0.8,3.8-1.6,5.8-2.4c0.4-0.2,0.8-0.4,1.3-0.5c2-0.9,4.1-1.7,6.1-2.6c0.3-0.1,0.6-0.3,1-0.4c2.2-1,4.5-1.9,6.7-2.9l0.6-0.2
			c10-4.4,20.3-9.1,30.9-14.2l0.6-0.3c2.4-1.1,4.8-2.3,7.2-3.5c0.6-0.3,1.1-0.6,1.7-0.8c2-1,4.1-2,6.1-3.1c0.7-0.4,1.5-0.8,2.2-1.1
			c1.9-0.9,3.7-1.9,5.6-2.9c0.9-0.5,1.8-1,2.8-1.4c1.7-0.9,3.4-1.8,5.1-2.7c1.1-0.6,2.1-1.1,3.2-1.7c1.6-0.8,3.2-1.7,4.7-2.6
			c0.6-0.3,1.1-0.6,1.7-0.9l0,0c0.2-0.1,0.4-0.2,0.6-0.3c7.1-3.9,14.1-7.9,21.2-12c0.2-0.1,0.4-0.2,0.6-0.3c0.1-0.1,0.3-0.2,0.4-0.2
			c0.2-0.1,0.4-0.2,0.6-0.4c6.9-4.1,13.8-8.4,20.7-12.7c0.2-0.1,0.4-0.2,0.6-0.4l0.6-0.4c0.2-0.1,0.4-0.3,0.6-0.4
			c6.8-4.4,13.5-8.9,20.1-13.6c0.2-0.1,0.4-0.3,0.6-0.4c0.2-0.1,0.3-0.2,0.5-0.4c0.2-0.1,0.4-0.3,0.6-0.5c6.6-4.7,13-9.5,19.4-14.5
			c0.2-0.1,0.4-0.3,0.5-0.4c0.1-0.1,0.2-0.2,0.3-0.2c0.3-0.2,0.6-0.5,0.8-0.7c4.5-3.5,8.8-7.1,13.1-10.8c0.6-0.5,1.1-1,1.7-1.5
			c4.2-3.7,8.4-7.4,12.4-11.2c0.3-0.3,0.6-0.5,0.9-0.8l0,0c0.1-0.1,0.3-0.3,0.4-0.4c5.7-5.5,11.2-11.1,16.4-16.8
			c0.2-0.2,0.4-0.4,0.6-0.6l0,0c0.2-0.3,0.5-0.6,0.7-0.8c2.4-2.6,4.6-5.3,6.9-8c0.4-0.5,0.9-1.1,1.3-1.6c1.9-2.3,3.7-4.6,5.5-6.9
			c0.3-0.4,0.7-0.9,1-1.3l0,0c0.2-0.3,0.4-0.6,0.7-0.9c2.1-2.8,4.1-5.6,6-8.5c0.3-0.4,0.5-0.8,0.8-1.3c1.7-2.5,3.3-5.1,4.8-7.6
			c0.3-0.4,0.6-0.9,0.8-1.3l0,0c0.2-0.3,0.4-0.7,0.6-1c1.7-3,3.4-5.9,5-8.9c0.1-0.2,0.2-0.5,0.4-0.8c1.4-2.8,2.8-5.6,4.1-8.5
			c0.2-0.4,0.4-0.8,0.6-1.2s0.3-0.9,0.5-1.3c0.9-2.1,1.8-4.3,2.6-6.5c0.4-0.9,0.8-1.9,1.1-2.8c1.3-3.7,2.5-7.3,3.7-11
			c0-0.1,0-0.1,0.1-0.2c0.4-1.2,0.8-2.4,1.2-3.7l0,0c0.6-1.9,1.2-3.8,1.8-5.6v-0.1C2155.6,612.7,2159.7,546.9,2150.6,471.8z"/>
		<path id="Trazado_1625" class="st3" d="M1166.8,1317.3c0-0.2,0.1-0.4,0.1-0.6c0.6-3.3,1.1-6.6,1.7-9.9c0.1-0.5,0.2-1,0.3-1.6
			c0.5-3.1,1-6.3,1.4-9.5c0.1-0.7,0.2-1.5,0.3-2.2c0.4-3.1,0.8-6.2,1.2-9.3c0.1-0.9,0.2-1.8,0.3-2.8c0.4-3,0.7-6,1-9.1
			c0.1-1.1,0.2-2.2,0.3-3.3c0.3-3,0.6-5.9,0.9-9c0.1-1.2,0.2-2.5,0.3-3.7c0.3-2.9,0.5-5.9,0.7-8.8c0.1-1.4,0.2-2.8,0.3-4.2
			c0.2-2.9,0.4-5.8,0.6-8.7c0.1-1.6,0.2-3.2,0.3-4.7c0.2-2.8,0.3-5.7,0.5-8.6c0.1-1.7,0.2-3.5,0.3-5.3c0.1-2.8,0.3-5.6,0.4-8.5
			c0.1-1.9,0.2-3.8,0.2-5.8c0.1-2.8,0.2-5.6,0.3-8.4c0.1-2.1,0.1-4.3,0.2-6.4c0.1-2.7,0.2-5.4,0.2-8.1c0.1-2.3,0.1-4.7,0.2-7.1
			c0.1-2.6,0.1-5.2,0.2-7.9c0.1-2.6,0.1-5.2,0.1-7.9c0-2.5,0.1-5,0.1-7.5c0-3,0.1-6.1,0.1-9.2c0-2.2,0.1-4.4,0.1-6.6
			c0-3.6,0.1-7.3,0.1-11c0-1.8,0-3.5,0-5.3c0-4.3,0-8.7,0.1-13.1c0-1.3,0-2.6,0-3.9c0-5.7,0-11.6,0-17.5s0-11.7,0-17.5
			c0-1.3,0-2.6,0-3.9c0-4.4,0-8.8-0.1-13.1c0-1.8,0-3.5,0-5.3c0-3.7-0.1-7.4-0.1-11c0-2.2-0.1-4.4-0.1-6.6c0-3.1-0.1-6.2-0.1-9.2
			c0-2.5-0.1-5-0.1-7.5c0-2.6-0.1-5.3-0.1-7.9c-0.1-2.7-0.1-5.3-0.2-8c-0.1-2.3-0.1-4.7-0.2-7c-0.1-2.8-0.2-5.5-0.2-8.3
			c-0.1-2.1-0.1-4.2-0.2-6.3c-0.1-2.8-0.2-5.6-0.3-8.4c-0.1-1.9-0.2-3.8-0.2-5.7c-0.1-2.9-0.3-5.8-0.4-8.7c-0.1-1.7-0.2-3.3-0.3-5
			c-0.2-3-0.3-5.9-0.5-8.9c-0.1-1.5-0.2-3-0.3-4.5c-0.2-3-0.4-5.9-0.6-8.9c-0.1-1.4-0.2-2.8-0.3-4.1c-0.2-3-0.5-6-0.7-8.9
			c-0.1-1.2-0.2-2.4-0.3-3.6c-0.3-3.1-0.6-6.1-0.9-9.1c-0.1-1-0.2-2.1-0.3-3.1c-0.3-3.1-0.7-6.2-1-9.3c-0.1-0.9-0.2-1.7-0.3-2.6
			c-0.4-3.2-0.8-6.3-1.2-9.4c-0.1-0.7-0.2-1.4-0.3-2.1c-0.5-3.2-0.9-6.5-1.4-9.6c-0.1-0.5-0.2-1-0.2-1.4c-0.5-3.4-1.1-6.7-1.7-10
			c0-0.2-0.1-0.4-0.1-0.6c-9.9-55-27.1-100.6-56.9-144l0,0c-0.8-1.2-1.6-2.4-2.5-3.6l0,0c-0.6-0.8-1.2-1.6-1.8-2.4l0,0
			c-1.7-2.3-3.3-4.6-5-6.9c-0.4-0.6-0.9-1.1-1.4-1.7c-1.1-1.4-2.2-2.7-3.3-4c-0.2-0.3-0.4-0.5-0.6-0.8s-0.5-0.5-0.7-0.7
			c-1.5-1.8-3.1-3.5-4.8-5.2c-0.1-0.1-0.3-0.3-0.4-0.4c-1.8-1.8-3.6-3.5-5.5-5.2c-0.2-0.2-0.4-0.4-0.6-0.6l0,0
			c-0.3-0.2-0.6-0.5-0.8-0.7c-1.7-1.5-3.4-2.9-5.1-4.4c-0.3-0.2-0.5-0.5-0.8-0.7c-2-1.6-4-3.2-6.1-4.7c-0.2-0.2-0.4-0.3-0.7-0.5l0,0
			c-0.3-0.2-0.7-0.5-1-0.7c-1.8-1.3-3.6-2.5-5.4-3.7c-0.4-0.3-0.8-0.6-1.3-0.8c-2.2-1.4-4.4-2.8-6.6-4.2c-0.2-0.1-0.4-0.3-0.7-0.4
			l0,0c-0.2-0.1-0.4-0.2-0.5-0.3c-4.9-2.9-10-5.7-15.2-8.3c-0.1-0.1-0.2-0.1-0.4-0.2l0,0c-0.3-0.1-0.5-0.2-0.8-0.4
			c-3.7-1.8-7.4-3.6-11.2-5.2c-0.5-0.2-1-0.4-1.5-0.7c-3.8-1.7-7.7-3.3-11.6-4.8c-0.2-0.1-0.5-0.2-0.7-0.3c-0.1,0-0.2-0.1-0.3-0.1
			c-0.2-0.1-0.3-0.1-0.5-0.2c-5.5-2.1-11.1-4.1-16.8-6c-0.2-0.1-0.3-0.1-0.5-0.2c-0.1,0-0.3-0.1-0.4-0.1c-0.2-0.1-0.3-0.1-0.5-0.1
			c-5.7-1.9-11.4-3.6-17.1-5.2c-0.2,0-0.3-0.1-0.5-0.2c-0.2,0-0.3-0.1-0.5-0.1s-0.3-0.1-0.5-0.1c-5.8-1.6-11.6-3.1-17.4-4.5
			c-0.2,0-0.3-0.1-0.5-0.1l-0.4-0.1c-0.2,0-0.3-0.1-0.5-0.1c-5.9-1.4-11.7-2.7-17.6-3.9c-0.2,0-0.3-0.1-0.5-0.1l0,0
			c-0.5-0.1-0.9-0.2-1.4-0.3c-1.3-0.3-2.6-0.5-4-0.8c-0.9-0.2-1.7-0.3-2.6-0.5c-1.4-0.3-2.8-0.5-4.2-0.8c-0.7-0.1-1.5-0.3-2.2-0.4
			c-1.5-0.3-3.1-0.6-4.6-0.8c-0.6-0.1-1.2-0.2-1.8-0.3c-1.7-0.3-3.4-0.6-5.1-0.8c-0.4-0.1-0.9-0.1-1.3-0.2c-2-0.3-3.9-0.6-5.9-0.9
			l-0.4-0.1c-8.6-1.3-16.9-2.4-24.9-3.3c-0.1,0-0.3,0-0.4,0c-1.8-0.2-3.7-0.4-5.5-0.6l-0.7-0.1c-1.7-0.2-3.3-0.4-4.9-0.5
			c-0.3,0-0.6-0.1-1-0.1c-1.6-0.2-3.1-0.3-4.6-0.5l-0.9-0.1c-1.5-0.1-3-0.3-4.5-0.4l-0.9-0.1c-1.5-0.1-3-0.3-4.4-0.4l-0.7-0.1
			c-1.5-0.1-3-0.2-4.5-0.3c-0.2,0-0.3,0-0.5,0c-1.5-0.1-3-0.2-4.5-0.3c-0.1,0-0.2,0-0.4,0c-9.5-0.7-17.8-1-24.4-1.3
			c-0.2,0-0.3,0-0.5,0c-0.9,0-1.8-0.1-2.6-0.1h-0.7l-2.2-0.1c-0.2,0-0.4,0-0.7,0h-1.8c-0.3,0-0.5,0-0.8,0c-0.5,0-1,0-1.5,0h-0.7
			h-1.3c-0.2,0-0.5,0-0.7,0c-0.3,0-0.6,0-0.9,0c-0.2,0-0.4,0-0.6,0c-0.2,0-0.4,0-0.6,0c-0.2,0-0.4,0-0.6,0c-0.2,0-0.4,0-0.6,0h-0.2
			c-0.5,0-0.8,0-0.8,0H527c0,0-0.3,0-0.8,0H526c-0.2,0-0.4,0-0.6,0c-0.2,0-0.4,0-0.6,0s-0.4,0-0.6,0c-0.2,0-0.4,0-0.6,0
			c-0.3,0-0.6,0-0.9,0c-0.2,0-0.5,0-0.7,0h-1.2h-0.7c-0.5,0-1,0-1.5,0c-0.3,0-0.5,0-0.8,0c-0.6,0-1.2,0-1.8,0h-0.7l-2.2,0.1h-0.7
			c-0.8,0-1.7,0.1-2.5,0.1c-0.2,0-0.4,0-0.5,0c-1.1,0-2.2,0.1-3.3,0.1l0,0c-6,0.2-13.1,0.6-21,1.2h-0.4c-1.4,0.1-2.9,0.2-4.4,0.3
			h-0.6c-1.5,0.1-2.9,0.2-4.4,0.3c-0.3,0-0.5,0-0.8,0.1c-1.4,0.1-2.9,0.2-4.4,0.4c-0.3,0-0.6,0.1-1,0.1c-1.5,0.1-3,0.3-4.5,0.4
			l-1,0.1c-1.5,0.1-3,0.3-4.6,0.5c-0.3,0-0.7,0.1-1,0.1c-1.6,0.2-3.2,0.3-4.9,0.5l-0.8,0.1c-1.8,0.2-3.6,0.4-5.4,0.6
			c-0.1,0-0.3,0-0.4,0c-8,0.9-16.3,2-24.9,3.3l-0.5,0.1c-1.9,0.3-3.9,0.6-5.8,0.9c-0.5,0.1-0.9,0.2-1.4,0.2c-1.7,0.3-3.3,0.5-5,0.8
			c-0.6,0.1-1.2,0.2-1.8,0.3c-1.5,0.3-3,0.5-4.6,0.8c-0.8,0.1-1.5,0.3-2.3,0.4c-1.4,0.3-2.8,0.5-4.1,0.8c-0.9,0.2-1.7,0.3-2.6,0.5
			c-1.3,0.3-2.6,0.5-3.9,0.8c-0.5,0.1-0.9,0.2-1.4,0.3l0,0c-0.2,0-0.3,0.1-0.5,0.1c-5.8,1.2-11.7,2.5-17.5,3.9
			c-0.2,0-0.3,0.1-0.5,0.1l-0.4,0.1c-0.2,0-0.3,0.1-0.5,0.1c-5.8,1.4-11.6,2.9-17.4,4.5c-0.2,0-0.3,0.1-0.5,0.1s-0.3,0.1-0.5,0.1
			s-0.3,0.1-0.5,0.2c-5.7,1.6-11.5,3.4-17.1,5.2c-0.2,0.1-0.3,0.1-0.5,0.1c-0.1,0-0.3,0.1-0.4,0.1c-0.2,0.1-0.4,0.1-0.5,0.2
			c-5.7,1.9-11.3,3.9-16.8,6c-0.2,0.1-0.3,0.1-0.5,0.2c-0.1,0-0.2,0.1-0.3,0.1c-0.3,0.1-0.5,0.2-0.8,0.3c-3.9,1.5-7.8,3.1-11.6,4.8
			c-0.5,0.2-1,0.4-1.5,0.7c-3.8,1.7-7.5,3.4-11.2,5.2c-0.3,0.1-0.5,0.2-0.8,0.4l0,0c-0.1,0.1-0.2,0.1-0.4,0.2
			c-5.2,2.6-10.3,5.4-15.2,8.3c-0.2,0.1-0.4,0.2-0.5,0.3l0,0c-0.2,0.1-0.5,0.3-0.7,0.4c-2.2,1.4-4.4,2.7-6.6,4.1
			c-0.4,0.3-0.9,0.6-1.3,0.9c-1.8,1.2-3.6,2.5-5.4,3.7c-0.3,0.2-0.7,0.5-1,0.7l0,0c-0.2,0.2-0.4,0.3-0.7,0.5
			c-2.1,1.5-4.1,3.1-6.1,4.7c-0.3,0.2-0.6,0.5-0.9,0.7c-1.7,1.4-3.4,2.9-5.1,4.3c-0.3,0.2-0.6,0.5-0.9,0.7l0,0
			c-0.2,0.2-0.4,0.4-0.6,0.6c-1.9,1.7-3.7,3.4-5.5,5.2c-0.1,0.1-0.3,0.3-0.4,0.4c-1.6,1.7-3.2,3.4-4.7,5.1c-0.2,0.3-0.5,0.5-0.7,0.8
			s-0.4,0.5-0.7,0.8c-1.1,1.3-2.2,2.6-3.2,4c-0.5,0.6-1,1.1-1.4,1.7c-1.7,2.3-3.4,4.6-5,6.9l-0.1,0.1c-0.6,0.8-1.1,1.5-1.7,2.3l0,0
			c-0.8,1.2-1.6,2.4-2.5,3.6l0,0c-29.8,43.4-47,89-56.8,143.9c0,0.2-0.1,0.4-0.1,0.7c-0.6,3.3-1.1,6.6-1.7,9.9
			c-0.1,0.5-0.2,1-0.2,1.5c-0.5,3.2-1,6.3-1.4,9.6c-0.1,0.7-0.2,1.5-0.3,2.2c-0.4,3.1-0.8,6.2-1.2,9.3c-0.1,0.9-0.2,1.8-0.3,2.8
			c-0.4,3-0.7,6-1,9.1c-0.1,1.1-0.2,2.2-0.3,3.3c-0.3,3-0.6,5.9-0.9,9c-0.1,1.2-0.2,2.5-0.3,3.7c-0.3,2.9-0.5,5.9-0.7,8.8
			c-0.1,1.4-0.2,2.8-0.3,4.2c-0.2,2.9-0.4,5.8-0.6,8.7c-0.1,1.6-0.2,3.2-0.3,4.7c-0.2,2.8-0.3,5.7-0.5,8.6c-0.1,1.7-0.2,3.5-0.3,5.3
			c-0.1,2.8-0.3,5.6-0.4,8.5c-0.1,1.9-0.2,3.8-0.2,5.8c-0.1,2.8-0.2,5.6-0.3,8.4c-0.1,2.1-0.1,4.3-0.2,6.4c-0.1,2.7-0.2,5.4-0.2,8.1
			c-0.1,2.3-0.1,4.7-0.2,7.1c-0.1,2.6-0.1,5.2-0.2,7.9c-0.1,2.6-0.1,5.2-0.1,7.9c0,2.5-0.1,5-0.1,7.5c0,3-0.1,6.1-0.1,9.2
			c0,2.2-0.1,4.4-0.1,6.6c0,3.6-0.1,7.3-0.1,11c0,1.8,0,3.5,0,5.3c0,4.3,0,8.7-0.1,13.1c0,1.3,0,2.6,0,3.9c0,5.7,0,11.6,0,17.5
			s0,11.7,0,17.5c0,1.3,0,2.6,0,3.9c0,4.4,0,8.8,0.1,13.1c0,1.8,0,3.5,0,5.3c0,3.7,0.1,7.4,0.1,11c0,2.2,0.1,4.4,0.1,6.6
			c0,3.1,0.1,6.2,0.1,9.2c0,2.5,0.1,5,0.1,7.5c0,2.6,0.1,5.3,0.1,7.9c0.1,2.7,0.1,5.3,0.2,8c0.1,2.3,0.1,4.7,0.2,7
			c0.1,2.8,0.2,5.5,0.2,8.3c0.1,2.1,0.1,4.2,0.2,6.3c0.1,2.8,0.2,5.6,0.3,8.4c0.1,1.9,0.2,3.8,0.2,5.7c0.1,2.9,0.3,5.8,0.4,8.7
			c0.1,1.7,0.2,3.3,0.3,5c0.2,3,0.3,5.9,0.5,8.9c0.1,1.5,0.2,3,0.3,4.5c0.2,3,0.4,6,0.6,8.9c0.1,1.4,0.2,2.8,0.3,4.1
			c0.2,3,0.5,6,0.7,8.9c0.1,1.2,0.2,2.4,0.3,3.6c0.3,3.1,0.6,6.1,0.9,9.1c0.1,1,0.2,2.1,0.3,3.1c0.3,3.1,0.7,6.2,1,9.3
			c0.1,0.9,0.2,1.7,0.3,2.6c0.4,3.2,0.8,6.3,1.2,9.4c0.1,0.7,0.2,1.4,0.3,2.1c0.5,3.2,0.9,6.5,1.4,9.6c0.1,0.5,0.2,1,0.2,1.4
			c0.5,3.4,1.1,6.7,1.7,10c0,0.2,0.1,0.4,0.1,0.6c9.9,55,27.1,100.6,56.9,144l0,0c0.8,1.2,1.6,2.4,2.5,3.6l0,0
			c0.6,0.8,1.2,1.6,1.8,2.4l0,0c1.6,2.3,3.3,4.6,5,6.9c0.4,0.6,0.9,1.1,1.4,1.7c1.1,1.4,2.2,2.7,3.3,4c0.2,0.3,0.4,0.5,0.6,0.8
			s0.5,0.5,0.7,0.7c1.5,1.8,3.1,3.5,4.7,5.2c0.1,0.1,0.3,0.3,0.4,0.4c1.8,1.8,3.6,3.5,5.5,5.2c0.2,0.2,0.4,0.4,0.6,0.6l0,0
			c0.3,0.2,0.6,0.5,0.8,0.7c1.7,1.5,3.4,2.9,5.1,4.4c0.3,0.2,0.5,0.5,0.8,0.7c2,1.6,4,3.2,6.1,4.7c0.2,0.2,0.4,0.3,0.7,0.5l0,0
			c0.3,0.2,0.7,0.5,1,0.7c1.8,1.3,3.6,2.5,5.4,3.7c0.4,0.3,0.8,0.6,1.3,0.8c2.2,1.4,4.4,2.8,6.6,4.2c0.2,0.1,0.5,0.3,0.7,0.4l0,0
			c0.2,0.1,0.4,0.2,0.5,0.3c4.9,2.9,10,5.7,15.2,8.3c0.1,0.1,0.2,0.1,0.4,0.2l0,0c0.3,0.1,0.5,0.2,0.8,0.4c3.7,1.8,7.4,3.6,11.2,5.2
			c0.5,0.2,1,0.4,1.5,0.7c3.8,1.7,7.7,3.3,11.6,4.8c0.2,0.1,0.5,0.2,0.7,0.3c0.1,0,0.2,0.1,0.3,0.1c0.2,0.1,0.3,0.1,0.5,0.2
			c5.5,2.1,11.1,4.1,16.8,6c0.2,0.1,0.3,0.1,0.5,0.2l0.4,0.1c0.2,0.1,0.3,0.1,0.5,0.1c5.7,1.9,11.4,3.6,17.1,5.2
			c0.2,0,0.3,0.1,0.5,0.2s0.3,0.1,0.5,0.1s0.3,0.1,0.5,0.1c5.8,1.6,11.6,3.1,17.4,4.5c0.2,0,0.3,0.1,0.5,0.1l0.4,0.1
			c0.2,0,0.3,0.1,0.5,0.1c5.9,1.4,11.7,2.7,17.6,3.9c0.2,0,0.3,0.1,0.5,0.1l0,0c0.5,0.1,0.9,0.2,1.4,0.3c1.3,0.3,2.6,0.5,4,0.8
			c0.9,0.2,1.7,0.3,2.6,0.5c1.4,0.3,2.8,0.5,4.2,0.8c0.7,0.1,1.5,0.3,2.2,0.4c1.6,0.3,3.1,0.5,4.6,0.8c0.6,0.1,1.2,0.2,1.8,0.3
			c1.7,0.3,3.4,0.6,5.1,0.8c0.4,0.1,0.9,0.1,1.3,0.2c2,0.3,3.9,0.6,5.9,0.9l0.4,0.1c8.6,1.3,16.9,2.4,24.9,3.3h0.4
			c1.8,0.2,3.7,0.4,5.5,0.6l0.7,0.1c1.7,0.2,3.3,0.4,4.9,0.5l1,0.1c1.6,0.2,3.1,0.3,4.6,0.5l0.9,0.1c1.5,0.1,3,0.3,4.5,0.4l0.9,0.1
			c1.5,0.1,3,0.3,4.4,0.4c0.2,0,0.5,0,0.7,0.1c1.5,0.1,3,0.2,4.5,0.3h0.5c1.5,0.1,3,0.2,4.5,0.3h0.4c9.5,0.7,17.8,1.1,24.4,1.3
			c0.2,0,0.3,0,0.5,0c0.9,0,1.8,0.1,2.6,0.1c0.2,0,0.5,0,0.7,0c0.8,0,1.5,0,2.2,0.1c0.2,0,0.4,0,0.7,0h1.8h0.8c0.5,0,1,0,1.5,0h0.7
			h1.3h0.7h0.9h0.6h0.6c0.2,0,0.4,0,0.6,0h0.6h274.4c0.2,0,0.4,0,0.6,0c0.2,0,0.4,0,0.6,0h0.6h0.6h0.9h0.7c0.4,0,0.8,0,1.2,0h0.7
			c0.5,0,1,0,1.5,0c0.3,0,0.5,0,0.8,0c0.6,0,1.2,0,1.8,0h0.7c0.7,0,1.4,0,2.2-0.1c0.2,0,0.5,0,0.7,0c0.8,0,1.7-0.1,2.5-0.1
			c0.2,0,0.4,0,0.5,0c1.1,0,2.2-0.1,3.3-0.1l0,0c6-0.2,13.1-0.6,21-1.2h0.4c1.4-0.1,2.9-0.2,4.4-0.3h0.6c1.5-0.1,2.9-0.2,4.4-0.3
			l0.8-0.1c1.4-0.1,2.9-0.2,4.4-0.4l1-0.1c1.5-0.1,3-0.3,4.5-0.4l1-0.1c1.5-0.1,3-0.3,4.6-0.4l1-0.1c1.6-0.2,3.2-0.3,4.9-0.5
			c0.3,0,0.5-0.1,0.8-0.1c1.8-0.2,3.6-0.4,5.4-0.6l0.4-0.1c8-0.9,16.3-2,24.9-3.3l0.5-0.1c1.9-0.3,3.9-0.6,5.8-0.9
			c0.5-0.1,0.9-0.2,1.4-0.2c1.7-0.3,3.3-0.5,5-0.8l1.8-0.3c1.5-0.3,3-0.5,4.6-0.8c0.8-0.1,1.5-0.3,2.3-0.4c1.4-0.3,2.8-0.5,4.1-0.8
			c0.9-0.2,1.7-0.3,2.6-0.5c1.3-0.3,2.6-0.5,3.9-0.8c0.5-0.1,0.9-0.2,1.4-0.3l0,0c0.2,0,0.3-0.1,0.5-0.1c5.8-1.2,11.7-2.5,17.5-3.9
			c0.2,0,0.3-0.1,0.5-0.1l0.4-0.1c0.2,0,0.3-0.1,0.5-0.1c5.8-1.4,11.6-2.9,17.3-4.5c0.2,0,0.3-0.1,0.5-0.1s0.3-0.1,0.5-0.1
			s0.3-0.1,0.5-0.2c5.7-1.6,11.5-3.4,17.1-5.2c0.2-0.1,0.3-0.1,0.5-0.1l0.4-0.1c0.2-0.1,0.4-0.1,0.5-0.2c5.7-1.9,11.3-3.9,16.8-6
			c0.2-0.1,0.3-0.1,0.5-0.2c0.1,0,0.2-0.1,0.3-0.1c0.3-0.1,0.5-0.2,0.8-0.3c3.9-1.5,7.8-3.1,11.6-4.8c0.5-0.2,1-0.4,1.5-0.7
			c3.8-1.7,7.5-3.4,11.2-5.2c0.3-0.1,0.5-0.2,0.8-0.4l0,0c0.1-0.1,0.2-0.1,0.4-0.2c5.2-2.6,10.3-5.4,15.2-8.3
			c0.2-0.1,0.4-0.2,0.5-0.3l0,0c0.2-0.1,0.5-0.3,0.7-0.4c2.2-1.3,4.4-2.7,6.6-4.1c0.4-0.3,0.9-0.6,1.3-0.9c1.8-1.2,3.6-2.4,5.4-3.7
			c0.3-0.2,0.7-0.5,1-0.7l0,0c0.2-0.2,0.4-0.3,0.7-0.5c2.1-1.5,4.1-3.1,6.1-4.7c0.3-0.2,0.6-0.5,0.9-0.7c1.7-1.4,3.4-2.9,5.1-4.3
			c0.3-0.2,0.6-0.5,0.9-0.7l0,0c0.2-0.2,0.4-0.4,0.6-0.6c1.9-1.7,3.7-3.4,5.5-5.2c0.1-0.1,0.3-0.3,0.4-0.4c1.6-1.7,3.2-3.4,4.7-5.1
			c0.2-0.3,0.5-0.5,0.7-0.8s0.4-0.5,0.7-0.8c1.1-1.3,2.2-2.6,3.2-4c0.5-0.6,1-1.1,1.4-1.7c1.7-2.3,3.4-4.6,5-6.9l0.1-0.1
			c0.6-0.8,1.1-1.5,1.7-2.3l0,0c0.8-1.2,1.6-2.4,2.5-3.6v-0.1C1139.7,1417.9,1156.9,1372.3,1166.8,1317.3z"/>
		<path id="Trazado_1626" class="st3" d="M1353,916.4c0.1-0.3,0.1-0.6,0.2-0.8c0.8-4.5,1.6-9,2.3-13.6c0.1-0.7,0.2-1.4,0.3-2.1
			c0.7-4.3,1.3-8.7,1.9-13.1c0.1-1,0.3-2,0.4-3c0.6-4.2,1.1-8.4,1.6-12.7c0.2-1.3,0.3-2.5,0.5-3.8c0.5-4.1,1-8.3,1.4-12.5
			c0.2-1.5,0.3-3,0.5-4.5c0.4-4.1,0.8-8.1,1.2-12.3c0.2-1.7,0.3-3.4,0.5-5.1c0.3-4,0.7-8,1-12.1c0.1-1.9,0.3-3.9,0.4-5.8
			c0.3-3.9,0.6-7.9,0.8-11.9c0.1-2.2,0.3-4.3,0.4-6.5c0.2-3.9,0.5-7.8,0.7-11.8c0.1-2.4,0.2-4.8,0.4-7.2c0.2-3.8,0.4-7.7,0.5-11.6
			c0.1-2.6,0.2-5.3,0.3-7.9c0.2-3.8,0.3-7.6,0.4-11.5c0.1-2.9,0.2-5.8,0.3-8.8c0.1-3.7,0.2-7.4,0.3-11.1c0.1-3.2,0.2-6.5,0.2-9.7
			c0.1-3.6,0.2-7.2,0.2-10.8c0.1-3.6,0.1-7.2,0.2-10.8c0.1-3.4,0.1-6.8,0.2-10.3c0.1-4.2,0.1-8.4,0.2-12.6c0-3,0.1-6,0.1-9
			c0-5,0.1-10.1,0.1-15.1c0-2.4,0-4.8,0.1-7.3c0-5.9,0.1-11.9,0.1-17.9c0-1.8,0-3.5,0-5.3c0-7.9,0-15.9,0-23.9c0-8.1,0-16.1,0-23.9
			c0-1.8,0-3.5,0-5.3c0-6,0-12-0.1-17.9c0-2.5,0-4.9-0.1-7.3c0-5.1-0.1-10.2-0.1-15.1c0-3-0.1-6-0.1-9c-0.1-4.2-0.1-8.5-0.2-12.6
			c-0.1-3.5-0.1-6.9-0.2-10.3c-0.1-3.6-0.1-7.2-0.2-10.8c-0.1-3.7-0.2-7.3-0.3-10.9c-0.1-3.2-0.2-6.4-0.2-9.6
			c-0.1-3.8-0.2-7.6-0.3-11.3c-0.1-2.9-0.2-5.8-0.3-8.6c-0.1-3.9-0.3-7.7-0.4-11.6c-0.1-2.6-0.2-5.2-0.3-7.8c-0.2-4-0.4-8-0.6-11.9
			c-0.1-2.3-0.2-4.6-0.3-6.8c-0.2-4.1-0.5-8.1-0.7-12.1c-0.1-2.1-0.3-4.1-0.4-6.2c-0.3-4.1-0.5-8.1-0.8-12.2
			c-0.1-1.9-0.3-3.8-0.4-5.6c-0.3-4.1-0.7-8.2-1-12.2c-0.1-1.7-0.3-3.3-0.4-5c-0.4-4.2-0.8-8.3-1.2-12.5c-0.1-1.4-0.3-2.8-0.4-4.3
			c-0.5-4.3-0.9-8.5-1.4-12.7c-0.1-1.2-0.3-2.4-0.4-3.6c-0.5-4.3-1.1-8.6-1.7-12.9c-0.1-1-0.3-1.9-0.4-2.9
			c-0.6-4.4-1.3-8.9-1.9-13.2c-0.1-0.7-0.2-1.3-0.3-2c-0.7-4.6-1.5-9.2-2.3-13.7c0-0.3-0.1-0.5-0.1-0.8
			c-13.5-75.4-37.1-137.9-77.9-197.3l0,0c-1.1-1.6-2.2-3.3-3.4-4.9l0,0c-0.8-1.1-1.6-2.2-2.4-3.4l0,0c-2.3-3.2-4.5-6.3-6.9-9.5
			c-0.6-0.8-1.3-1.6-1.9-2.3c-1.5-1.9-3-3.7-4.5-5.5c-0.3-0.4-0.6-0.7-0.9-1.1s-0.6-0.7-0.9-1c-2.1-2.4-4.3-4.8-6.5-7.1
			c-0.2-0.2-0.4-0.4-0.5-0.6c-2.4-2.5-4.9-4.8-7.5-7.2c-0.3-0.3-0.6-0.6-0.9-0.8l0,0c-0.4-0.3-0.8-0.7-1.2-1c-2.3-2-4.6-4-7-6
			c-0.4-0.3-0.7-0.6-1.1-0.9c-2.7-2.2-5.5-4.3-8.4-6.4c-0.3-0.2-0.6-0.5-0.9-0.7l0,0c-0.4-0.3-0.9-0.6-1.4-1
			c-2.4-1.7-4.9-3.5-7.4-5.1c-0.6-0.4-1.1-0.8-1.7-1.2c-3-1.9-6-3.8-9.1-5.7c-0.3-0.2-0.6-0.4-0.9-0.6l0,0c-0.2-0.1-0.5-0.3-0.7-0.4
			c-6.7-4-13.7-7.8-20.9-11.4c-0.2-0.1-0.3-0.2-0.5-0.3l0,0c-0.4-0.2-0.7-0.3-1.1-0.5c-5-2.5-10.1-4.9-15.3-7.2
			c-0.7-0.3-1.4-0.6-2.1-0.9c-5.2-2.3-10.5-4.5-15.9-6.6c-0.3-0.1-0.7-0.3-1-0.4l-0.4-0.1c-0.2-0.1-0.4-0.1-0.6-0.2
			c-7.6-2.9-15.3-5.7-23.1-8.2c-0.2-0.1-0.5-0.2-0.7-0.3s-0.4-0.1-0.6-0.2c-0.2-0.1-0.4-0.1-0.7-0.2c-7.8-2.5-15.6-4.9-23.5-7.1
			c-0.2-0.1-0.5-0.1-0.7-0.2l-0.7-0.2c-0.2-0.1-0.5-0.1-0.7-0.2c-7.9-2.2-15.8-4.3-23.8-6.2c-0.2-0.1-0.4-0.1-0.7-0.2
			c-0.2,0-0.3-0.1-0.5-0.1c-0.2-0.1-0.5-0.1-0.7-0.2c-8-1.9-16.1-3.7-24.1-5.3c-0.2,0-0.4-0.1-0.6-0.1l0,0c-0.6-0.1-1.3-0.2-1.9-0.4
			c-1.8-0.4-3.6-0.7-5.4-1.1c-1.2-0.2-2.3-0.5-3.5-0.7c-1.9-0.4-3.8-0.7-5.7-1.1c-1-0.2-2-0.4-3-0.6c-2.1-0.4-4.2-0.8-6.3-1.1
			c-0.8-0.1-1.6-0.3-2.4-0.4c-2.3-0.4-4.6-0.8-6.9-1.2c-0.6-0.1-1.2-0.2-1.8-0.3c-2.7-0.4-5.4-0.9-8.1-1.3c-0.2,0-0.4-0.1-0.5-0.1
			c-11.8-1.8-23.2-3.3-34.2-4.6c-0.2,0-0.4,0-0.5-0.1c-2.5-0.3-5-0.6-7.5-0.8l-1-0.1c-2.3-0.2-4.5-0.5-6.8-0.7l-1.3-0.1
			c-2.1-0.2-4.3-0.4-6.3-0.6c-0.4,0-0.9-0.1-1.3-0.1c-2.1-0.2-4.1-0.4-6.2-0.6l-1.3-0.1c-2-0.2-4.1-0.3-6.1-0.5
			c-0.3,0-0.7-0.1-1-0.1c-2.1-0.2-4.1-0.3-6.1-0.5c-0.2,0-0.5,0-0.7-0.1c-2.1-0.2-4.1-0.3-6.1-0.4c-0.2,0-0.3,0-0.5,0
			c-13.1-0.9-24.4-1.4-33.5-1.8h-0.7c-1.2,0-2.4-0.1-3.5-0.1h-1c-1,0-2.1-0.1-3-0.1c-0.3,0-0.6,0-0.9,0c-0.9,0-1.7,0-2.5-0.1h-1.1
			c-0.7,0-1.4,0-2.1,0c-0.3,0-0.6,0-0.9,0H857h-0.9h-1.3h-0.9H853h-0.8c-0.3,0-0.6,0-0.9,0h-0.2c-0.7,0-1,0-1,0H476.6c0,0-0.4,0-1,0
			h-0.3c-0.3,0-0.5,0-0.9,0h-0.8h-0.9h-0.9h-1.3h-0.9c-0.5,0-1.1,0-1.7,0c-0.3,0-0.6,0-0.9,0c-0.7,0-1.3,0-2.1,0h-1.1
			c-0.8,0-1.6,0-2.5,0.1c-0.3,0-0.6,0-0.9,0c-1,0-2,0.1-3,0.1h-1c-1.1,0-2.3,0.1-3.5,0.1c-0.3,0-0.5,0-0.7,0c-1.5,0.1-3,0.1-4.6,0.2
			h-0.1c-8.2,0.3-17.9,0.8-28.8,1.6c-0.2,0-0.4,0-0.6,0c-2,0.1-4,0.3-6.1,0.4c-0.2,0-0.5,0-0.8,0.1c-2,0.1-4,0.3-6.1,0.5
			c-0.3,0-0.7,0.1-1,0.1c-2,0.2-4,0.3-6,0.5l-1.3,0.1c-2,0.2-4,0.4-6.1,0.6l-1.3,0.1c-2.1,0.2-4.2,0.4-6.3,0.6l-1.4,0.1
			c-2.2,0.2-4.4,0.5-6.7,0.7l-1.1,0.1c-2.4,0.3-4.9,0.5-7.4,0.8l-0.6,0.1c-10.9,1.3-22.4,2.8-34.1,4.6c-0.2,0-0.4,0.1-0.7,0.1
			c-2.6,0.4-5.3,0.8-8,1.2c-0.6,0.1-1.3,0.2-1.9,0.3c-2.3,0.4-4.6,0.7-6.9,1.1c-0.8,0.1-1.7,0.3-2.5,0.4c-2.1,0.4-4.2,0.7-6.3,1.1
			c-1,0.2-2.1,0.4-3.1,0.6c-1.9,0.3-3.8,0.7-5.7,1.1c-1.2,0.2-2.4,0.5-3.6,0.7c-1.8,0.3-3.6,0.7-5.4,1.1c-0.6,0.1-1.3,0.2-1.9,0.4
			l0,0c-0.2,0-0.4,0.1-0.6,0.1c-8,1.6-16,3.4-24,5.3c-0.2,0.1-0.5,0.1-0.7,0.2c-0.2,0-0.3,0.1-0.5,0.1c-0.2,0.1-0.5,0.1-0.7,0.2
			c-7.9,1.9-15.9,4-23.8,6.2c-0.2,0.1-0.5,0.1-0.7,0.2l-0.7,0.2c-0.2,0.1-0.5,0.1-0.7,0.2c-7.9,2.2-15.7,4.6-23.5,7.1
			c-0.2,0.1-0.4,0.1-0.7,0.2c-0.2,0.1-0.4,0.1-0.6,0.2c-0.2,0.1-0.5,0.2-0.7,0.3c-7.8,2.6-15.4,5.3-23,8.2c-0.2,0.1-0.4,0.1-0.6,0.2
			c-0.1,0-0.2,0.1-0.4,0.1c-0.3,0.1-0.7,0.3-1,0.4c-5.4,2.1-10.6,4.3-15.9,6.5c-0.7,0.3-1.4,0.6-2.1,0.9c-5.2,2.3-10.3,4.7-15.3,7.2
			c-0.4,0.2-0.8,0.3-1.1,0.5l0,0c-0.2,0.1-0.3,0.2-0.5,0.3c-7.2,3.6-14.1,7.4-20.9,11.4c-0.2,0.1-0.5,0.3-0.7,0.4l0,0
			c-0.3,0.2-0.6,0.4-0.9,0.6c-3.1,1.8-6.1,3.7-9,5.7c-0.6,0.4-1.2,0.8-1.8,1.2c-2.5,1.7-4.9,3.4-7.3,5.1c-0.5,0.3-0.9,0.6-1.4,1l0,0
			c-0.3,0.2-0.6,0.5-0.9,0.7c-2.8,2.1-5.6,4.2-8.3,6.4c-0.4,0.3-0.8,0.7-1.2,1c-2.4,1.9-4.7,3.9-7,6c-0.4,0.3-0.8,0.7-1.2,1l0,0
			c-0.3,0.3-0.6,0.6-0.9,0.8c-2.6,2.3-5.1,4.7-7.5,7.2c-0.2,0.2-0.4,0.4-0.6,0.6c-2.2,2.3-4.4,4.6-6.5,7c-0.3,0.3-0.6,0.7-0.9,1
			s-0.6,0.7-0.9,1.1c-1.5,1.8-3,3.6-4.4,5.5c-0.6,0.8-1.3,1.6-1.9,2.4c-2.4,3.1-4.6,6.3-6.9,9.5c0,0.1-0.1,0.1-0.1,0.2
			c-0.8,1.1-1.6,2.1-2.3,3.2l0,0c-1.2,1.6-2.3,3.3-3.4,4.9c0,0,0,0,0,0.1c-40.5,59.2-64,121.6-77.5,196.9c-0.1,0.3-0.1,0.6-0.2,0.9
			c-0.8,4.5-1.6,9-2.3,13.6c-0.1,0.7-0.2,1.4-0.3,2.1c-0.7,4.3-1.3,8.7-1.9,13.1c-0.1,1-0.3,2-0.4,3c-0.6,4.2-1.1,8.4-1.6,12.7
			c-0.2,1.3-0.3,2.5-0.5,3.8c-0.5,4.1-1,8.3-1.4,12.5c-0.2,1.5-0.3,3-0.5,4.5c-0.4,4.1-0.8,8.1-1.2,12.3c-0.2,1.7-0.3,3.4-0.5,5.1
			c-0.3,4-0.7,8-1,12.1c-0.1,1.9-0.3,3.9-0.4,5.8c-0.3,3.9-0.6,7.9-0.8,11.9c-0.1,2.2-0.3,4.3-0.4,6.5c-0.2,3.9-0.5,7.8-0.7,11.8
			c-0.1,2.4-0.2,4.8-0.4,7.2c-0.2,3.8-0.4,7.7-0.5,11.6c-0.1,2.6-0.2,5.3-0.3,7.9c-0.2,3.8-0.3,7.6-0.4,11.5
			c-0.1,2.9-0.2,5.8-0.3,8.8c-0.1,3.7-0.2,7.4-0.3,11.1c-0.1,3.2-0.2,6.5-0.2,9.7c-0.1,3.6-0.2,7.2-0.2,10.8
			c-0.1,3.6-0.1,7.2-0.2,10.8c-0.1,3.4-0.1,6.8-0.2,10.3c-0.1,4.2-0.1,8.4-0.2,12.6c0,3-0.1,6-0.1,9c0,5-0.1,10.1-0.1,15.1
			c0,2.4,0,4.8-0.1,7.3c0,5.9-0.1,11.9-0.1,17.9c0,1.8,0,3.5,0,5.3c0,7.9,0,15.9,0,23.9c0,8.1,0,16.1,0,23.9c0,1.8,0,3.5,0,5.3
			c0,6,0,12,0.1,17.9c0,2.5,0,4.9,0.1,7.3c0,5.1,0.1,10.2,0.1,15.1c0,3,0.1,6,0.1,9c0,4.2,0.1,8.5,0.2,12.6c0,3.5,0.1,6.9,0.2,10.3
			c0.1,3.6,0.1,7.2,0.2,10.8c0.1,3.7,0.2,7.3,0.3,10.9c0.1,3.2,0.1,6.4,0.2,9.6c0.1,3.8,0.2,7.6,0.3,11.3c0.1,2.9,0.2,5.8,0.3,8.6
			c0.1,3.9,0.3,7.7,0.4,11.6c0.1,2.6,0.2,5.2,0.3,7.8c0.2,4,0.4,8,0.6,11.9c0.1,2.3,0.2,4.6,0.4,6.8c0.2,4.1,0.5,8.1,0.7,12.1
			c0.1,2.1,0.3,4.1,0.4,6.2c0.3,4.1,0.5,8.1,0.8,12.2c0.1,1.9,0.3,3.8,0.4,5.6c0.3,4.1,0.7,8.2,1,12.2c0.1,1.7,0.3,3.3,0.4,5
			c0.4,4.2,0.8,8.3,1.2,12.5c0.1,1.4,0.3,2.8,0.4,4.3c0.5,4.3,0.9,8.5,1.4,12.7c0.1,1.2,0.3,2.4,0.4,3.6c0.5,4.3,1.1,8.6,1.7,12.9
			c0.1,1,0.3,1.9,0.4,2.9c0.6,4.4,1.3,8.8,1.9,13.2c0.1,0.7,0.2,1.3,0.3,2c0.7,4.6,1.5,9.2,2.3,13.7c0,0.3,0.1,0.5,0.1,0.8
			c13.5,75.4,37.1,137.9,77.9,197.3l0,0c1.1,1.6,2.2,3.3,3.4,4.9l0,0c0.8,1.1,1.6,2.2,2.4,3.4l0,0c2.3,3.2,4.5,6.3,6.9,9.5
			c0.6,0.8,1.3,1.6,1.9,2.3c1.5,1.9,3,3.7,4.5,5.5c0.3,0.4,0.6,0.7,0.9,1.1s0.6,0.7,0.9,1c2.1,2.4,4.3,4.8,6.5,7.1
			c0.2,0.2,0.4,0.4,0.5,0.6c2.4,2.5,4.9,4.8,7.5,7.2c0.3,0.3,0.6,0.6,0.9,0.8l0,0c0.4,0.3,0.8,0.7,1.2,1c2.3,2,4.6,4,7,6
			c0.4,0.3,0.7,0.6,1.1,0.9c2.7,2.2,5.5,4.3,8.4,6.4c0.3,0.2,0.6,0.5,0.9,0.7l0,0c0.4,0.3,0.9,0.6,1.4,1c2.4,1.7,4.9,3.5,7.4,5.1
			c0.6,0.4,1.1,0.8,1.7,1.2c3,1.9,6,3.8,9.1,5.7c0.3,0.2,0.6,0.4,0.9,0.6l0,0c0.2,0.1,0.5,0.3,0.7,0.4c6.7,4,13.7,7.8,20.9,11.4
			c0.2,0.1,0.3,0.2,0.5,0.3l0,0c0.4,0.2,0.7,0.3,1.1,0.5c5,2.5,10.1,4.9,15.3,7.2c0.7,0.3,1.4,0.6,2.1,0.9
			c5.2,2.3,10.5,4.5,15.9,6.6c0.3,0.1,0.7,0.3,1,0.4l0.4,0.1c0.2,0.1,0.4,0.1,0.6,0.2c7.6,2.9,15.3,5.7,23.1,8.2
			c0.2,0.1,0.5,0.2,0.7,0.3l0.6,0.2c0.2,0.1,0.4,0.1,0.7,0.2c7.8,2.5,15.6,4.9,23.5,7.1c0.2,0.1,0.5,0.1,0.7,0.2s0.4,0.1,0.7,0.2
			s0.5,0.1,0.7,0.2c7.9,2.2,15.8,4.3,23.8,6.2c0.2,0.1,0.5,0.1,0.7,0.2l0.5,0.1c0.2,0.1,0.5,0.1,0.7,0.2c8,1.9,16.1,3.7,24.1,5.3
			c0.2,0,0.4,0.1,0.6,0.1l0,0c0.6,0.1,1.3,0.2,1.9,0.4c1.8,0.4,3.6,0.7,5.4,1.1c1.2,0.2,2.3,0.5,3.5,0.7c1.9,0.4,3.8,0.7,5.7,1.1
			c1,0.2,2,0.4,3,0.6c2.1,0.4,4.2,0.8,6.3,1.1c0.8,0.1,1.6,0.3,2.4,0.4c2.3,0.4,4.6,0.8,6.9,1.2c0.6,0.1,1.2,0.2,1.8,0.3
			c2.7,0.4,5.4,0.9,8.1,1.3l0.5,0.1c11.8,1.8,23.2,3.3,34.2,4.6l0.5,0.1c2.5,0.3,5,0.6,7.5,0.8c0.3,0,0.7,0.1,1,0.1
			c2.3,0.2,4.5,0.5,6.8,0.7c0.4,0,0.9,0.1,1.3,0.1c2.1,0.2,4.3,0.4,6.3,0.6l1.3,0.1c2.1,0.2,4.1,0.4,6.2,0.6l1.3,0.1
			c2,0.2,4.1,0.3,6.1,0.5l1,0.1c2.1,0.2,4.1,0.3,6.1,0.5c0.2,0,0.5,0,0.7,0.1c2.1,0.2,4.1,0.3,6.1,0.4h0.5
			c13.1,0.9,24.4,1.4,33.5,1.8c0.2,0,0.5,0,0.7,0c1.2,0,2.4,0.1,3.5,0.1c0.3,0,0.6,0,1,0c1,0,2.1,0.1,3,0.1h0.9c0.9,0,1.7,0,2.5,0.1
			c0.4,0,0.7,0,1.1,0h2.1h0.9c0.6,0,1.2,0,1.7,0c0.3,0,0.6,0,0.9,0c0.5,0,0.9,0,1.3,0c0.3,0,0.6,0,0.9,0s0.6,0,0.9,0h0.8h0.9H851
			h0.2c0.3,0,0.5,0,0.9,0h0.8c0.3,0,0.5,0,0.9,0c0.3,0,0.6,0,0.9,0c0.4,0,0.8,0,1.3,0c0.3,0,0.6,0,0.9,0c0.5,0,1.1,0,1.7,0h0.9h2.1
			h1.1c0.8,0,1.6,0,2.5-0.1h0.9c1,0,2-0.1,3-0.1c0.3,0,0.7,0,1,0c1.1,0,2.3-0.1,3.5-0.1c0.3,0,0.5,0,0.7,0c1.5-0.1,3-0.1,4.6-0.2
			h0.1c8.2-0.3,17.9-0.8,28.8-1.6c0.2,0,0.4,0,0.6,0c2-0.1,4-0.3,6.1-0.4c0.2,0,0.5,0,0.8-0.1c2-0.2,4-0.3,6.1-0.5l1-0.1
			c2-0.2,4-0.3,6-0.5c0.4,0,0.9-0.1,1.3-0.1c2-0.2,4-0.4,6.1-0.6c0.4,0,0.9-0.1,1.3-0.1c2.1-0.2,4.2-0.4,6.3-0.6
			c0.5,0,0.9-0.1,1.4-0.1c2.2-0.2,4.4-0.5,6.7-0.7c0.4,0,0.7-0.1,1.1-0.1c2.4-0.3,4.9-0.5,7.4-0.8l0.6-0.1
			c10.9-1.3,22.4-2.8,34.1-4.6l0.7-0.1c2.6-0.4,5.3-0.8,8-1.2c0.6-0.1,1.3-0.2,1.9-0.3c2.3-0.4,4.6-0.7,6.9-1.1
			c0.8-0.1,1.7-0.3,2.5-0.4c2.1-0.4,4.2-0.7,6.3-1.1c1-0.2,2.1-0.4,3.1-0.6c1.9-0.3,3.8-0.7,5.7-1.1c1.2-0.2,2.4-0.5,3.6-0.7
			c1.8-0.3,3.6-0.7,5.4-1.1c0.6-0.1,1.3-0.2,1.9-0.4l0,0c0.2,0,0.4-0.1,0.7-0.1c8-1.6,16-3.4,24-5.3c0.2-0.1,0.5-0.1,0.7-0.2
			l0.5-0.1c0.2-0.1,0.5-0.1,0.7-0.2c7.9-1.9,15.8-4,23.8-6.2c0.2-0.1,0.5-0.1,0.7-0.2s0.4-0.1,0.7-0.2c0.2-0.1,0.5-0.2,0.7-0.2
			c7.9-2.2,15.7-4.6,23.5-7.1c0.2-0.1,0.4-0.1,0.7-0.2l0.6-0.2c0.2-0.1,0.5-0.2,0.7-0.3c7.8-2.6,15.4-5.3,23-8.2
			c0.2-0.1,0.4-0.1,0.6-0.2c0.1,0,0.2-0.1,0.4-0.1c0.3-0.1,0.7-0.3,1-0.4c5.4-2.1,10.6-4.3,15.9-6.5c0.7-0.3,1.4-0.6,2.1-0.9
			c5.2-2.3,10.3-4.7,15.3-7.2c0.4-0.2,0.8-0.3,1.1-0.5l0,0c0.2-0.1,0.3-0.2,0.5-0.3c7.2-3.6,14.1-7.4,20.9-11.4
			c0.2-0.1,0.5-0.3,0.7-0.4l0,0c0.3-0.2,0.6-0.4,0.9-0.6c3.1-1.8,6.1-3.7,9-5.7c0.6-0.4,1.2-0.8,1.8-1.2c2.5-1.7,4.9-3.4,7.3-5.1
			c0.5-0.3,0.9-0.6,1.4-1l0,0c0.3-0.2,0.6-0.5,0.9-0.7c2.8-2.1,5.6-4.2,8.3-6.4c0.4-0.3,0.8-0.7,1.2-1c2.4-1.9,4.7-3.9,7-6
			c0.4-0.3,0.8-0.7,1.2-1l0,0c0.3-0.3,0.6-0.6,0.9-0.8c2.6-2.3,5.1-4.7,7.5-7.2c0.2-0.2,0.4-0.4,0.6-0.6c2.2-2.3,4.4-4.6,6.5-7
			c0.3-0.3,0.6-0.7,0.9-1s0.6-0.7,0.9-1.1c1.5-1.8,3-3.6,4.4-5.5c0.6-0.8,1.3-1.6,1.9-2.4c2.4-3.1,4.6-6.3,6.9-9.5l0.1-0.2
			c0.8-1.1,1.6-2.1,2.3-3.2l0,0c1.1-1.6,2.3-3.3,3.4-4.9v-0.1C1315.9,1054.2,1339.5,991.7,1353,916.4z"/>
	</g>
</g>
</svg>
