<?xml version="1.0" encoding="utf-8"?>
<!-- Generator: Adobe Illustrator 25.4.1, SVG Export Plug-In . SVG Version: 6.00 Build 0)  -->
<svg version="1.1" id="Capa_1" xmlns="http://www.w3.org/2000/svg" xmlns:xlink="http://www.w3.org/1999/xlink" x="0px" y="0px"
	 width="1177.7px" height="1373.7px" viewBox="0 0 1177.7 1373.7" style="enable-background:new 0 0 1177.7 1373.7;"
	 xml:space="preserve">
<style type="text/css">
	.st0{clip-path:url(#SVGID_00000129195714368497199730000016682351065800821386_);}
	.st1{fill:url(#Rectángulo_209_00000036948173938687597080000008147891607641277350_);}
	.st2{opacity:0.35;}
	.st3{fill:none;stroke:#D9D9D9;stroke-width:2;stroke-miterlimit:10;}
</style>
<g id="Grupo_4327" transform="translate(380.436 355.002)">
	<g id="Grupo_397" transform="translate(-339.166 -2.067)">
		<g>
			<g>
				<g>
					<defs>
						<path id="SVGID_1_" d="M-40.8,1026.1h1180.3V-298.6c-2.9-1.4-5.8-2.9-8.6-4.2c-0.7-0.3-1.4-0.7-2.2-1.1l0,0
							c-0.6-0.3-1.2-0.5-1.7-0.7c-5-2.3-9.9-4.4-15-6.3c-0.4-0.2-0.8-0.3-1.3-0.5c-4.7-1.8-9.4-3.6-14.2-5.2
							c-0.7-0.2-1.4-0.5-2.1-0.8s-1.4-0.4-2.2-0.6c-3.6-1.2-7.1-2.2-10.7-3.2c-1.6-0.4-3.1-1-4.7-1.4c-6-1.6-12.1-3-18-4.5
							c-0.1,0-0.2-0.1-0.3-0.1c-2-0.5-4.1-1-6-1.5h-0.1c-3.1-0.7-6.2-1.4-9.3-2.1h-0.1c-112-24.9-219.1-25.4-339.9-6.2
							c-0.5,0.1-1,0.2-1.5,0.2c-7.2,1.2-14.5,2.4-21.7,3.7c-1.1,0.2-2.2,0.4-3.3,0.6c-6.8,1.2-13.8,2.5-20.7,3.9
							c-1.6,0.3-3.2,0.6-4.8,0.9c-6.6,1.3-13.3,2.7-20,4.1c-2,0.4-4,0.8-5.9,1.3c-6.4,1.4-13,2.8-19.5,4.3c-2.4,0.5-4.7,1.1-7,1.6
							c-6.3,1.5-12.7,3-19.1,4.5c-2.7,0.6-5.3,1.3-7.9,1.9c-6.2,1.5-12.5,3.1-18.7,4.7c-3,0.8-5.9,1.5-8.9,2.3
							c-6,1.6-12.2,3.2-18.4,4.8c-3.3,0.9-6.6,1.8-10,2.7c-5.9,1.6-12,3.3-18.1,5c-3.7,1-7.3,2-11,3.1c-5.9,1.7-11.8,3.3-17.7,5
							c-4,1.1-8,2.3-12.1,3.5c-5.9,1.7-11.6,3.4-17.6,5.1c-4.4,1.3-8.9,2.6-13.4,4c-5.7,1.7-11.2,3.4-17,5.1
							c-4.9,1.5-9.8,3-14.8,4.5c-5.5,1.7-10.9,3.3-16.5,5.1c-5.4,1.7-10.9,3.4-16.4,5.1c-5.2,1.6-10.3,3.2-15.6,4.9
							c-6.3,2-12.7,4-19.1,6c-4.6,1.4-9,2.9-13.7,4.4c-7.5,2.4-15.2,4.9-22.8,7.3c-3.7,1.2-7.3,2.3-11,3.6c-8.9,2.9-17.9,5.8-27,8.7
							c-2.7,0.9-5.3,1.7-8,2.6c-11.8,3.9-23.9,7.7-36,11.8c-12.2,4-24.2,7.9-36,11.8c-2.7,0.9-5.3,1.8-7.9,2.7c-9,3-18,5.9-26.9,8.9
							c-3.7,1.2-7.2,2.5-10.9,3.7c-7.6,2.6-15.3,5.1-22.7,7.6c-4.6,1.6-9,3.1-13.6,4.6c-6.3,2.2-12.7,4.3-18.9,6.4
							c-5.2,1.8-10.3,3.6-15.4,5.4c-5.4,1.9-10.8,3.8-16.2,5.6c-5.5,1.9-10.9,3.9-16.4,5.8c-4.8,1.7-9.5,3.4-14.3,5.1
							c-5.7,2-11.3,4.1-16.9,6c-4.3,1.6-8.6,3.1-12.8,4.7c-5.8,2.1-11.5,4.2-17.2,6.2c-1,0.4-2,0.7-3,1.1L-40.8,1026.1z"/>
					</defs>
					<clipPath id="SVGID_00000098918947497057881520000007257250637448305305_">
						<use xlink:href="#SVGID_1_"  style="overflow:visible;"/>
					</clipPath>
					<g id="Grupo_396" style="clip-path:url(#SVGID_00000098918947497057881520000007257250637448305305_);">
						
							<radialGradient id="Rectángulo_209_00000004535934584172894510000006305437684542576044_" cx="114.626" cy="-492.4804" r="1.6976" gradientTransform="matrix(-1510.7126 737.4766 -834.6063 -1709.6818 -236964.7969 -925466.8125)" gradientUnits="userSpaceOnUse">
							<stop  offset="0" style="stop-color:#054666"/>
							<stop  offset="0.287" style="stop-color:#044260"/>
							<stop  offset="0.646" style="stop-color:#033751"/>
							<stop  offset="1" style="stop-color:#01273B"/>
						</radialGradient>
						
							<polygon id="Rectángulo_209" style="fill:url(#Rectángulo_209_00000004535934584172894510000006305437684542576044_);" points="
							186.4,1491.3 -585.6,-90.1 912.4,-821.3 1684.3,760 						"/>
					</g>
				</g>
			</g>
		</g>
	</g>
	<g id="Grupo_398" transform="translate(-379.436 -354.002)" class="st2">
		<path id="Trazado_1624" class="st3" d="M473.9-758.5c-0.3,0-0.6,0.1-0.8,0.1c-4.5,0.6-8.9,1.1-13.4,1.8c-0.7,0.1-1.4,0.2-2.1,0.3
			c-4.3,0.6-8.5,1.3-12.8,2c-1,0.2-2,0.3-3,0.5c-4.1,0.7-8.2,1.4-12.4,2.2c-1.2,0.2-2.5,0.4-3.7,0.7c-4,0.7-8,1.5-12.1,2.3
			c-1.5,0.3-2.9,0.6-4.4,0.9c-3.9,0.8-7.8,1.6-11.8,2.5c-1.7,0.3-3.3,0.7-5,1.1c-3.9,0.8-7.7,1.7-11.6,2.6c-1.9,0.4-3.7,0.8-5.6,1.3
			c-3.8,0.9-7.6,1.8-11.4,2.7c-2.1,0.5-4.2,1-6.2,1.5c-3.8,0.9-7.4,1.8-11.2,2.8c-2.3,0.6-4.6,1.2-6.8,1.7c-3.7,0.9-7.3,1.9-11,2.9
			c-2.5,0.7-5,1.3-7.5,2c-3.6,1-7.2,1.9-10.9,2.9c-2.8,0.7-5.6,1.5-8.3,2.3c-3.5,1-6.9,1.9-10.5,2.9c-3.1,0.9-6.1,1.7-9.2,2.6
			c-3.4,1-6.7,1.9-10.2,2.9c-3.4,1-6.7,2-10.2,3c-3.3,0.9-6.4,1.9-9.7,2.8c-4,1.2-7.9,2.3-11.9,3.5c-2.9,0.8-5.7,1.7-8.5,2.5
			c-4.7,1.4-9.4,2.8-14.2,4.3c-2.3,0.7-4.6,1.4-6.8,2.1c-5.6,1.7-11.1,3.4-16.8,5.1c-1.7,0.5-3.3,1-5,1.5
			c-7.3,2.3-14.9,4.6-22.4,6.8c-7.5,2.4-15.1,4.7-22.4,6.9c-1.7,0.5-3.3,1-5,1.6c-5.7,1.8-11.2,3.5-16.8,5.3
			c-2.3,0.7-4.6,1.4-6.8,2.2c-4.8,1.5-9.5,3-14.2,4.5c-2.9,0.9-5.7,1.8-8.4,2.7c-4,1.3-7.9,2.6-11.8,3.8c-3.3,1.1-6.4,2.1-9.6,3.2
			c-3.4,1.1-6.7,2.2-10,3.3c-3.5,1.1-6.8,2.3-10.2,3.4c-3,1-5.9,2-8.9,3c-3.6,1.2-7,2.4-10.5,3.6c-2.7,0.9-5.4,1.9-8,2.8
			c-3.6,1.3-7.1,2.5-10.7,3.8c-2.4,0.9-4.9,1.7-7.1,2.6c-3.7,1.3-7.3,2.7-11,4c-2.1,0.8-4.3,1.5-6.3,2.3c-3.8,1.4-7.4,2.8-11.2,4.2
			c-1.9,0.7-3.8,1.4-5.7,2.2c-3.8,1.4-7.4,2.9-11.1,4.3c-1.7,0.7-3.5,1.4-5.2,2c-3.8,1.5-7.5,3-11.2,4.5c-1.5,0.6-3.1,1.2-4.6,1.9
			c-3.8,1.6-7.6,3.2-11.3,4.8c-1.3,0.6-2.6,1.1-3.9,1.7c-3.9,1.7-7.6,3.3-11.5,5c-1.1,0.5-2.2,1-3.3,1.5c-3.9,1.8-7.7,3.5-11.6,5.3
			c-0.9,0.4-1.7,0.8-2.6,1.2c-4,1.9-7.9,3.8-11.8,5.7c-0.6,0.3-1.2,0.6-1.8,0.9c-4.1,2-8.1,4.1-12.2,6.1c-0.2,0.1-0.5,0.2-0.7,0.4
			c-66.7,34.4-118.5,74.5-162.4,129.9l0,0c-1.2,1.5-2.5,3.1-3.7,4.6l0,0c-0.8,1.1-1.6,2.2-2.5,3.3l0,0c-2.3,3.1-4.7,6-6.9,9.1
			c-0.6,0.8-1.1,1.7-1.7,2.5c-1.3,1.9-2.6,3.9-3.9,5.9c-0.2,0.4-0.5,0.8-0.8,1.1c-0.3,0.3-0.4,0.8-0.7,1.2c-1.7,2.7-3.3,5.4-4.8,8.1
			c-0.1,0.2-0.3,0.4-0.4,0.7c-1.6,3-3.1,6-4.6,9.1c-0.2,0.4-0.4,0.7-0.5,1l0,0c-0.2,0.4-0.4,0.9-0.6,1.4c-1.3,2.8-2.5,5.5-3.6,8.3
			c-0.2,0.4-0.4,0.9-0.6,1.3c-1.3,3.2-2.5,6.4-3.6,9.7c-0.1,0.4-0.3,0.7-0.4,1.1v0.1c-0.2,0.5-0.3,1.1-0.5,1.6
			c-0.9,2.8-1.8,5.6-2.7,8.4c-0.2,0.7-0.4,1.3-0.6,2c-1,3.4-1.9,6.7-2.7,10.1c-0.1,0.4-0.2,0.7-0.3,1.1l0,0
			c-0.1,0.3-0.1,0.5-0.2,0.8c-1.8,7.4-3.4,15.1-4.7,22.9c0,0.2-0.1,0.4-0.1,0.6l0,0c-0.1,0.4-0.1,0.8-0.2,1.2
			c-0.9,5.5-1.7,10.9-2.3,16.5c-0.1,0.7-0.2,1.5-0.3,2.2c-0.6,5.6-1.2,11.1-1.6,16.8c0,0.4-0.1,0.7-0.1,1.1c0,0.1,0,0.2,0,0.4
			c0,0.2,0,0.4,0,0.7c-0.6,7.9-0.9,16-1.1,24c0,0.3,0,0.5,0,0.8v0.6c0,0.2,0,0.5,0,0.7c-0.1,8-0.1,16.1,0.1,24.1c0,0.2,0,0.5,0,0.7
			v0.7c0,0.2,0,0.5,0,0.7c0.2,8,0.6,16.1,1.1,24.1c0,0.2,0,0.5,0,0.7v0.5c0,0.2,0,0.5,0.1,0.7c0.5,8.1,1.2,16.2,2,24.1
			c0,0.2,0,0.4,0.1,0.6l0,0c0.1,0.6,0.1,1.3,0.2,1.9c0.2,1.8,0.4,3.6,0.6,5.4c0.1,1.2,0.3,2.3,0.4,3.5c0.2,1.9,0.4,3.8,0.7,5.7
			c0.1,1,0.2,2,0.4,3c0.3,2.1,0.5,4.2,0.8,6.2c0.1,0.8,0.2,1.6,0.3,2.4c0.3,2.3,0.6,4.6,0.9,6.8c0.1,0.6,0.2,1.2,0.2,1.8
			c0.4,2.7,0.8,5.4,1.2,7.9l0.1,0.5c1.7,11.5,3.6,22.7,5.6,33.3l0.1,0.5c0.5,2.5,0.9,4.9,1.4,7.2c0.1,0.3,0.1,0.6,0.2,1
			c0.4,2.2,0.9,4.4,1.3,6.5c0.1,0.4,0.2,0.9,0.3,1.3c0.4,2.1,0.8,4.1,1.3,6.1l0.3,1.2c0.4,2,0.8,4,1.3,5.9l0.3,1.2
			c0.4,2,0.9,3.9,1.3,5.9l0.2,1c0.4,2,0.9,4,1.3,5.9l0.2,0.7c0.5,2,0.9,4,1.4,5.9l0.1,0.5c3,12.5,5.7,23.3,8,31.8l0.2,0.7
			c0.3,1.2,0.6,2.3,0.9,3.4l0.3,0.9l0.8,2.9l0.2,0.8c0.2,0.8,0.5,1.6,0.7,2.4l0.3,1c0.2,0.7,0.4,1.3,0.6,2c0.1,0.3,0.2,0.6,0.3,0.9
			l0.5,1.6c0.1,0.3,0.2,0.6,0.3,0.9l0.4,1.2l0.2,0.8l0.2,0.8c0.1,0.3,0.2,0.5,0.2,0.7l0.3,0.8l0.1,0.2c0.2,0.6,0.3,1,0.3,1
			l38.5,124.9l30.7,99.9l38.5,124.9c0,0,0.1,0.4,0.3,1l0.1,0.2c0.1,0.2,0.2,0.5,0.3,0.8l0.2,0.7c0.1,0.3,0.2,0.5,0.3,0.8
			s0.2,0.5,0.3,0.8c0.1,0.4,0.2,0.8,0.4,1.2c0.1,0.3,0.2,0.6,0.3,0.9l0.5,1.6l0.3,0.9c0.2,0.6,0.4,1.3,0.6,1.9
			c0.1,0.3,0.2,0.7,0.3,1c0.2,0.7,0.5,1.5,0.8,2.3l0.3,0.9c0.3,0.9,0.6,1.8,1,2.8l0.3,0.9c0.4,1,0.7,2.1,1.1,3.3l0.2,0.7
			c0.5,1.4,1,2.8,1.5,4.3l0,0c2.7,7.6,5.9,16.6,9.8,26.6l0.2,0.5c0.7,1.8,1.4,3.7,2.2,5.6c0.1,0.2,0.2,0.5,0.3,0.7
			c0.7,1.8,1.5,3.7,2.2,5.6l0.4,1c0.7,1.8,1.5,3.7,2.2,5.5l0.5,1.2c0.8,1.8,1.5,3.7,2.3,5.6l0.5,1.2c0.8,1.9,1.6,3.8,2.4,5.8
			c0.2,0.4,0.4,0.8,0.5,1.3c0.9,2,1.7,4.1,2.6,6c0.1,0.3,0.3,0.6,0.4,1c1,2.2,1.9,4.5,2.9,6.6l0.2,0.6c4.4,9.9,9,20.1,14.1,30.6
			l0.3,0.6c1.1,2.4,2.3,4.8,3.5,7.1c0.3,0.6,0.6,1.1,0.8,1.7c1,2,2,4.1,3.1,6c0.4,0.7,0.8,1.5,1.1,2.2c0.9,1.9,1.9,3.7,2.9,5.6
			c0.5,0.9,1,1.8,1.4,2.8c0.9,1.7,1.8,3.4,2.7,5.1c0.6,1.1,1.1,2.1,1.7,3.2c0.8,1.6,1.7,3.2,2.6,4.7c0.3,0.6,0.6,1.1,0.9,1.7l0,0
			c0.1,0.2,0.2,0.4,0.3,0.6c3.9,7,7.8,14,11.9,21c0.1,0.2,0.2,0.4,0.3,0.6c0.1,0.1,0.2,0.3,0.2,0.4c0.1,0.2,0.2,0.4,0.4,0.6
			c4.1,6.8,8.3,13.7,12.6,20.5c0.1,0.2,0.2,0.4,0.4,0.6c0.2,0.2,0.2,0.4,0.4,0.6c0.1,0.2,0.3,0.4,0.4,0.6
			c4.4,6.7,8.8,13.4,13.5,19.9c0.1,0.2,0.3,0.4,0.4,0.6s0.2,0.3,0.4,0.5c0.1,0.2,0.3,0.4,0.5,0.6c4.7,6.5,9.4,12.9,14.4,19.2
			c0.1,0.2,0.3,0.4,0.4,0.5s0.2,0.2,0.2,0.3c0.2,0.3,0.5,0.6,0.7,0.8c3.5,4.4,7,8.7,10.7,13c0.5,0.6,1,1.1,1.5,1.7
			c3.7,4.2,7.3,8.3,11.1,12.3c0.3,0.3,0.5,0.6,0.8,0.9l0,0c0.1,0.1,0.3,0.3,0.4,0.4c5.5,5.7,11,11.1,16.7,16.3
			c0.2,0.2,0.4,0.4,0.6,0.6l0,0c0.3,0.2,0.6,0.5,0.8,0.7c2.6,2.3,5.3,4.6,7.9,6.8c0.5,0.5,1.1,0.9,1.6,1.3c2.3,1.9,4.6,3.7,6.8,5.5
			c0.4,0.3,0.9,0.7,1.3,1l0,0c0.3,0.2,0.6,0.4,0.9,0.7c2.8,2.1,5.6,4.1,8.4,5.9c0.4,0.3,0.8,0.5,1.3,0.8c2.5,1.7,5.1,3.3,7.5,4.8
			c0.4,0.3,0.9,0.6,1.3,0.8l0,0c0.3,0.2,0.7,0.4,1,0.6c3,1.7,5.9,3.4,8.8,5c0.2,0.1,0.5,0.2,0.8,0.4c2.8,1.4,5.6,2.8,8.4,4.1
			c0.4,0.2,0.8,0.4,1.2,0.6c0.4,0.2,0.9,0.3,1.3,0.5c2.1,0.9,4.3,1.8,6.4,2.6c0.9,0.4,1.9,0.8,2.8,1.1c3.7,1.3,7.2,2.5,10.9,3.7
			c0.1,0,0.1,0,0.2,0.1c1.2,0.4,2.4,0.8,3.7,1.2l0,0c1.9,0.6,3.8,1.2,5.6,1.8h0.1c67.4,21,132.7,25.1,207.1,16.1
			c0.3,0,0.6-0.1,0.9-0.1c4.5-0.5,8.9-1.2,13.4-1.8c0.7-0.1,1.4-0.2,2.1-0.3c4.3-0.6,8.5-1.3,12.8-2c1-0.2,2-0.3,2.9-0.5
			c4.1-0.7,8.2-1.4,12.4-2.2c1.2-0.2,2.5-0.4,3.7-0.7c4-0.7,8-1.5,12.1-2.3c1.5-0.3,2.9-0.6,4.4-0.9c3.9-0.8,7.8-1.6,11.8-2.5
			c1.7-0.3,3.3-0.7,5-1.1c3.9-0.8,7.7-1.7,11.6-2.6c1.9-0.4,3.7-0.8,5.6-1.3c3.8-0.9,7.6-1.8,11.4-2.7c2.1-0.5,4.2-1,6.2-1.5
			c3.8-0.9,7.4-1.8,11.2-2.8c2.3-0.6,4.6-1.2,6.8-1.7c3.7-0.9,7.3-1.9,11-2.9c2.5-0.7,5-1.3,7.4-2c3.6-1,7.2-1.9,10.9-2.9
			c2.8-0.7,5.6-1.5,8.3-2.3c3.5-1,6.9-1.9,10.5-2.9c3.1-0.9,6.1-1.7,9.2-2.6c3.4-1,6.7-1.9,10.2-2.9c3.4-1,6.7-2,10.2-3
			c3.3-0.9,6.4-1.9,9.7-2.8c4-1.2,7.9-2.3,11.9-3.5c2.9-0.8,5.7-1.7,8.5-2.5c4.7-1.4,9.4-2.8,14.2-4.3c2.3-0.7,4.6-1.4,6.8-2.1
			c5.6-1.7,11.2-3.4,16.8-5.1c1.7-0.5,3.3-1,5-1.5c7.3-2.3,14.9-4.6,22.4-6.8c7.5-2.3,15.1-4.7,22.4-6.9c1.7-0.5,3.3-1,5-1.6
			c5.7-1.8,11.2-3.5,16.8-5.3c2.3-0.7,4.6-1.5,6.8-2.2c4.8-1.5,9.5-3,14.2-4.5c2.9-0.9,5.7-1.8,8.4-2.7c4-1.3,7.9-2.6,11.8-3.8
			c3.3-1.1,6.4-2.1,9.6-3.2c3.4-1.1,6.7-2.2,10-3.3c3.5-1.1,6.8-2.3,10.2-3.4c3-1,5.9-2,8.9-3c3.6-1.2,7-2.4,10.5-3.6
			c2.7-0.9,5.4-1.8,8-2.8c3.6-1.3,7.1-2.5,10.7-3.8c2.4-0.9,4.9-1.7,7.1-2.6c3.7-1.3,7.3-2.7,11-4c2.1-0.8,4.3-1.5,6.3-2.3
			c3.8-1.4,7.4-2.8,11.2-4.2c1.9-0.7,3.8-1.4,5.7-2.2c3.8-1.4,7.4-2.9,11.1-4.3c1.7-0.7,3.5-1.4,5.2-2c3.8-1.5,7.5-3,11.2-4.5
			c1.5-0.6,3.1-1.2,4.6-1.9c3.8-1.6,7.6-3.2,11.3-4.8c1.3-0.6,2.6-1.1,3.9-1.7c3.9-1.7,7.7-3.3,11.5-5c1.1-0.5,2.2-1,3.3-1.5
			c3.9-1.8,7.7-3.5,11.6-5.3c0.9-0.4,1.7-0.8,2.6-1.2c4-1.9,7.9-3.8,11.8-5.7c0.6-0.3,1.2-0.6,1.8-0.9c4.1-2,8.1-4.1,12.2-6.1
			c0.2-0.1,0.5-0.2,0.7-0.4c66.7-34.4,118.5-74.5,162.4-129.9l0,0c1.2-1.5,2.5-3.1,3.7-4.6l0,0c0.8-1.1,1.6-2.2,2.5-3.3l0,0
			c2.3-3.1,4.7-6,6.9-9.1c0.6-0.8,1.1-1.7,1.7-2.5c1.3-1.9,2.6-3.9,3.9-5.8c0.2-0.4,0.5-0.8,0.8-1.1s0.4-0.8,0.7-1.2
			c1.7-2.7,3.3-5.4,4.8-8.1c0.1-0.2,0.3-0.4,0.4-0.7c1.6-3,3.1-6,4.6-9.1c0.2-0.4,0.4-0.7,0.5-1l0,0c0.2-0.5,0.4-0.9,0.6-1.4
			c1.3-2.8,2.5-5.5,3.6-8.3c0.2-0.4,0.4-0.9,0.6-1.3c1.3-3.2,2.5-6.4,3.6-9.7c0.1-0.4,0.3-0.7,0.4-1.1V337c0.2-0.5,0.3-1.1,0.5-1.6
			c0.9-2.8,1.8-5.6,2.7-8.4c0.2-0.7,0.4-1.3,0.6-2c1-3.4,1.9-6.7,2.7-10.1c0.1-0.4,0.2-0.7,0.3-1.1l0,0c0.1-0.3,0.1-0.5,0.2-0.8
			c1.8-7.4,3.4-15.1,4.7-22.9c0-0.2,0.1-0.4,0.1-0.6l0,0c0.1-0.4,0.1-0.8,0.2-1.2c0.9-5.5,1.7-10.9,2.3-16.5
			c0.1-0.7,0.2-1.5,0.3-2.2c0.6-5.6,1.2-11.1,1.6-16.8c0-0.4,0.1-0.7,0.1-1.1c0-0.1,0-0.3,0-0.4c0-0.2,0-0.4,0-0.7
			c0.6-7.9,0.9-16,1.1-24c0-0.3,0-0.5,0-0.8v-0.6c0-0.2,0-0.5,0-0.7c0.1-8,0.1-16.1-0.1-24.1c0-0.2,0-0.5,0-0.7V199
			c0-0.2,0-0.5,0-0.7c-0.2-8-0.6-16.1-1.1-24.1c0-0.2,0-0.5,0-0.7V173c0-0.2,0-0.5-0.1-0.7c-0.5-8.1-1.2-16.2-2-24.1
			c0-0.2,0-0.4-0.1-0.6l0,0c-0.1-0.6-0.1-1.3-0.2-1.9c-0.2-1.8-0.4-3.6-0.6-5.4c-0.1-1.2-0.3-2.3-0.4-3.5c-0.2-1.9-0.4-3.8-0.7-5.7
			c-0.1-1-0.2-2-0.4-3c-0.3-2.1-0.5-4.2-0.8-6.2c-0.1-0.8-0.2-1.6-0.3-2.4c-0.3-2.3-0.6-4.6-0.9-6.8l-0.2-1.8
			c-0.4-2.7-0.8-5.4-1.2-7.9l-0.1-0.5c-1.7-11.5-3.6-22.7-5.6-33.3l-0.1-0.5c-0.5-2.5-0.9-4.9-1.4-7.2c-0.1-0.3-0.1-0.6-0.2-1
			c-0.4-2.2-0.9-4.4-1.3-6.5c-0.1-0.4-0.2-0.9-0.3-1.3c-0.4-2.1-0.8-4.1-1.3-6.1l-0.3-1.2c-0.4-2-0.8-4-1.3-5.9l-0.3-1.2
			c-0.4-2-0.9-3.9-1.3-5.9c-0.1-0.3-0.1-0.6-0.2-1c-0.4-2-0.9-4-1.3-5.9l-0.2-0.7c-0.5-2-0.9-4-1.4-5.9c0-0.2-0.1-0.3-0.1-0.5
			c-3-12.5-5.7-23.3-8-31.8c-0.1-0.2-0.1-0.4-0.2-0.7c-0.3-1.2-0.6-2.3-0.9-3.4l-0.3-0.9c-0.3-1-0.5-2-0.8-2.9
			c-0.1-0.3-0.2-0.6-0.2-0.8c-0.2-0.8-0.5-1.6-0.7-2.4l-0.3-1c-0.2-0.7-0.4-1.3-0.6-2c-0.1-0.3-0.2-0.6-0.3-0.9
			c-0.2-0.6-0.3-1.1-0.5-1.6l-0.3-0.9c-0.1-0.4-0.2-0.8-0.4-1.2c-0.1-0.3-0.2-0.6-0.2-0.8l-0.2-0.8c-0.1-0.3-0.2-0.5-0.2-0.7
			c-0.1-0.3-0.2-0.6-0.2-0.8l-0.1-0.2c-0.2-0.6-0.3-1-0.3-1l-38.5-124.9L981-262l-38.5-124.9c0,0-0.1-0.4-0.3-1
			c0-0.1-0.1-0.2-0.1-0.2c-0.1-0.2-0.2-0.5-0.3-0.8l-0.2-0.7c-0.1-0.3-0.2-0.5-0.3-0.8s-0.2-0.5-0.3-0.8l-0.4-1.2l-0.3-0.9l-0.5-1.6
			l-0.3-0.9c-0.2-0.6-0.4-1.3-0.6-1.9c-0.1-0.3-0.2-0.7-0.3-1l-0.8-2.3c-0.1-0.3-0.2-0.6-0.3-0.9c-0.3-0.9-0.6-1.8-1-2.8
			c-0.1-0.3-0.2-0.6-0.3-0.9c-0.4-1-0.7-2.1-1.1-3.3l-0.2-0.7c-0.5-1.4-1-2.8-1.5-4.3c0,0,0,0,0-0.1c-2.7-7.6-5.9-16.6-9.8-26.6
			l-0.2-0.5c-0.7-1.8-1.4-3.7-2.2-5.6c-0.1-0.2-0.2-0.5-0.3-0.7c-0.7-1.8-1.5-3.7-2.2-5.6c-0.1-0.3-0.3-0.6-0.4-1
			c-0.7-1.8-1.5-3.7-2.2-5.5l-0.5-1.2c-0.8-1.8-1.5-3.7-2.3-5.6l-0.5-1.2c-0.8-1.9-1.6-3.8-2.4-5.8c-0.2-0.4-0.4-0.8-0.5-1.3
			c-0.9-2-1.7-4.1-2.6-6c-0.1-0.3-0.3-0.6-0.4-1c-1-2.2-1.9-4.5-2.9-6.6l-0.2-0.6c-4.4-9.9-9-20.1-14.1-30.6l-0.3-0.6
			c-1.1-2.4-2.3-4.8-3.5-7.1c-0.3-0.6-0.6-1.1-0.8-1.7c-1-2-2-4.1-3.1-6c-0.4-0.7-0.8-1.5-1.1-2.2c-0.9-1.9-1.9-3.7-2.9-5.6
			c-0.5-0.9-1-1.8-1.4-2.8c-0.9-1.7-1.8-3.4-2.7-5.1c-0.6-1.1-1.1-2.1-1.7-3.2c-0.8-1.6-1.7-3.2-2.6-4.7c-0.3-0.6-0.6-1.1-0.9-1.7
			l0,0c-0.1-0.2-0.2-0.4-0.3-0.6c-3.9-7-7.8-14-11.9-21c-0.1-0.2-0.2-0.4-0.3-0.6c-0.1-0.1-0.2-0.3-0.2-0.4
			c-0.1-0.2-0.2-0.4-0.4-0.6c-4.1-6.8-8.3-13.7-12.6-20.5c-0.1-0.2-0.2-0.4-0.4-0.6l-0.4-0.6c-0.1-0.2-0.3-0.4-0.4-0.6
			c-4.4-6.7-8.8-13.4-13.5-19.9c-0.1-0.2-0.3-0.4-0.4-0.6c-0.1-0.2-0.2-0.3-0.4-0.5c-0.1-0.2-0.3-0.4-0.5-0.6
			c-4.7-6.5-9.4-12.9-14.4-19.2c-0.1-0.2-0.3-0.4-0.4-0.5c-0.1-0.1-0.2-0.2-0.2-0.3c-0.2-0.3-0.5-0.6-0.7-0.8
			c-3.5-4.5-7-8.7-10.7-13c-0.5-0.6-1-1.1-1.5-1.7c-3.7-4.2-7.3-8.3-11.1-12.3c-0.3-0.3-0.5-0.6-0.8-0.9l0,0
			c-0.1-0.1-0.3-0.3-0.4-0.4c-5.5-5.7-11-11.1-16.7-16.3c-0.2-0.2-0.4-0.4-0.6-0.6l0,0c-0.3-0.2-0.6-0.5-0.8-0.7
			c-2.6-2.4-5.3-4.6-7.9-6.8c-0.5-0.4-1.1-0.9-1.6-1.3c-2.3-1.9-4.6-3.7-6.8-5.5c-0.4-0.3-0.9-0.7-1.3-1l0,0
			c-0.3-0.2-0.6-0.4-0.9-0.7c-2.8-2.1-5.6-4.1-8.4-5.9c-0.4-0.3-0.8-0.5-1.3-0.8c-2.5-1.7-5.1-3.3-7.5-4.8c-0.4-0.3-0.9-0.6-1.3-0.8
			l0,0c-0.3-0.2-0.7-0.4-1-0.6c-3-1.7-5.9-3.4-8.8-5c-0.2-0.1-0.5-0.2-0.8-0.4c-2.8-1.4-5.6-2.8-8.4-4.1c-0.4-0.2-0.8-0.4-1.2-0.6
			c-0.4-0.2-0.9-0.3-1.3-0.5c-2.1-0.9-4.3-1.8-6.4-2.6c-0.9-0.4-1.9-0.8-2.8-1.1c-3.7-1.3-7.2-2.5-10.9-3.7c-0.1,0-0.1,0-0.2-0.1
			c-1.2-0.4-2.4-0.8-3.7-1.2l0,0c-1.9-0.6-3.8-1.2-5.6-1.8h0.4C613.6-763.4,548.4-767.5,473.9-758.5z"/>
		<path id="Trazado_1625" class="st3" d="M1312.3,217c-0.2,0-0.4-0.1-0.6-0.1c-3.3-0.6-6.5-1.1-9.8-1.7c-0.5-0.1-1-0.2-1.6-0.3
			c-3.1-0.5-6.2-1-9.4-1.4c-0.7-0.1-1.5-0.2-2.2-0.3c-3.1-0.4-6.1-0.8-9.2-1.2c-0.9-0.1-1.8-0.2-2.8-0.3c-3-0.4-5.9-0.7-9-1
			c-1.1-0.1-2.2-0.2-3.3-0.3c-3-0.3-5.9-0.6-8.9-0.9c-1.2-0.1-2.5-0.2-3.7-0.3c-2.9-0.3-5.9-0.5-8.7-0.7c-1.4-0.1-2.8-0.2-4.2-0.3
			c-2.9-0.2-5.8-0.4-8.6-0.6c-1.6-0.1-3.2-0.2-4.7-0.3c-2.8-0.2-5.7-0.3-8.5-0.5c-1.7-0.1-3.5-0.2-5.3-0.3c-2.8-0.1-5.6-0.3-8.4-0.4
			c-1.9-0.1-3.8-0.2-5.8-0.2c-2.8-0.1-5.6-0.2-8.3-0.3c-2.1-0.1-4.3-0.1-6.3-0.2c-2.7-0.1-5.4-0.2-8-0.2c-2.3-0.1-4.7-0.1-7-0.2
			c-2.6-0.1-5.2-0.1-7.8-0.2c-2.6-0.1-5.2-0.1-7.8-0.1c-2.5,0-5-0.1-7.4-0.1c-3,0-6-0.1-9.1-0.1c-2.2,0-4.4-0.1-6.5-0.1
			c-3.6,0-7.2-0.1-10.9-0.1c-1.8,0-3.5,0-5.3,0c-4.3,0-8.6,0-13-0.1c-1.3,0-2.6,0-3.9,0c-5.7,0-11.5,0-17.4,0s-11.6,0-17.4,0
			c-1.3,0-2.6,0-3.9,0c-4.4,0-8.7,0-13,0.1c-1.8,0-3.5,0-5.3,0c-3.7,0-7.3,0.1-10.9,0.1c-2.2,0-4.4,0.1-6.5,0.1
			c-3.1,0-6.1,0.1-9.1,0.1c-2.5,0-5,0.1-7.4,0.1c-2.6,0-5.3,0.1-7.8,0.1c-2.7,0.1-5.3,0.1-7.9,0.2c-2.3,0.1-4.7,0.1-6.9,0.2
			c-2.8,0.1-5.5,0.2-8.2,0.2c-2.1,0.1-4.2,0.1-6.2,0.2c-2.8,0.1-5.6,0.2-8.3,0.3c-1.9,0.1-3.8,0.2-5.7,0.2c-2.9,0.1-5.8,0.3-8.6,0.4
			c-1.7,0.1-3.3,0.2-5,0.3c-3,0.2-5.9,0.3-8.8,0.5c-1.5,0.1-3,0.2-4.5,0.3c-3,0.2-5.9,0.4-8.8,0.6c-1.4,0.1-2.8,0.2-4.1,0.3
			c-3,0.2-5.9,0.5-8.8,0.7c-1.2,0.1-2.4,0.2-3.6,0.3c-3.1,0.3-6,0.6-9,0.9c-1,0.1-2.1,0.2-3.1,0.3c-3.1,0.3-6.1,0.7-9.2,1
			c-0.9,0.1-1.7,0.2-2.6,0.3c-3.2,0.4-6.2,0.8-9.3,1.2c-0.7,0.1-1.4,0.2-2.1,0.3c-3.2,0.5-6.4,0.9-9.5,1.4c-0.5,0.1-1,0.2-1.4,0.2
			c-3.4,0.5-6.6,1.1-9.9,1.7c-0.2,0-0.4,0.1-0.6,0.1c-54.5,9.8-99.8,26.9-142.8,56.4l0,0c-1.2,0.8-2.4,1.6-3.6,2.5l0,0
			c-0.8,0.6-1.6,1.2-2.4,1.8l0,0c-2.3,1.7-4.6,3.3-6.8,5c-0.6,0.4-1.1,0.9-1.7,1.4c-1.4,1.1-2.7,2.2-4,3.3c-0.3,0.2-0.5,0.4-0.8,0.6
			s-0.5,0.5-0.7,0.7c-1.8,1.5-3.5,3.1-5.2,4.8c-0.1,0.1-0.3,0.3-0.4,0.4c-1.8,1.8-3.5,3.6-5.2,5.5c-0.2,0.2-0.4,0.4-0.6,0.6l0,0
			c-0.2,0.3-0.5,0.6-0.7,0.8c-1.5,1.7-2.9,3.4-4.4,5.1c-0.2,0.3-0.5,0.5-0.7,0.8c-1.6,2-3.2,4-4.7,6c-0.2,0.2-0.3,0.4-0.5,0.7l0,0
			c-0.2,0.3-0.5,0.7-0.7,1c-1.3,1.8-2.5,3.6-3.7,5.4c-0.3,0.4-0.6,0.8-0.8,1.3c-1.4,2.2-2.8,4.4-4.2,6.5c-0.1,0.2-0.3,0.4-0.4,0.7
			l0,0c-0.1,0.2-0.2,0.4-0.3,0.5c-2.9,4.9-5.7,9.9-8.2,15.1c-0.1,0.1-0.1,0.2-0.2,0.4l0,0c-0.1,0.3-0.2,0.5-0.4,0.8
			c-1.8,3.7-3.6,7.3-5.2,11.1c-0.2,0.5-0.4,1-0.7,1.5c-1.7,3.8-3.3,7.6-4.8,11.5c-0.1,0.2-0.2,0.5-0.3,0.7c0,0.1-0.1,0.2-0.1,0.3
			c-0.1,0.2-0.1,0.3-0.2,0.5c-2.1,5.5-4.1,11-5.9,16.7c-0.1,0.2-0.1,0.3-0.2,0.5c0,0.1-0.1,0.3-0.1,0.4c-0.1,0.2-0.1,0.3-0.1,0.5
			c-1.9,5.7-3.6,11.3-5.2,17c0,0.2-0.1,0.3-0.2,0.5c0,0.2-0.1,0.3-0.1,0.5s-0.1,0.3-0.1,0.5c-1.6,5.8-3.1,11.5-4.5,17.3
			c0,0.2-0.1,0.3-0.1,0.5l-0.1,0.4c0,0.2-0.1,0.3-0.1,0.5c-1.4,5.9-2.7,11.6-3.9,17.5c0,0.2-0.1,0.3-0.1,0.5l0,0
			c-0.1,0.5-0.2,0.9-0.3,1.4c-0.3,1.3-0.5,2.6-0.8,4c-0.2,0.9-0.3,1.7-0.5,2.6c-0.3,1.4-0.5,2.8-0.8,4.2c-0.1,0.7-0.3,1.5-0.4,2.2
			c-0.3,1.5-0.6,3.1-0.8,4.6c-0.1,0.6-0.2,1.2-0.3,1.8c-0.3,1.7-0.6,3.4-0.8,5.1c-0.1,0.4-0.1,0.9-0.2,1.3c-0.3,2-0.6,3.9-0.9,5.9
			l-0.1,0.4c-1.3,8.5-2.4,16.8-3.3,24.7c0,0.1,0,0.3,0,0.4c-0.2,1.8-0.4,3.7-0.6,5.5l-0.1,0.7c-0.2,1.7-0.4,3.3-0.5,4.9
			c0,0.3-0.1,0.6-0.1,1c-0.2,1.6-0.3,3.1-0.5,4.6l-0.1,0.9c-0.1,1.5-0.3,3-0.4,4.5l-0.1,0.9c-0.1,1.5-0.3,3-0.4,4.4l-0.1,0.7
			c-0.1,1.5-0.2,3-0.3,4.5c0,0.2,0,0.3,0,0.5c-0.1,1.5-0.2,3-0.3,4.5c0,0.1,0,0.2,0,0.4c-0.7,9.4-1,17.7-1.3,24.2c0,0.2,0,0.3,0,0.5
			c0,0.9-0.1,1.8-0.1,2.6v0.7l-0.1,2.2c0,0.2,0,0.4,0,0.7v1.8c0,0.3,0,0.5,0,0.8c0,0.5,0,1,0,1.5v0.7v1.3c0,0.2,0,0.5,0,0.7
			c0,0.3,0,0.6,0,0.9c0,0.2,0,0.4,0,0.6s0,0.4,0,0.6s0,0.4,0,0.6s0,0.4,0,0.6v0.2c0,0.5,0,0.8,0,0.8v270.2c0,0,0,0.3,0,0.8v0.2
			c0,0.2,0,0.4,0,0.6s0,0.4,0,0.6s0,0.4,0,0.6s0,0.4,0,0.6c0,0.3,0,0.6,0,0.9c0,0.2,0,0.5,0,0.7v1.2v0.7c0,0.5,0,1,0,1.5
			c0,0.3,0,0.5,0,0.8c0,0.6,0,1.2,0,1.8v0.7l0.1,2.2v0.7c0,0.8,0.1,1.7,0.1,2.5c0,0.2,0,0.4,0,0.5c0,1.1,0.1,2.2,0.1,3.3l0,0
			c0.2,5.9,0.6,13,1.2,20.8v0.4c0.1,1.4,0.2,2.9,0.3,4.4v0.6c0.1,1.5,0.2,2.9,0.3,4.4c0,0.3,0,0.5,0.1,0.8c0.1,1.4,0.2,2.9,0.4,4.4
			c0,0.3,0.1,0.6,0.1,1c0.1,1.5,0.3,3,0.4,4.5l0.1,1c0.1,1.5,0.3,3,0.5,4.6c0,0.3,0.1,0.7,0.1,1c0.2,1.6,0.3,3.2,0.5,4.9l0.1,0.8
			c0.2,1.8,0.4,3.6,0.6,5.4c0,0.1,0,0.3,0,0.4c0.9,7.9,2,16.2,3.3,24.7l0.1,0.5c0.3,1.9,0.6,3.9,0.9,5.8c0.1,0.5,0.2,0.9,0.2,1.4
			c0.3,1.7,0.5,3.3,0.8,5c0.1,0.6,0.2,1.2,0.3,1.8c0.3,1.5,0.5,3,0.8,4.6c0.1,0.8,0.3,1.5,0.4,2.3c0.3,1.4,0.5,2.8,0.8,4.1
			c0.2,0.9,0.3,1.7,0.5,2.6c0.3,1.3,0.5,2.6,0.8,3.9c0.1,0.5,0.2,0.9,0.3,1.4l0,0c0,0.2,0.1,0.3,0.1,0.5c1.2,5.8,2.5,11.6,3.9,17.4
			c0,0.2,0.1,0.3,0.1,0.5l0.1,0.4c0,0.2,0.1,0.3,0.1,0.5c1.4,5.8,2.9,11.5,4.5,17.3c0,0.2,0.1,0.3,0.1,0.5s0.1,0.3,0.1,0.5
			s0.1,0.3,0.2,0.5c1.6,5.7,3.4,11.4,5.2,17c0.1,0.2,0.1,0.3,0.1,0.5c0,0.1,0.1,0.3,0.1,0.4c0.1,0.2,0.1,0.4,0.2,0.5
			c1.9,5.7,3.9,11.2,5.9,16.7c0.1,0.2,0.1,0.3,0.2,0.5c0,0.1,0.1,0.2,0.1,0.3c0.1,0.3,0.2,0.5,0.3,0.8c1.5,3.9,3.1,7.7,4.8,11.5
			c0.2,0.5,0.4,1,0.7,1.5c1.7,3.8,3.4,7.4,5.2,11.1c0.1,0.3,0.2,0.5,0.4,0.8l0,0c0.1,0.1,0.1,0.2,0.2,0.4c2.6,5.2,5.4,10.2,8.2,15.1
			c0.1,0.2,0.2,0.4,0.3,0.5l0,0c0.1,0.2,0.3,0.5,0.4,0.7c1.4,2.2,2.7,4.4,4.1,6.5c0.3,0.4,0.6,0.9,0.9,1.3c1.2,1.8,2.5,3.6,3.7,5.4
			c0.2,0.3,0.5,0.7,0.7,1l0,0c0.2,0.2,0.3,0.4,0.5,0.7c1.5,2.1,3.1,4.1,4.7,6c0.2,0.3,0.5,0.6,0.7,0.9c1.4,1.7,2.9,3.4,4.3,5.1
			c0.2,0.3,0.5,0.6,0.7,0.9l0,0c0.2,0.2,0.4,0.4,0.6,0.6c1.7,1.9,3.4,3.7,5.2,5.5c0.1,0.1,0.3,0.3,0.4,0.4c1.7,1.6,3.4,3.2,5.1,4.7
			c0.3,0.2,0.5,0.5,0.8,0.7s0.5,0.4,0.8,0.7c1.3,1.1,2.6,2.2,4,3.2c0.6,0.5,1.1,1,1.7,1.4c2.3,1.7,4.6,3.4,6.8,5l0.1,0.1
			c0.8,0.6,1.5,1.1,2.3,1.7l0,0c1.2,0.8,2.4,1.6,3.6,2.5l0,0c43,29.5,88.3,46.6,142.7,56.3c0.2,0,0.4,0.1,0.7,0.1
			c3.3,0.6,6.5,1.1,9.8,1.7c0.5,0.1,1,0.2,1.5,0.2c3.2,0.5,6.2,1,9.5,1.4c0.7,0.1,1.5,0.2,2.2,0.3c3.1,0.4,6.1,0.8,9.2,1.2
			c0.9,0.1,1.8,0.2,2.8,0.3c3,0.4,5.9,0.7,9,1c1.1,0.1,2.2,0.2,3.3,0.3c3,0.3,5.9,0.6,8.9,0.9c1.2,0.1,2.5,0.2,3.7,0.3
			c2.9,0.3,5.9,0.5,8.7,0.7c1.4,0.1,2.8,0.2,4.2,0.3c2.9,0.2,5.8,0.4,8.6,0.6c1.6,0.1,3.2,0.2,4.7,0.3c2.8,0.2,5.7,0.3,8.5,0.5
			c1.7,0.1,3.5,0.2,5.3,0.3c2.8,0.1,5.6,0.3,8.4,0.4c1.9,0.1,3.8,0.2,5.8,0.2c2.8,0.1,5.6,0.2,8.3,0.3c2.1,0.1,4.3,0.1,6.3,0.2
			c2.7,0.1,5.4,0.2,8,0.2c2.3,0.1,4.7,0.1,7,0.2c2.6,0.1,5.2,0.1,7.8,0.2s5.2,0.1,7.8,0.1c2.5,0,5,0.1,7.4,0.1c3,0,6,0.1,9.1,0.1
			c2.2,0,4.4,0.1,6.5,0.1c3.6,0,7.2,0.1,10.9,0.1c1.8,0,3.5,0,5.3,0c4.3,0,8.6,0,13,0.1c1.3,0,2.6,0,3.9,0c5.7,0,11.5,0,17.4,0
			s11.6,0,17.4,0c1.3,0,2.6,0,3.9,0c4.4,0,8.7,0,13-0.1c1.8,0,3.5,0,5.3,0c3.7,0,7.3-0.1,10.9-0.1c2.2,0,4.4-0.1,6.5-0.1
			c3.1,0,6.1-0.1,9.1-0.1c2.5,0,5-0.1,7.4-0.1c2.6,0,5.3-0.1,7.8-0.1c2.7-0.1,5.3-0.1,7.9-0.2c2.3-0.1,4.7-0.1,6.9-0.2
			c2.8-0.1,5.5-0.2,8.2-0.2c2.1-0.1,4.2-0.1,6.2-0.2c2.8-0.1,5.6-0.2,8.3-0.3c1.9-0.1,3.8-0.2,5.7-0.2c2.9-0.1,5.8-0.3,8.6-0.4
			c1.7-0.1,3.3-0.2,5-0.3c3-0.2,5.9-0.3,8.8-0.5c1.5-0.1,3-0.2,4.5-0.3c3-0.2,5.9-0.4,8.8-0.6c1.4-0.1,2.8-0.2,4.1-0.3
			c3-0.2,5.9-0.5,8.8-0.7c1.2-0.1,2.4-0.2,3.6-0.3c3.1-0.3,6-0.6,9-0.9c1-0.1,2.1-0.2,3.1-0.3c3.1-0.3,6.1-0.7,9.2-1
			c0.9-0.1,1.7-0.2,2.6-0.3c3.2-0.4,6.2-0.8,9.3-1.2c0.7-0.1,1.4-0.2,2.1-0.3c3.2-0.5,6.4-0.9,9.5-1.4c0.5-0.1,1-0.2,1.4-0.2
			c3.4-0.5,6.6-1.1,9.9-1.7c0.2,0,0.4-0.1,0.6-0.1c54.5-9.8,99.8-26.9,142.8-56.4l0,0c1.2-0.8,2.4-1.6,3.6-2.5l0,0
			c0.8-0.6,1.6-1.2,2.4-1.8l0,0c2.3-1.6,4.6-3.3,6.8-5c0.6-0.4,1.1-0.9,1.7-1.4c1.4-1.1,2.7-2.2,4-3.3c0.3-0.2,0.5-0.4,0.8-0.6
			s0.5-0.5,0.7-0.7c1.8-1.5,3.5-3.1,5.2-4.7c0.1-0.1,0.3-0.3,0.4-0.4c1.8-1.8,3.5-3.6,5.2-5.5c0.2-0.2,0.4-0.4,0.6-0.6l0,0
			c0.2-0.3,0.5-0.6,0.7-0.8c1.5-1.7,2.9-3.4,4.4-5.1c0.2-0.3,0.5-0.5,0.7-0.8c1.6-2,3.2-4,4.7-6c0.2-0.2,0.3-0.4,0.5-0.7l0,0
			c0.2-0.3,0.5-0.7,0.7-1c1.3-1.8,2.5-3.6,3.7-5.4c0.3-0.4,0.6-0.8,0.8-1.3c1.4-2.2,2.8-4.4,4.2-6.5c0.1-0.2,0.3-0.5,0.4-0.7l0,0
			c0.1-0.2,0.2-0.4,0.3-0.5c2.9-4.9,5.7-9.9,8.2-15.1c0.1-0.1,0.1-0.2,0.2-0.4l0,0c0.1-0.3,0.2-0.5,0.4-0.8
			c1.8-3.7,3.6-7.3,5.2-11.1c0.2-0.5,0.4-1,0.7-1.5c1.7-3.8,3.3-7.6,4.8-11.5c0.1-0.2,0.2-0.5,0.3-0.7c0-0.1,0.1-0.2,0.1-0.3
			c0.1-0.2,0.1-0.3,0.2-0.5c2.1-5.5,4.1-11,5.9-16.7c0.1-0.2,0.1-0.3,0.2-0.5l0.1-0.4c0.1-0.2,0.1-0.3,0.1-0.5
			c1.9-5.7,3.6-11.3,5.2-17c0-0.2,0.1-0.3,0.2-0.5s0.1-0.3,0.1-0.5s0.1-0.3,0.1-0.5c1.6-5.8,3.1-11.5,4.5-17.3
			c0-0.2,0.1-0.3,0.1-0.5l0.1-0.4c0-0.2,0.1-0.3,0.1-0.5c1.4-5.9,2.7-11.6,3.9-17.5c0-0.2,0.1-0.3,0.1-0.5l0,0
			c0.1-0.5,0.2-0.9,0.3-1.4c0.3-1.3,0.5-2.6,0.8-4c0.2-0.9,0.3-1.7,0.5-2.6c0.3-1.4,0.5-2.8,0.8-4.2c0.1-0.7,0.3-1.5,0.4-2.2
			c0.3-1.6,0.5-3.1,0.8-4.6c0.1-0.6,0.2-1.2,0.3-1.8c0.3-1.7,0.6-3.4,0.8-5.1c0.1-0.4,0.1-0.9,0.2-1.3c0.3-2,0.6-3.9,0.9-5.9
			l0.1-0.4c1.3-8.5,2.4-16.8,3.3-24.7v-0.4c0.2-1.8,0.4-3.7,0.6-5.5l0.1-0.7c0.2-1.7,0.4-3.3,0.5-4.9l0.1-1c0.2-1.6,0.3-3.1,0.5-4.6
			l0.1-0.9c0.1-1.5,0.3-3,0.4-4.5l0.1-0.9c0.1-1.5,0.3-3,0.4-4.4c0-0.2,0-0.5,0.1-0.7c0.1-1.5,0.2-3,0.3-4.5v-0.5
			c0.1-1.5,0.2-3,0.3-4.5v-0.4c0.7-9.4,1.1-17.7,1.3-24.2c0-0.2,0-0.3,0-0.5c0-0.9,0.1-1.8,0.1-2.6c0-0.2,0-0.5,0-0.7
			c0-0.8,0-1.5,0.1-2.2c0-0.2,0-0.4,0-0.7v-1.8v-0.8c0-0.5,0-1,0-1.5v-0.7v-1.3v-0.7V856v-0.6v-0.6c0-0.2,0-0.4,0-0.6v-0.6V581.5
			c0-0.2,0-0.4,0-0.6s0-0.4,0-0.6v-0.6v-0.6v-0.9v-0.7c0-0.4,0-0.8,0-1.2v-0.7c0-0.5,0-1,0-1.5c0-0.3,0-0.5,0-0.8c0-0.6,0-1.2,0-1.8
			v-0.7c0-0.7,0-1.4-0.1-2.2c0-0.2,0-0.5,0-0.7c0-0.8-0.1-1.7-0.1-2.5c0-0.2,0-0.4,0-0.5c0-1.1-0.1-2.2-0.1-3.3l0,0
			c-0.2-5.9-0.6-13-1.2-20.8v-0.4c-0.1-1.4-0.2-2.9-0.3-4.4v-0.6c-0.1-1.5-0.2-2.9-0.3-4.4l-0.1-0.8c-0.1-1.4-0.2-2.9-0.4-4.4
			l-0.1-1c-0.1-1.5-0.3-3-0.4-4.5l-0.1-1c-0.1-1.5-0.3-3-0.4-4.6l-0.1-1c-0.2-1.6-0.3-3.2-0.5-4.9c0-0.3-0.1-0.5-0.1-0.8
			c-0.2-1.8-0.4-3.6-0.6-5.4l-0.1-0.4c-0.9-7.9-2-16.2-3.3-24.7l-0.1-0.5c-0.3-1.9-0.6-3.9-0.9-5.8c-0.1-0.5-0.2-0.9-0.2-1.4
			c-0.3-1.7-0.5-3.3-0.8-5l-0.3-1.8c-0.3-1.5-0.5-3-0.8-4.6c-0.1-0.8-0.3-1.5-0.4-2.3c-0.3-1.4-0.5-2.8-0.8-4.1
			c-0.2-0.9-0.3-1.7-0.5-2.6c-0.3-1.3-0.5-2.6-0.8-3.9c-0.1-0.5-0.2-0.9-0.3-1.4l0,0c0-0.2-0.1-0.3-0.1-0.5
			c-1.2-5.8-2.5-11.6-3.9-17.4c0-0.2-0.1-0.3-0.1-0.5l-0.1-0.4c0-0.2-0.1-0.3-0.1-0.5c-1.4-5.8-2.9-11.5-4.5-17.2
			c0-0.2-0.1-0.3-0.1-0.5s-0.1-0.3-0.1-0.5s-0.1-0.3-0.2-0.5c-1.6-5.7-3.4-11.4-5.2-17c-0.1-0.2-0.1-0.3-0.1-0.5l-0.1-0.4
			c-0.1-0.2-0.1-0.4-0.2-0.5c-1.9-5.7-3.9-11.2-5.9-16.7c-0.1-0.2-0.1-0.3-0.2-0.5c0-0.1-0.1-0.2-0.1-0.3c-0.1-0.3-0.2-0.5-0.3-0.8
			c-1.5-3.9-3.1-7.7-4.8-11.5c-0.2-0.5-0.4-1-0.7-1.5c-1.7-3.8-3.4-7.4-5.2-11.1c-0.1-0.3-0.2-0.5-0.4-0.8l0,0
			c-0.1-0.1-0.1-0.2-0.2-0.4c-2.6-5.2-5.4-10.2-8.2-15.1c-0.1-0.2-0.2-0.4-0.3-0.5l0,0c-0.1-0.2-0.3-0.5-0.4-0.7
			c-1.3-2.2-2.7-4.4-4.1-6.5c-0.3-0.4-0.6-0.9-0.9-1.3c-1.2-1.8-2.4-3.6-3.7-5.4c-0.2-0.3-0.5-0.7-0.7-1l0,0
			c-0.2-0.2-0.3-0.4-0.5-0.7c-1.5-2.1-3.1-4.1-4.7-6c-0.2-0.3-0.5-0.6-0.7-0.9c-1.4-1.7-2.9-3.4-4.3-5.1c-0.2-0.3-0.5-0.6-0.7-0.9
			l0,0c-0.2-0.2-0.4-0.4-0.6-0.6c-1.7-1.9-3.4-3.7-5.2-5.5c-0.1-0.1-0.3-0.3-0.4-0.4c-1.7-1.6-3.4-3.2-5.1-4.7
			c-0.3-0.2-0.5-0.5-0.8-0.7s-0.5-0.4-0.8-0.7c-1.3-1.1-2.6-2.2-4-3.2c-0.6-0.5-1.1-1-1.7-1.4c-2.3-1.7-4.6-3.4-6.8-5l-0.1-0.1
			c-0.8-0.6-1.5-1.1-2.3-1.7l0,0c-1.2-0.8-2.4-1.6-3.6-2.5h-0.1C1412,243.9,1366.8,226.9,1312.3,217z"/>
		<path id="Trazado_1626" class="st3" d="M914.8,32.4c-0.3-0.1-0.6-0.1-0.8-0.2c-4.5-0.8-8.9-1.6-13.5-2.3c-0.7-0.1-1.4-0.2-2.1-0.3
			c-4.3-0.7-8.6-1.3-13-1.9c-1-0.1-2-0.3-3-0.4c-4.2-0.6-8.3-1.1-12.6-1.6c-1.3-0.2-2.5-0.3-3.8-0.5c-4.1-0.5-8.2-1-12.4-1.4
			c-1.5-0.2-3-0.3-4.5-0.5c-4.1-0.4-8-0.8-12.2-1.2c-1.7-0.2-3.4-0.3-5.1-0.5c-4-0.3-7.9-0.7-12-1c-1.9-0.1-3.9-0.3-5.8-0.4
			c-3.9-0.3-7.8-0.6-11.8-0.8c-2.2-0.1-4.3-0.3-6.4-0.4c-3.9-0.2-7.7-0.5-11.7-0.7c-2.4-0.1-4.8-0.2-7.1-0.4
			c-3.8-0.2-7.6-0.4-11.5-0.5c-2.6-0.1-5.3-0.2-7.8-0.3c-3.8-0.2-7.5-0.3-11.4-0.4c-2.9-0.1-5.8-0.2-8.7-0.3
			c-3.7-0.1-7.3-0.2-11-0.3c-3.2-0.1-6.4-0.2-9.6-0.2c-3.6-0.1-7.1-0.2-10.7-0.2c-3.6-0.1-7.1-0.1-10.7-0.2
			c-3.4-0.1-6.7-0.1-10.2-0.2c-4.2-0.1-8.3-0.1-12.5-0.2c-3,0-5.9-0.1-8.9-0.1c-5,0-10-0.1-15-0.1c-2.4,0-4.8,0-7.2-0.1
			c-5.9,0-11.8-0.1-17.7-0.1c-1.8,0-3.5,0-5.3,0c-7.8,0-15.8,0-23.7,0c-8,0-16,0-23.7,0c-1.8,0-3.5,0-5.3,0c-5.9,0-11.9,0-17.7,0.1
			c-2.5,0-4.9,0-7.2,0.1c-5.1,0-10.1,0.1-15,0.1c-3,0-5.9,0.1-8.9,0.1c-4.2,0.1-8.4,0.1-12.5,0.2c-3.5,0.1-6.8,0.1-10.2,0.2
			c-3.6,0.1-7.1,0.1-10.7,0.2c-3.7,0.1-7.2,0.2-10.8,0.3c-3.2,0.1-6.3,0.2-9.5,0.2c-3.8,0.1-7.5,0.2-11.2,0.3
			c-2.9,0.1-5.8,0.2-8.5,0.3c-3.9,0.1-7.6,0.3-11.5,0.4c-2.6,0.1-5.2,0.2-7.7,0.3c-4,0.2-7.9,0.4-11.8,0.6c-2.3,0.1-4.6,0.2-6.7,0.3
			c-4.1,0.2-8,0.5-12,0.7c-2.1,0.1-4.1,0.3-6.1,0.4c-4.1,0.3-8,0.5-12.1,0.8c-1.9,0.1-3.8,0.3-5.6,0.4c-4.1,0.3-8.1,0.7-12.1,1
			c-1.7,0.1-3.3,0.3-5,0.4c-4.2,0.4-8.2,0.8-12.4,1.2c-1.4,0.1-2.8,0.3-4.3,0.4c-4.3,0.5-8.4,0.9-12.6,1.4c-1.2,0.1-2.4,0.3-3.6,0.4
			c-4.3,0.5-8.5,1.1-12.8,1.7c-1,0.1-1.9,0.3-2.9,0.4c-4.4,0.6-8.8,1.3-13.1,1.9c-0.7,0.1-1.3,0.2-2,0.3c-4.6,0.7-9.1,1.5-13.6,2.3
			c-0.3,0-0.5,0.1-0.8,0.1C200.4,45.6,138.5,69,79.6,109.4l0,0c-1.6,1.1-3.3,2.2-4.9,3.4l0,0c-1.1,0.8-2.2,1.6-3.4,2.4l0,0
			c-3.2,2.3-6.2,4.5-9.4,6.8c-0.8,0.6-1.6,1.3-2.3,1.9c-1.9,1.5-3.7,3-5.5,4.5c-0.4,0.3-0.7,0.6-1.1,0.9c-0.4,0.3-0.7,0.6-1,0.9
			c-2.4,2.1-4.8,4.3-7,6.4c-0.2,0.2-0.4,0.4-0.6,0.5c-2.5,2.4-4.8,4.9-7.1,7.4c-0.3,0.3-0.6,0.6-0.8,0.9l0,0c-0.3,0.4-0.7,0.8-1,1.2
			c-2,2.3-4,4.6-5.9,6.9c-0.3,0.4-0.6,0.7-0.9,1.1c-2.2,2.7-4.3,5.5-6.3,8.3c-0.2,0.3-0.5,0.6-0.7,0.9l0,0c-0.3,0.4-0.6,0.9-1,1.4
			c-1.7,2.4-3.5,4.9-5.1,7.3c-0.4,0.6-0.8,1.1-1.2,1.7c-1.9,3-3.8,5.9-5.7,9c-0.2,0.3-0.4,0.6-0.6,0.9l0,0c-0.1,0.2-0.3,0.5-0.4,0.7
			c-4,6.6-7.7,13.6-11.3,20.7c-0.1,0.2-0.2,0.3-0.3,0.5l0,0c-0.2,0.4-0.3,0.7-0.5,1.1c-2.5,5-4.9,10-7.1,15.2
			c-0.3,0.7-0.6,1.4-0.9,2.1c-2.3,5.2-4.5,10.4-6.5,15.8c-0.1,0.3-0.3,0.7-0.4,1l-0.1,0.4c-0.1,0.2-0.1,0.4-0.2,0.6
			c-2.9,7.5-5.7,15.2-8.1,22.9c-0.1,0.2-0.2,0.5-0.3,0.7c-0.1,0.2-0.1,0.4-0.2,0.6s-0.1,0.4-0.2,0.7c-2.5,7.7-4.9,15.5-7,23.3
			c-0.1,0.2-0.1,0.5-0.2,0.7l-0.2,0.7c-0.1,0.2-0.1,0.5-0.2,0.7c-2.2,7.8-4.3,15.7-6.1,23.6c-0.1,0.2-0.1,0.4-0.2,0.7
			c0,0.2-0.1,0.3-0.1,0.5c-0.1,0.2-0.1,0.5-0.2,0.7c-1.9,7.9-3.7,16-5.3,23.9c0,0.2-0.1,0.4-0.1,0.6l0,0c-0.1,0.6-0.2,1.3-0.4,1.9
			c-0.4,1.8-0.7,3.6-1.1,5.4c-0.2,1.2-0.5,2.3-0.7,3.5c-0.4,1.9-0.7,3.8-1.1,5.7c-0.2,1-0.4,2-0.6,3c-0.4,2.1-0.8,4.2-1.1,6.2
			c-0.1,0.8-0.3,1.6-0.4,2.4c-0.4,2.3-0.8,4.6-1.2,6.8c-0.1,0.6-0.2,1.2-0.3,1.8c-0.4,2.7-0.9,5.4-1.3,8c0,0.2-0.1,0.4-0.1,0.5
			c-1.8,11.7-3.3,23-4.6,33.9c0,0.2,0,0.4-0.1,0.5c-0.3,2.5-0.6,5-0.8,7.4l-0.1,1c-0.2,2.3-0.5,4.5-0.7,6.7l-0.1,1.3
			c-0.2,2.1-0.4,4.3-0.6,6.2c0,0.4-0.1,0.9-0.1,1.3c-0.2,2.1-0.4,4.1-0.6,6.1l-0.1,1.3c-0.2,2-0.3,4.1-0.5,6c0,0.3-0.1,0.7-0.1,1
			c-0.2,2.1-0.3,4.1-0.5,6c0,0.2,0,0.5-0.1,0.7c-0.2,2.1-0.3,4.1-0.4,6c0,0.2,0,0.3,0,0.5c-0.9,13-1.4,24.2-1.8,33.2v0.7
			c0,1.2-0.1,2.4-0.1,3.5v1c0,1-0.1,2.1-0.1,3c0,0.3,0,0.6,0,0.9c0,0.9,0,1.7-0.1,2.5v1.1c0,0.7,0,1.4,0,2.1c0,0.3,0,0.6,0,0.9v1.7
			v0.9v1.3v0.9v0.9v0.8c0,0.3,0,0.6,0,0.9v0.2c0,0.7,0,1,0,1v370.4c0,0,0,0.4,0,1v0.3c0,0.3,0,0.5,0,0.9v0.8v0.9v0.9v1.3v0.9
			c0,0.5,0,1.1,0,1.7c0,0.3,0,0.6,0,0.9c0,0.7,0,1.3,0,2.1v1.1c0,0.8,0,1.6,0.1,2.5c0,0.3,0,0.6,0,0.9c0,1,0.1,2,0.1,3v1
			c0,1.1,0.1,2.3,0.1,3.5c0,0.3,0,0.5,0,0.7c0.1,1.5,0.1,3,0.2,4.6v0.1c0.3,8.1,0.8,17.7,1.6,28.6c0,0.2,0,0.4,0,0.6
			c0.1,2,0.3,4,0.4,6c0,0.2,0,0.5,0.1,0.8c0.1,2,0.3,4,0.5,6c0,0.3,0.1,0.7,0.1,1c0.2,2,0.3,4,0.5,5.9l0.1,1.3c0.2,2,0.4,4,0.6,6
			l0.1,1.3c0.2,2.1,0.4,4.2,0.6,6.2l0.1,1.4c0.2,2.2,0.5,4.4,0.7,6.6l0.1,1.1c0.3,2.4,0.5,4.9,0.8,7.3l0.1,0.6
			c1.3,10.8,2.8,22.2,4.6,33.8c0,0.2,0.1,0.4,0.1,0.7c0.4,2.6,0.8,5.3,1.2,7.9c0.1,0.6,0.2,1.3,0.3,1.9c0.4,2.3,0.7,4.6,1.1,6.8
			c0.1,0.8,0.3,1.7,0.4,2.5c0.4,2.1,0.7,4.2,1.1,6.2c0.2,1,0.4,2.1,0.6,3.1c0.3,1.9,0.7,3.8,1.1,5.7c0.2,1.2,0.5,2.4,0.7,3.6
			c0.3,1.8,0.7,3.6,1.1,5.4c0.1,0.6,0.2,1.3,0.4,1.9l0,0c0,0.2,0.1,0.4,0.1,0.6c1.6,7.9,3.4,15.9,5.3,23.8c0.1,0.2,0.1,0.5,0.2,0.7
			c0,0.2,0.1,0.3,0.1,0.5c0.1,0.2,0.1,0.5,0.2,0.7c1.9,7.8,4,15.8,6.1,23.6c0.1,0.2,0.1,0.5,0.2,0.7l0.2,0.7
			c0.1,0.2,0.1,0.5,0.2,0.7c2.2,7.8,4.6,15.6,7,23.3c0.1,0.2,0.1,0.4,0.2,0.7c0.1,0.2,0.1,0.4,0.2,0.6s0.2,0.5,0.3,0.7
			c2.6,7.7,5.3,15.3,8.1,22.8c0.1,0.2,0.1,0.4,0.2,0.6c0,0.1,0.1,0.2,0.1,0.4c0.1,0.3,0.3,0.7,0.4,1c2.1,5.4,4.3,10.5,6.4,15.8
			c0.3,0.7,0.6,1.4,0.9,2.1c2.3,5.2,4.7,10.2,7.1,15.2c0.2,0.4,0.3,0.8,0.5,1.1l0,0c0.1,0.2,0.2,0.3,0.3,0.5
			c3.6,7.1,7.3,14,11.3,20.7c0.1,0.2,0.3,0.5,0.4,0.7l0,0c0.2,0.3,0.4,0.6,0.6,0.9c1.8,3.1,3.7,6,5.7,8.9c0.4,0.6,0.8,1.2,1.2,1.8
			c1.7,2.5,3.4,4.9,5.1,7.2c0.3,0.5,0.6,0.9,1,1.4l0,0c0.2,0.3,0.5,0.6,0.7,0.9c2.1,2.8,4.2,5.6,6.3,8.2c0.3,0.4,0.7,0.8,1,1.2
			c1.9,2.4,3.9,4.7,5.9,6.9c0.3,0.4,0.7,0.8,1,1.2l0,0c0.3,0.3,0.6,0.6,0.8,0.9c2.3,2.6,4.7,5.1,7.1,7.4c0.2,0.2,0.4,0.4,0.6,0.6
			c2.3,2.2,4.6,4.4,6.9,6.4c0.3,0.3,0.7,0.6,1,0.9c0.3,0.3,0.7,0.6,1.1,0.9c1.8,1.5,3.6,3,5.5,4.4c0.8,0.6,1.6,1.3,2.4,1.9
			c3.1,2.4,6.2,4.6,9.4,6.8c0.1,0,0.1,0.1,0.2,0.1c1.1,0.8,2.1,1.6,3.2,2.3l0,0c1.6,1.2,3.3,2.3,4.9,3.4c0,0,0,0,0.1,0
			c58.7,40.2,120.6,63.5,195.2,76.8c0.3,0.1,0.6,0.1,0.9,0.2c4.5,0.8,8.9,1.6,13.5,2.3c0.7,0.1,1.4,0.2,2.1,0.3
			c4.3,0.7,8.6,1.3,13,1.9c1,0.1,2,0.3,3,0.4c4.2,0.6,8.3,1.1,12.6,1.6c1.3,0.2,2.5,0.3,3.8,0.5c4.1,0.5,8.2,1,12.4,1.4
			c1.5,0.2,3,0.3,4.5,0.5c4.1,0.4,8,0.8,12.2,1.2c1.7,0.2,3.4,0.3,5.1,0.5c4,0.3,7.9,0.7,12,1c1.9,0.1,3.9,0.3,5.8,0.4
			c3.9,0.3,7.8,0.6,11.8,0.8c2.2,0.1,4.3,0.3,6.4,0.4c3.9,0.2,7.7,0.5,11.7,0.7c2.4,0.1,4.8,0.2,7.1,0.4c3.8,0.2,7.6,0.4,11.5,0.5
			c2.6,0.1,5.3,0.2,7.8,0.3c3.8,0.2,7.5,0.3,11.4,0.4c2.9,0.1,5.8,0.2,8.7,0.3c3.7,0.1,7.3,0.2,11,0.3c3.2,0.1,6.4,0.2,9.6,0.2
			c3.6,0.1,7.1,0.2,10.7,0.2c3.6,0.1,7.1,0.1,10.7,0.2c3.4,0.1,6.7,0.1,10.2,0.2c4.2,0.1,8.3,0.1,12.5,0.2c3,0,5.9,0.1,8.9,0.1
			c5,0,10,0.1,15,0.1c2.4,0,4.8,0,7.2,0.1c5.9,0,11.8,0.1,17.7,0.1c1.8,0,3.5,0,5.3,0c7.8,0,15.8,0,23.7,0c8,0,16,0,23.7,0
			c1.8,0,3.5,0,5.3,0c5.9,0,11.9,0,17.7-0.1c2.5,0,4.9,0,7.2-0.1c5.1,0,10.1-0.1,15-0.1c3,0,5.9-0.1,8.9-0.1c4.2,0,8.4-0.1,12.5-0.2
			c3.5,0,6.8-0.1,10.2-0.2c3.6-0.1,7.1-0.1,10.7-0.2c3.7-0.1,7.2-0.2,10.8-0.3c3.2-0.1,6.3-0.1,9.5-0.2c3.8-0.1,7.5-0.2,11.2-0.3
			c2.9-0.1,5.8-0.2,8.5-0.3c3.9-0.1,7.6-0.3,11.5-0.4c2.6-0.1,5.2-0.2,7.7-0.3c4-0.2,7.9-0.4,11.8-0.6c2.3-0.1,4.6-0.2,6.7-0.4
			c4.1-0.2,8-0.5,12-0.7c2.1-0.1,4.1-0.3,6.1-0.4c4.1-0.3,8-0.5,12.1-0.8c1.9-0.1,3.8-0.3,5.6-0.4c4.1-0.3,8.1-0.7,12.1-1
			c1.7-0.1,3.3-0.3,5-0.4c4.2-0.4,8.2-0.8,12.4-1.2c1.4-0.1,2.8-0.3,4.3-0.4c4.3-0.5,8.4-0.9,12.6-1.4c1.2-0.1,2.4-0.3,3.6-0.4
			c4.3-0.5,8.5-1.1,12.8-1.7c1-0.1,1.9-0.3,2.9-0.4c4.4-0.6,8.7-1.3,13.1-1.9c0.7-0.1,1.3-0.2,2-0.3c4.6-0.7,9.1-1.5,13.6-2.3
			c0.3,0,0.5-0.1,0.8-0.1c74.8-13.4,136.7-36.8,195.6-77.2l0,0c1.6-1.1,3.3-2.2,4.9-3.4l0,0c1.1-0.8,2.2-1.6,3.4-2.4l0,0
			c3.2-2.3,6.2-4.5,9.4-6.8c0.8-0.6,1.6-1.3,2.3-1.9c1.9-1.5,3.7-3,5.5-4.5c0.4-0.3,0.7-0.6,1.1-0.9c0.4-0.3,0.7-0.6,1-0.9
			c2.4-2.1,4.8-4.3,7-6.4c0.2-0.2,0.4-0.4,0.6-0.5c2.5-2.4,4.8-4.9,7.1-7.4c0.3-0.3,0.6-0.6,0.8-0.9l0,0c0.3-0.4,0.7-0.8,1-1.2
			c2-2.3,4-4.6,5.9-6.9c0.3-0.4,0.6-0.7,0.9-1.1c2.2-2.7,4.3-5.5,6.3-8.3c0.2-0.3,0.5-0.6,0.7-0.9l0,0c0.3-0.4,0.6-0.9,1-1.4
			c1.7-2.4,3.5-4.9,5.1-7.3c0.4-0.6,0.8-1.1,1.2-1.7c1.9-3,3.8-5.9,5.7-9c0.2-0.3,0.4-0.6,0.6-0.9l0,0c0.1-0.2,0.3-0.5,0.4-0.7
			c4-6.6,7.7-13.6,11.3-20.7c0.1-0.2,0.2-0.3,0.3-0.5l0,0c0.2-0.4,0.3-0.7,0.5-1.1c2.5-5,4.9-10,7.1-15.2c0.3-0.7,0.6-1.4,0.9-2.1
			c2.3-5.2,4.5-10.4,6.5-15.8c0.1-0.3,0.3-0.7,0.4-1l0.1-0.4c0.1-0.2,0.1-0.4,0.2-0.6c2.9-7.5,5.7-15.2,8.1-22.9
			c0.1-0.2,0.2-0.5,0.3-0.7l0.2-0.6c0.1-0.2,0.1-0.4,0.2-0.7c2.5-7.7,4.9-15.5,7-23.3c0.1-0.2,0.1-0.5,0.2-0.7s0.1-0.4,0.2-0.7
			c0.1-0.3,0.1-0.5,0.2-0.7c2.2-7.8,4.3-15.7,6.1-23.6c0.1-0.2,0.1-0.5,0.2-0.7l0.1-0.5c0.1-0.2,0.1-0.5,0.2-0.7
			c1.9-7.9,3.7-16,5.3-23.9c0-0.2,0.1-0.4,0.1-0.6l0,0c0.1-0.6,0.2-1.3,0.4-1.9c0.4-1.8,0.7-3.6,1.1-5.4c0.2-1.2,0.5-2.3,0.7-3.5
			c0.4-1.9,0.7-3.8,1.1-5.7c0.2-1,0.4-2,0.6-3c0.4-2.1,0.8-4.2,1.1-6.2c0.1-0.8,0.3-1.6,0.4-2.4c0.4-2.3,0.8-4.6,1.2-6.8
			c0.1-0.6,0.2-1.2,0.3-1.8c0.4-2.7,0.9-5.4,1.3-8l0.1-0.5c1.8-11.7,3.3-23,4.6-33.9l0.1-0.5c0.3-2.5,0.6-5,0.8-7.4
			c0-0.3,0.1-0.7,0.1-1c0.2-2.3,0.5-4.5,0.7-6.7c0-0.4,0.1-0.9,0.1-1.3c0.2-2.1,0.4-4.3,0.6-6.2l0.1-1.3c0.2-2.1,0.4-4.1,0.6-6.1
			l0.1-1.3c0.2-2,0.3-4.1,0.5-6l0.1-1c0.2-2.1,0.3-4.1,0.5-6c0-0.2,0-0.5,0.1-0.7c0.2-2.1,0.3-4.1,0.4-6v-0.5
			c0.9-13,1.4-24.2,1.8-33.2c0-0.2,0-0.5,0-0.7c0-1.2,0.1-2.4,0.1-3.5c0-0.3,0-0.6,0-1c0-1,0.1-2.1,0.1-3v-0.9c0-0.9,0-1.7,0.1-2.5
			c0-0.4,0-0.7,0-1.1v-2.1v-0.9c0-0.6,0-1.2,0-1.7c0-0.3,0-0.6,0-0.9c0-0.5,0-0.9,0-1.3c0-0.3,0-0.6,0-0.9s0-0.6,0-0.9v-0.8v-0.9
			V530.4v-0.2c0-0.3,0-0.5,0-0.9v-0.8c0-0.3,0-0.5,0-0.9c0-0.3,0-0.6,0-0.9c0-0.4,0-0.8,0-1.3c0-0.3,0-0.6,0-0.9c0-0.5,0-1.1,0-1.7
			v-0.9v-2.1v-1.1c0-0.8,0-1.6-0.1-2.5v-0.9c0-1-0.1-2-0.1-3c0-0.3,0-0.7,0-1c0-1.1-0.1-2.3-0.1-3.5c0-0.3,0-0.5,0-0.7
			c-0.1-1.5-0.1-3-0.2-4.6v-0.1c-0.3-8.1-0.8-17.7-1.6-28.6c0-0.2,0-0.4,0-0.6c-0.1-2-0.3-4-0.4-6c0-0.2,0-0.5-0.1-0.8
			c-0.2-2-0.3-4-0.5-6l-0.1-1c-0.2-2-0.3-4-0.5-5.9c0-0.4-0.1-0.9-0.1-1.3c-0.2-2-0.4-4-0.6-6c0-0.4-0.1-0.9-0.1-1.3
			c-0.2-2.1-0.4-4.2-0.6-6.2c0-0.5-0.1-0.9-0.1-1.4c-0.2-2.2-0.5-4.4-0.7-6.6c0-0.4-0.1-0.7-0.1-1.1c-0.3-2.4-0.5-4.9-0.8-7.3
			l-0.1-0.6c-1.3-10.8-2.8-22.2-4.6-33.8l-0.1-0.7c-0.4-2.6-0.8-5.3-1.2-7.9c-0.1-0.6-0.2-1.3-0.3-1.9c-0.4-2.3-0.7-4.6-1.1-6.8
			c-0.1-0.8-0.3-1.7-0.4-2.5c-0.4-2.1-0.7-4.2-1.1-6.2c-0.2-1-0.4-2.1-0.6-3.1c-0.3-1.9-0.7-3.8-1.1-5.7c-0.2-1.2-0.5-2.4-0.7-3.6
			c-0.3-1.8-0.7-3.6-1.1-5.4c-0.1-0.6-0.2-1.3-0.4-1.9l0,0c0-0.2-0.1-0.4-0.1-0.7c-1.6-7.9-3.4-15.9-5.3-23.8
			c-0.1-0.2-0.1-0.5-0.2-0.7l-0.1-0.5c-0.1-0.2-0.1-0.5-0.2-0.7c-1.9-7.8-4-15.7-6.1-23.6c-0.1-0.2-0.1-0.5-0.2-0.7
			s-0.1-0.4-0.2-0.7c-0.1-0.2-0.2-0.5-0.2-0.7c-2.2-7.8-4.6-15.6-7-23.3c-0.1-0.2-0.1-0.4-0.2-0.7l-0.2-0.6
			c-0.1-0.2-0.2-0.5-0.3-0.7c-2.6-7.7-5.3-15.3-8.1-22.8c-0.1-0.2-0.1-0.4-0.2-0.6c0-0.1-0.1-0.2-0.1-0.4c-0.1-0.3-0.3-0.7-0.4-1
			c-2.1-5.4-4.3-10.5-6.4-15.8c-0.3-0.7-0.6-1.4-0.9-2.1c-2.3-5.2-4.7-10.2-7.1-15.2c-0.2-0.4-0.3-0.8-0.5-1.1l0,0
			c-0.1-0.2-0.2-0.3-0.3-0.5c-3.6-7.1-7.3-14-11.3-20.7c-0.1-0.2-0.3-0.5-0.4-0.7l0,0c-0.2-0.3-0.4-0.6-0.6-0.9
			c-1.8-3.1-3.7-6-5.7-8.9c-0.4-0.6-0.8-1.2-1.2-1.8c-1.7-2.5-3.4-4.9-5.1-7.2c-0.3-0.5-0.6-0.9-1-1.4l0,0c-0.2-0.3-0.5-0.6-0.7-0.9
			c-2.1-2.8-4.2-5.6-6.3-8.2c-0.3-0.4-0.7-0.8-1-1.2c-1.9-2.4-3.9-4.7-5.9-6.9c-0.3-0.4-0.7-0.8-1-1.2l0,0c-0.3-0.3-0.6-0.6-0.8-0.9
			c-2.3-2.6-4.7-5.1-7.1-7.4c-0.2-0.2-0.4-0.4-0.6-0.6c-2.3-2.2-4.6-4.4-6.9-6.4c-0.3-0.3-0.7-0.6-1-0.9s-0.7-0.6-1.1-0.9
			c-1.8-1.5-3.6-3-5.5-4.4c-0.8-0.6-1.6-1.3-2.4-1.9c-3.1-2.4-6.2-4.6-9.4-6.8l-0.2-0.1c-1.1-0.8-2.1-1.6-3.2-2.3l0,0
			c-1.6-1.1-3.3-2.3-4.9-3.4h-0.1C1051.4,69.2,989.4,45.8,914.8,32.4z"/>
	</g>
</g>
</svg>
