<?xml version="1.0" encoding="utf-8"?>
<!-- Generator: Adobe Illustrator 26.3.1, SVG Export Plug-In . SVG Version: 6.00 Build 0)  -->
<!DOCTYPE svg PUBLIC "-//W3C//DTD SVG 1.1//EN" "http://www.w3.org/Graphics/SVG/1.1/DTD/svg11.dtd" [
	<!ENTITY ns_extend "http://ns.adobe.com/Extensibility/1.0/">
	<!ENTITY ns_ai "http://ns.adobe.com/AdobeIllustrator/10.0/">
	<!ENTITY ns_graphs "http://ns.adobe.com/Graphs/1.0/">
	<!ENTITY ns_vars "http://ns.adobe.com/Variables/1.0/">
	<!ENTITY ns_imrep "http://ns.adobe.com/ImageReplacement/1.0/">
	<!ENTITY ns_sfw "http://ns.adobe.com/SaveForWeb/1.0/">
	<!ENTITY ns_custom "http://ns.adobe.com/GenericCustomNamespace/1.0/">
	<!ENTITY ns_adobe_xpath "http://ns.adobe.com/XPath/1.0/">
]>
<svg version="1.1" id="Capa_1" xmlns:x="&ns_extend;" xmlns:i="&ns_ai;" xmlns:graph="&ns_graphs;"
	 xmlns="http://www.w3.org/2000/svg" xmlns:xlink="http://www.w3.org/1999/xlink" x="0px" y="0px" width="16px" height="16px"
	 viewBox="0 0 16 16" style="enable-background:new 0 0 16 16;" xml:space="preserve">
<style type="text/css">
	.st0{fill:#224E70;}
	.st1{fill:none;stroke:#224E70;stroke-width:2;stroke-miterlimit:10;}
</style>
<metadata>
	<sfw  xmlns="&ns_sfw;">
		<slices></slices>
		<sliceSourceBounds  bottomLeftOrigin="true" height="62" width="16383" x="-8175" y="-70"></sliceSourceBounds>
	</sfw>
</metadata>
<polygon class="st0" points="-23.7,7.4 -28.2,11.8 -28.2,1.4 -29.8,1.4 -29.8,11.8 -34.3,7.4 -34.3,7.4 -35.4,8.6 -29,15 -22.6,8.6 
	"/>
<line class="st1" x1="-29" y1="-33" x2="-29" y2="-47"/>
<path class="st1" d="M-21.9-39.1L-29-32c0,0-7.2-7.2-7.1-7.1L-29-32"/>
<line class="st1" x1="12.9" y1="-46.1" x2="27.1" y2="-31.9"/>
<line class="st1" x1="12.9" y1="-31.9" x2="27.1" y2="-46.1"/>
<polygon class="st0" points="15,2.3 13.7,1 8,6.7 2.3,1 1,2.3 6.7,8 1,13.7 2.3,15 8,9.3 13.7,15 15,13.7 9.3,8 "/>
</svg>
