<?xml version="1.0" encoding="utf-8"?>
<!-- Generator: Adobe Illustrator 26.3.1, SVG Export Plug-In . SVG Version: 6.00 Build 0)  -->
<!DOCTYPE svg PUBLIC "-//W3C//DTD SVG 1.1//EN" "http://www.w3.org/Graphics/SVG/1.1/DTD/svg11.dtd" [
	<!ENTITY ns_extend "http://ns.adobe.com/Extensibility/1.0/">
	<!ENTITY ns_ai "http://ns.adobe.com/AdobeIllustrator/10.0/">
	<!ENTITY ns_graphs "http://ns.adobe.com/Graphs/1.0/">
	<!ENTITY ns_vars "http://ns.adobe.com/Variables/1.0/">
	<!ENTITY ns_imrep "http://ns.adobe.com/ImageReplacement/1.0/">
	<!ENTITY ns_sfw "http://ns.adobe.com/SaveForWeb/1.0/">
	<!ENTITY ns_custom "http://ns.adobe.com/GenericCustomNamespace/1.0/">
	<!ENTITY ns_adobe_xpath "http://ns.adobe.com/XPath/1.0/">
]>
<svg version="1.1" id="Capa_1" xmlns:x="&ns_extend;" xmlns:i="&ns_ai;" xmlns:graph="&ns_graphs;"
	 xmlns="http://www.w3.org/2000/svg" xmlns:xlink="http://www.w3.org/1999/xlink" x="0px" y="0px" width="16px" height="16px"
	 viewBox="0 0 16 16" style="enable-background:new 0 0 16 16;" xml:space="preserve">
<style type="text/css">
	.st0{fill:#224E70;}
	.st1{fill:none;stroke:#224E70;stroke-width:2;stroke-miterlimit:10;}
</style>
<metadata>
	<sfw  xmlns="&ns_sfw;">
		<slices></slices>
		<sliceSourceBounds  bottomLeftOrigin="true" height="62" width="16383" x="-8175" y="-70"></sliceSourceBounds>
	</sfw>
</metadata>
<polygon class="st0" points="13.3,7.4 8.8,11.8 8.8,1.4 7.2,1.4 7.2,11.8 2.7,7.4 2.7,7.4 1.6,8.6 8,15 14.4,8.6 "/>
<line class="st1" x1="8" y1="-33" x2="8" y2="-47"/>
<path class="st1" d="M15.1-39.1L8-32c0,0-7.2-7.2-7.1-7.1L8-32"/>
<line class="st1" x1="49.9" y1="-46.1" x2="64.1" y2="-31.9"/>
<line class="st1" x1="49.9" y1="-31.9" x2="64.1" y2="-46.1"/>
<polygon class="st0" points="52,2.3 50.7,1 45,6.7 39.3,1 38,2.3 43.7,8 38,13.7 39.3,15 45,9.3 50.7,15 52,13.7 46.3,8 "/>
</svg>
