<?xml version="1.0" encoding="utf-8"?>
<!-- Generator: Adobe Illustrator 25.2.1, SVG Export Plug-In . SVG Version: 6.00 Build 0)  -->
<svg version="1.1" id="Capa_1" xmlns="http://www.w3.org/2000/svg" xmlns:xlink="http://www.w3.org/1999/xlink" x="0px" y="0px"
	 width="32px" height="32px" viewBox="0 0 32 32" style="enable-background:new 0 0 32 32;" xml:space="preserve">
<style type="text/css">
	.st0{fill:#004D71;}
</style>
<g id="Grupo_4114" transform="translate(-23.413 -303.04)">
	<path id="Trazado_1455" class="st0" d="M50.4,319.8v-1.5l1.9-1.7c0.7-0.6,0.9-1.7,0.4-2.6l-2.4-4c-0.5-0.8-1.5-1.2-2.4-0.9
		l-2.4,0.8c-0.4-0.3-0.9-0.5-1.3-0.8l-0.5-2.5c-0.2-1-1-1.6-2-1.6H37c-1,0-1.8,0.7-2,1.6l-0.5,2.5c-0.5,0.2-0.9,0.5-1.3,0.8
		l-2.4-0.9c-0.2-0.1-0.4-0.1-0.6-0.1c-0.7,0-1.4,0.4-1.7,1l-2.4,4c-0.5,0.8-0.3,1.9,0.4,2.5l1.9,1.7v1.5l-1.9,1.7
		c-0.7,0.6-0.9,1.7-0.4,2.5l2.4,4c0.5,0.8,1.5,1.2,2.4,0.9l2.4-0.8c0.4,0.3,0.9,0.5,1.3,0.8l0.5,2.5c0.2,1,1,1.6,2,1.6h4.7
		c1,0,1.8-0.7,2-1.6l0.5-2.5c0.5-0.2,0.9-0.5,1.3-0.8l2.4,0.8c0.9,0.3,1.9-0.1,2.4-0.9l2.3-4c0.5-0.8,0.3-1.9-0.4-2.5L50.4,319.8z
		 M48.6,327l-3.4-1.2c-0.8,0.7-1.7,1.2-2.7,1.6l-0.7,3.6H37l-0.7-3.5c-1-0.4-1.9-0.9-2.7-1.6l-3.4,1.1l-2.4-4l2.7-2.4
		c-0.2-1-0.2-2.1,0-3.1l-2.7-2.5l2.4-4l3.4,1.2c0.8-0.7,1.7-1.2,2.7-1.6L37,307h4.7l0.7,3.6c1,0.4,1.9,0.9,2.7,1.6l3.4-1.1l2.4,4
		l-2.7,2.4c0.2,1,0.2,2.1,0,3.1L51,323L48.6,327z"/>
	<path id="Trazado_1456" class="st0" d="M39.4,325c-3.3,0-6-2.7-6-6c0-3.3,2.7-6,6-6s6,2.7,6,6c0,3.3-2.6,6-5.9,6
		C39.5,325,39.4,325,39.4,325z M39.4,315c-2.2-0.1-3.9,1.7-4,3.8c0,0.1,0,0.1,0,0.2c-0.1,2.2,1.7,3.9,3.8,4c0.1,0,0.1,0,0.2,0
		c2.2,0.1,3.9-1.7,4-3.8c0-0.1,0-0.1,0-0.2c0.1-2.2-1.7-3.9-3.8-4C39.5,315,39.5,315,39.4,315z"/>
</g>
</svg>
