<?xml version="1.0" encoding="utf-8"?>
<!-- Generator: Adobe Illustrator 25.2.1, SVG Export Plug-In . SVG Version: 6.00 Build 0)  -->
<svg version="1.1" id="Capa_1" xmlns="http://www.w3.org/2000/svg" xmlns:xlink="http://www.w3.org/1999/xlink" x="0px" y="0px"
	 width="32px" height="32px" viewBox="0 0 32 32" style="enable-background:new 0 0 32 32;" xml:space="preserve">
<style type="text/css">
	.st0{fill:#004D71;}
</style>
<g id="Grupo_4326" transform="translate(-25 -631)">
	<path id="Trazado_1451" class="st0" d="M42,653v-8h-4v2h2v6h-3v2h8v-2H42z"/>
	<path id="Trazado_1452" class="st0" d="M41,639c-0.8,0-1.5,0.7-1.5,1.5s0.7,1.5,1.5,1.5s1.5-0.7,1.5-1.5S41.8,639,41,639z"/>
	<path id="Trazado_1453" class="st0" d="M41,661c-7.7,0-14-6.3-14-14s6.3-14,14-14s14,6.3,14,14S48.7,661,41,661z M41,635
		c-6.6,0-12,5.4-12,12s5.4,12,12,12s12-5.4,12-12S47.6,635,41,635z"/>
</g>
</svg>
