<?xml version="1.0" encoding="utf-8"?>
<!-- Generator: Adobe Illustrator 25.2.1, SVG Export Plug-In . SVG Version: 6.00 Build 0)  -->
<svg version="1.1" id="Capa_1" xmlns="http://www.w3.org/2000/svg" xmlns:xlink="http://www.w3.org/1999/xlink" x="0px" y="0px"
	 width="32px" height="32px" viewBox="0 0 32 32" style="enable-background:new 0 0 32 32;" xml:space="preserve">
<style type="text/css">
	.st0{fill:#004D71;}
</style>
<path id="Trazado_1640" class="st0" d="M16.6,3.2c-0.4-0.3-0.9-0.3-1.2,0L1,14.4L2.2,16L4,14.6V27c0,1.1,0.9,2,2,2h20
	c1.1,0,2-0.9,2-2V14.6l1.8,1.4l1.2-1.6L16.6,3.2z M18,27h-4v-8h4V27z M20,27v-8c0-1.1-0.9-2-2-2h-4c-1.1,0-2,0.9-2,2v8H6V13.1
	l10-7.8l10,7.8V27H20z"/>
</svg>
