<?xml version="1.0" encoding="utf-8"?>
<!-- Generator: Adobe Illustrator 25.2.1, SVG Export Plug-In . SVG Version: 6.00 Build 0)  -->
<svg version="1.1" id="Capa_1" xmlns="http://www.w3.org/2000/svg" xmlns:xlink="http://www.w3.org/1999/xlink" x="0px" y="0px"
	 width="32px" height="32px" viewBox="0 0 32 32" style="enable-background:new 0 0 32 32;" xml:space="preserve">
<style type="text/css">
	.st0{fill:#004D71;}
	.st1{fill:none;}
</style>
<g id="Grupo_4109" transform="translate(-23 -247)">
	<path id="Trazado_1458" class="st0" d="M53,277h-2v-5c0-2.8-2.2-5-5-5v-2c3.9,0,7,3.1,7,7V277z"/>
	<path id="Trazado_1459" class="st0" d="M45,277h-2v-5c0-2.8-2.2-5-5-5h-6c-2.8,0-5,2.2-5,5v5h-2v-5c0-3.9,3.1-7,7-7h6
		c3.9,0,7,3.1,7,7V277z"/>
	<g id="Grupo_4108">
		<rect id="_Transparent_Rectangle_" x="23" y="247" class="st1" width="32" height="32"/>
		<g id="Grupo_4107">
			<path id="Trazado_1460" class="st0" d="M43,249v2c2.8,0,5,2.2,5,5c0,2.8-2.2,5-5,5v2c3.9,0,7-3.1,7-7S46.9,249,43,249z"/>
			<path id="Trazado_1461" class="st0" d="M35,251c2.8,0,5,2.2,5,5c0,2.8-2.2,5-5,5s-5-2.2-5-5C30,253.2,32.2,251,35,251 M35,249
				c-3.9,0-7,3.1-7,7s3.1,7,7,7s7-3.1,7-7S38.9,249,35,249z"/>
		</g>
	</g>
</g>
</svg>
