<svg id="Capa_1" data-name="Capa 1" xmlns="http://www.w3.org/2000/svg" width="14" height="14" viewBox="0 0 14 14"><defs><style>.cls-1{fill:#004d71;}</style></defs><g id="Grupo_4115" data-name="Grupo 4115"><g id="Layer_3" data-name="Layer 3"><path id="Trazado_1659" data-name="Trazado 1659" class="cls-1" d="M1,3.42a.57.57,0,0,0-.8,0,.55.55,0,0,0,0,.78h0L6.6,10.58a.57.57,0,0,0,.8,0l6.44-6.37a.56.56,0,0,0,0-.79h0a.57.57,0,0,0-.8,0L7,9.23Z"/></g><g id="Layer_3_copia" data-name="Layer 3 copia"><path id="Trazado_1660" data-name="Trazado 1660" class="cls-1" d="M1,3.42a.57.57,0,0,0-.8,0,.55.55,0,0,0,0,.78h0L6.6,10.58a.57.57,0,0,0,.8,0l6.44-6.37a.56.56,0,0,0,0-.79h0a.57.57,0,0,0-.8,0L7,9.23Z"/></g></g></svg>