<?xml version="1.0" encoding="utf-8"?>
<!-- Generator: Adobe Illustrator 25.2.1, SVG Export Plug-In . SVG Version: 6.00 Build 0)  -->
<svg version="1.1" id="Capa_1" xmlns="http://www.w3.org/2000/svg" xmlns:xlink="http://www.w3.org/1999/xlink" x="0px" y="0px"
	 width="14px" height="14px" viewBox="0 0 14 14" style="enable-background:new 0 0 14 14;" xml:space="preserve">
<style type="text/css">
	.st0{fill:#004D71;}
</style>
<g id="Grupo_4115" transform="translate(-5709.421 2583.334) rotate(-90)">
	<g id="Layer_3" transform="translate(2569.334 5709.421)">
		<path id="Trazado_1659" class="st0" d="M1,3.4c-0.2-0.2-0.6-0.2-0.8,0c-0.2,0.2-0.2,0.6,0,0.8c0,0,0,0,0,0l6.4,6.4
			c0.2,0.2,0.6,0.2,0.8,0l6.4-6.4c0.2-0.2,0.2-0.6,0-0.8c0,0,0,0,0,0c-0.2-0.2-0.6-0.2-0.8,0L7,9.2L1,3.4z"/>
	</g>
	<g id="Layer_3_copia" transform="translate(2569.334 5709.421)">
		<path id="Trazado_1660" class="st0" d="M1,3.4c-0.2-0.2-0.6-0.2-0.8,0c-0.2,0.2-0.2,0.6,0,0.8c0,0,0,0,0,0l6.4,6.4
			c0.2,0.2,0.6,0.2,0.8,0l6.4-6.4c0.2-0.2,0.2-0.6,0-0.8c0,0,0,0,0,0c-0.2-0.2-0.6-0.2-0.8,0L7,9.2L1,3.4z"/>
	</g>
</g>
</svg>
