<?xml version="1.0" encoding="utf-8"?>
<!-- Generator: Adobe Illustrator 25.2.1, SVG Export Plug-In . SVG Version: 6.00 Build 0)  -->
<svg version="1.1" id="Capa_1" xmlns="http://www.w3.org/2000/svg" xmlns:xlink="http://www.w3.org/1999/xlink" x="0px" y="0px"
	 width="32px" height="32px" viewBox="0 0 32 32" style="enable-background:new 0 0 32 32;" xml:space="preserve">
<style type="text/css">
	.st0{fill:#004D71;}
</style>
<path id="Trazado_1442" class="st0" d="M16.6,26c-3.6,0-6.3-2.3-7.4-6h9.4v-2H8.7c-0.1-0.7-0.1-1.3-0.1-2c0-0.3,0-0.7,0-1h10v-2H8.8
	c0.6-3.6,2.6-7,7.8-7c3.9,0,5.5,1.6,7.1,4.5l1.7-1C23.8,6.6,21.6,4,16.6,4c-6.4,0-10,4.4-10,12c0,7.1,4.1,12,10,12
	c5.1,0,7.3-2.6,8.9-5.5l-1.7-1C22.1,24.4,20.4,26,16.6,26z"/>
</svg>
