<svg id="Grupo_4093" data-name="Grupo 4093" xmlns="http://www.w3.org/2000/svg" width="19.443" height="19.17" viewBox="0 0 19.443 19.17">
  <g id="Layer_3" data-name="Layer 3" transform="translate(0 0)">
    <g id="Grupo_4091" data-name="Grupo 4091" transform="translate(0)">
      <path id="Trazado_1642" data-name="Trazado 1642" d="M1431.737,7192.056a2.072,2.072,0,0,1-2.243,2.078,2.083,2.083,0,1,1,2.243-2.078Zm-4.293,17.092v-13.373h4.157v13.373Z" transform="translate(-1427.334 -7189.977)" fill="#fff"/>
      <path id="Trazado_1643" data-name="Trazado 1643" d="M1458.2,7219.988c0-1.667-.054-3.062-.109-4.266h3.609l.192,1.859h.082a4.8,4.8,0,0,1,4.13-2.16c2.735,0,4.786,1.833,4.786,5.77v7.9h-4.157v-7.411c0-1.724-.6-2.9-2.106-2.9a2.281,2.281,0,0,0-2.132,1.559,2.978,2.978,0,0,0-.137,1.039v7.712H1458.2Z" transform="translate(-1451.447 -7209.925)" fill="#fff"/>
    </g>
  </g>
  <g id="Layer_3_copia" data-name="Layer 3 copia" transform="translate(0 0)">
    <g id="Grupo_4092" data-name="Grupo 4092" transform="translate(0)">
      <path id="Trazado_1644" data-name="Trazado 1644" d="M1431.737,7192.056a2.072,2.072,0,0,1-2.243,2.078,2.083,2.083,0,1,1,2.243-2.078Zm-4.293,17.092v-13.373h4.157v13.373Z" transform="translate(-1427.334 -7189.977)" fill="#fff"/>
      <path id="Trazado_1645" data-name="Trazado 1645" d="M1458.2,7219.988c0-1.667-.054-3.062-.109-4.266h3.609l.192,1.859h.082a4.8,4.8,0,0,1,4.13-2.16c2.735,0,4.786,1.833,4.786,5.77v7.9h-4.157v-7.411c0-1.724-.6-2.9-2.106-2.9a2.281,2.281,0,0,0-2.132,1.559,2.978,2.978,0,0,0-.137,1.039v7.712H1458.2Z" transform="translate(-1451.447 -7209.925)" fill="#fff"/>
    </g>
  </g>
</svg>
