<svg id="Grupo_391" data-name="Grupo 391" xmlns="http://www.w3.org/2000/svg" xmlns:xlink="http://www.w3.org/1999/xlink" width="115.188" height="39.834" viewBox="0 0 115.188 39.834">
  <defs>
    <clipPath id="clip-path">
      <path id="SVGID" d="M283.469,20.861v2.605H280.49v2.256h2.979v2.912h2.256V25.723h2.912V23.466h-2.912V20.488Z" transform="translate(-280.49 -20.488)" fill="#fbfcfd"/>
    </clipPath>
  </defs>
  <path id="Trazado_1373" data-name="Trazado 1373" d="M117.413,102.154a4.574,4.574,0,0,1-1.778-.343,4.035,4.035,0,0,1-1.428-1,4.729,4.729,0,0,1-.957-1.621,6.445,6.445,0,0,1-.35-2.207,6,6,0,0,1,.378-2.207,4.9,4.9,0,0,1,1.007-1.621,4.149,4.149,0,0,1,1.457-.993,4.557,4.557,0,0,1,1.728-.335,6.607,6.607,0,0,1,1.014.071,5.6,5.6,0,0,1,.8.179,5.477,5.477,0,0,1,.585.214,2.483,2.483,0,0,1,.371.193l-.314.843a5.694,5.694,0,0,0-.907-.421,4.448,4.448,0,0,0-2.985.107,3.2,3.2,0,0,0-1.164.885,3.838,3.838,0,0,0-.707,1.357A6.049,6.049,0,0,0,113.929,97a6.23,6.23,0,0,0,.235,1.778,3.822,3.822,0,0,0,.693,1.35,3.06,3.06,0,0,0,1.122.857,3.655,3.655,0,0,0,1.521.3,5.926,5.926,0,0,0,1.578-.179,4.534,4.534,0,0,0,.964-.364l.271.828a1.646,1.646,0,0,1-.343.164,6.419,6.419,0,0,1-.614.193,6.752,6.752,0,0,1-.857.164,8.306,8.306,0,0,1-1.086.065" transform="translate(-75.179 -62.319)" fill="#fbfcfd"/>
  <path id="Trazado_1374" data-name="Trazado 1374" d="M139.049,101.878a4.784,4.784,0,0,1-.25,1.585,3.539,3.539,0,0,1-.7,1.214,3.179,3.179,0,0,1-1.064.778,3.437,3.437,0,0,1-2.714,0,3.183,3.183,0,0,1-1.064-.778,3.531,3.531,0,0,1-.7-1.214,5.149,5.149,0,0,1,0-3.171,3.611,3.611,0,0,1,.7-1.221,3.149,3.149,0,0,1,1.064-.786,3.446,3.446,0,0,1,2.714,0,3.146,3.146,0,0,1,1.064.786,3.619,3.619,0,0,1,.7,1.221,4.788,4.788,0,0,1,.25,1.586m-.986,0a3.483,3.483,0,0,0-.643-2.207,2.258,2.258,0,0,0-3.485,0,4.1,4.1,0,0,0,0,4.406,2.272,2.272,0,0,0,3.485,0,3.451,3.451,0,0,0,.643-2.2" transform="translate(-86.558 -65.943)" fill="#fbfcfd"/>
  <path id="Trazado_1375" data-name="Trazado 1375" d="M152.093,98.476q.414-.114,1.114-.257a8.734,8.734,0,0,1,1.714-.143,3.562,3.562,0,0,1,1.407.243,2.158,2.158,0,0,1,.9.693,2.831,2.831,0,0,1,.479,1.078,6.263,6.263,0,0,1,.143,1.385V105.6h-.929v-3.828a7.022,7.022,0,0,0-.107-1.328,2.215,2.215,0,0,0-.358-.886,1.385,1.385,0,0,0-.657-.493,2.97,2.97,0,0,0-1.021-.15,7.819,7.819,0,0,0-1.136.072,3.426,3.426,0,0,0-.621.129V105.6h-.929Z" transform="translate(-98.16 -65.983)" fill="#fbfcfd"/>
  <path id="Trazado_1376" data-name="Trazado 1376" d="M170.943,104.906a2.91,2.91,0,0,0,1.322-.264.922.922,0,0,0,.521-.893,1.284,1.284,0,0,0-.093-.514,1.008,1.008,0,0,0-.307-.386,2.633,2.633,0,0,0-.564-.328q-.35-.157-.864-.371-.414-.171-.786-.35a3.217,3.217,0,0,1-.657-.414,1.8,1.8,0,0,1-.457-.564,1.708,1.708,0,0,1-.172-.8,1.793,1.793,0,0,1,.679-1.457,2.853,2.853,0,0,1,1.864-.557,5.09,5.09,0,0,1,1.25.128,4,4,0,0,1,.693.229l-.214.828a5.481,5.481,0,0,0-.578-.229,3.822,3.822,0,0,0-1.193-.142,2.6,2.6,0,0,0-.593.065,1.567,1.567,0,0,0-.493.2,1.061,1.061,0,0,0-.342.343.947.947,0,0,0-.129.508,1.084,1.084,0,0,0,.114.515,1.142,1.142,0,0,0,.336.379,2.783,2.783,0,0,0,.543.306q.321.143.735.313t.821.349a3.011,3.011,0,0,1,.693.427,1.98,1.98,0,0,1,.486.6,1.868,1.868,0,0,1,.185.879,1.718,1.718,0,0,1-.749,1.514,3.581,3.581,0,0,1-2.05.514,5.154,5.154,0,0,1-1.485-.165,5.6,5.6,0,0,1-.685-.25l.242-.843a1.476,1.476,0,0,0,.186.093,3.689,3.689,0,0,0,.386.143,4.135,4.135,0,0,0,.579.136,4.688,4.688,0,0,0,.778.057" transform="translate(-107.941 -65.943)" fill="#fbfcfd"/>
  <path id="Trazado_1377" data-name="Trazado 1377" d="M189.308,105.549q-.415.115-1.115.257a8.74,8.74,0,0,1-1.714.143,3.466,3.466,0,0,1-1.386-.243,2.244,2.244,0,0,1-.9-.685,2.761,2.761,0,0,1-.493-1.071,5.967,5.967,0,0,1-.15-1.386V98.422h.928v3.842a6.566,6.566,0,0,0,.115,1.328,2.152,2.152,0,0,0,.371.879,1.447,1.447,0,0,0,.664.486,2.879,2.879,0,0,0,.992.15,7.928,7.928,0,0,0,1.143-.071,3.039,3.039,0,0,0,.614-.129V98.422h.929Z" transform="translate(-116.607 -66.186)" fill="#fbfcfd"/>
  <path id="Trazado_1378" data-name="Trazado 1378" d="M203.876,100.69a3.16,3.16,0,0,1-.821-.121,1.472,1.472,0,0,1-.585-.328,1.4,1.4,0,0,1-.357-.572,2.709,2.709,0,0,1-.121-.879V89.649l.928-.171v9.284a1.919,1.919,0,0,0,.064.55.737.737,0,0,0,.193.328.776.776,0,0,0,.335.179,4.229,4.229,0,0,0,.493.1Z" transform="translate(-127.419 -60.942)" fill="#fbfcfd"/>
  <path id="Trazado_1379" data-name="Trazado 1379" d="M210.239,95.1h2.943v.785h-2.943v3.928a4,4,0,0,0,.107,1.021,1.425,1.425,0,0,0,.307.607.973.973,0,0,0,.486.286,2.593,2.593,0,0,0,.629.071,2.705,2.705,0,0,0,.942-.136,4.086,4.086,0,0,0,.557-.25l.229.771a3.345,3.345,0,0,1-.7.293,3.471,3.471,0,0,1-1.086.164,3.226,3.226,0,0,1-1.15-.178,1.657,1.657,0,0,1-.743-.543,2.219,2.219,0,0,1-.393-.907,6.309,6.309,0,0,1-.115-1.285v-6.8l.929-.171Z" transform="translate(-131.711 -62.866)" fill="#fbfcfd"/>
  <path id="Trazado_1380" data-name="Trazado 1380" d="M227.1,101.878a4.783,4.783,0,0,1-.25,1.585,3.538,3.538,0,0,1-.7,1.214,3.179,3.179,0,0,1-1.064.778,3.437,3.437,0,0,1-2.714,0,3.184,3.184,0,0,1-1.064-.778,3.53,3.53,0,0,1-.7-1.214,5.149,5.149,0,0,1,0-3.171,3.611,3.611,0,0,1,.7-1.221,3.15,3.15,0,0,1,1.064-.786,3.446,3.446,0,0,1,2.714,0,3.145,3.145,0,0,1,1.064.786,3.619,3.619,0,0,1,.7,1.221,4.788,4.788,0,0,1,.25,1.586m-.986,0a3.483,3.483,0,0,0-.643-2.207,2.258,2.258,0,0,0-3.485,0,4.1,4.1,0,0,0,0,4.406,2.272,2.272,0,0,0,3.485,0,3.451,3.451,0,0,0,.643-2.2" transform="translate(-138.191 -65.943)" fill="#fbfcfd"/>
  <path id="Trazado_1381" data-name="Trazado 1381" d="M242.662,98.076a5.011,5.011,0,0,1,.864.071,2.7,2.7,0,0,1,.564.143l-.186.8a2.07,2.07,0,0,0-.465-.122,5.322,5.322,0,0,0-.921-.064,4.34,4.34,0,0,0-.964.086,2.669,2.669,0,0,0-.479.142v6.47h-.928V98.562a6.9,6.9,0,0,1,.986-.321,6.136,6.136,0,0,1,1.528-.164" transform="translate(-149.794 -65.983)" fill="#fbfcfd"/>
  <path id="Trazado_1382" data-name="Trazado 1382" d="M250.611,101.864a4.686,4.686,0,0,1,.279-1.693,3.733,3.733,0,0,1,.728-1.207,2.874,2.874,0,0,1,1.029-.721,3.132,3.132,0,0,1,1.193-.236,2.787,2.787,0,0,1,2.164.886,3.953,3.953,0,0,1,.807,2.728c0,.076,0,.153-.007.229s-.012.147-.022.214H251.6a3.265,3.265,0,0,0,.671,2.085,2.506,2.506,0,0,0,2,.728,4.028,4.028,0,0,0,1.2-.143,5.026,5.026,0,0,0,.643-.242l.172.8a3.886,3.886,0,0,1-.75.271,4.721,4.721,0,0,1-1.293.158,4.3,4.3,0,0,1-1.657-.286,2.961,2.961,0,0,1-1.128-.8,3.148,3.148,0,0,1-.643-1.221,5.684,5.684,0,0,1-.2-1.55m5.242-.586a2.935,2.935,0,0,0-.542-1.8,1.76,1.76,0,0,0-1.457-.643,1.946,1.946,0,0,0-.893.2,2.267,2.267,0,0,0-.685.536,2.49,2.49,0,0,0-.457.778,3.207,3.207,0,0,0-.193.929Z" transform="translate(-155.929 -65.943)" fill="#fbfcfd"/>
  <path id="Trazado_1383" data-name="Trazado 1383" d="M269.806,104.906a2.91,2.91,0,0,0,1.321-.264.922.922,0,0,0,.521-.893,1.285,1.285,0,0,0-.093-.514,1.009,1.009,0,0,0-.307-.386,2.634,2.634,0,0,0-.564-.328q-.35-.157-.864-.371-.415-.171-.786-.35a3.217,3.217,0,0,1-.657-.414,1.794,1.794,0,0,1-.457-.564,1.709,1.709,0,0,1-.172-.8,1.793,1.793,0,0,1,.679-1.457,2.853,2.853,0,0,1,1.864-.557,5.09,5.09,0,0,1,1.25.128,4,4,0,0,1,.693.229l-.214.828a5.477,5.477,0,0,0-.578-.229,3.823,3.823,0,0,0-1.193-.142,2.6,2.6,0,0,0-.593.065,1.567,1.567,0,0,0-.493.2,1.061,1.061,0,0,0-.342.343.947.947,0,0,0-.129.508,1.084,1.084,0,0,0,.114.515,1.145,1.145,0,0,0,.335.379,2.8,2.8,0,0,0,.543.306q.321.143.735.313t.821.349a3.012,3.012,0,0,1,.693.427,1.98,1.98,0,0,1,.486.6,1.868,1.868,0,0,1,.185.879,1.718,1.718,0,0,1-.75,1.514,3.581,3.581,0,0,1-2.05.514,5.154,5.154,0,0,1-1.485-.165,5.6,5.6,0,0,1-.685-.25l.242-.843a1.478,1.478,0,0,0,.186.093,3.689,3.689,0,0,0,.386.143,4.135,4.135,0,0,0,.579.136,4.688,4.688,0,0,0,.778.057" transform="translate(-165.912 -65.943)" fill="#fbfcfd"/>
  <path id="Trazado_1384" data-name="Trazado 1384" d="M112.9,46.841a10.107,10.107,0,0,1,.631-3.72,7.813,7.813,0,0,1,1.676-2.659,6.93,6.93,0,0,1,2.4-1.6,7.451,7.451,0,0,1,2.768-.537,6.623,6.623,0,0,1,5.181,2.06q1.858,2.06,1.86,6.149c0,.2-.007.436-.016.692s-.025.486-.046.691H116.744a4.236,4.236,0,0,0,1.369,3,5.191,5.191,0,0,0,3.519,1.061,11.546,11.546,0,0,0,2.476-.247,10.159,10.159,0,0,0,1.766-.521l.493,3.043a5.817,5.817,0,0,1-.846.322,11.912,11.912,0,0,1-1.229.309c-.461.092-.959.168-1.491.23a14.188,14.188,0,0,1-1.63.092,9.874,9.874,0,0,1-3.688-.63A6.855,6.855,0,0,1,114.9,52.82a7.182,7.182,0,0,1-1.506-2.643,10.8,10.8,0,0,1-.493-3.337m10.793-1.66a4.924,4.924,0,0,0-.215-1.461,3.515,3.515,0,0,0-.63-1.2,2.984,2.984,0,0,0-1.014-.8,3.238,3.238,0,0,0-1.431-.291,3.327,3.327,0,0,0-1.506.323,3.409,3.409,0,0,0-1.09.845,3.851,3.851,0,0,0-.692,1.2,6.484,6.484,0,0,0-.339,1.383Z" transform="translate(-75.179 -30.947)" fill="#fbfcfd"/>
  <path id="Trazado_1385" data-name="Trazado 1385" d="M169.006,46.867a11.365,11.365,0,0,1-.477,3.383,7.9,7.9,0,0,1-1.367,2.644,6.076,6.076,0,0,1-2.229,1.721,7.168,7.168,0,0,1-3.029.615,7.506,7.506,0,0,1-2.09-.275,7.908,7.908,0,0,1-1.568-.615V60.58h-3.72V39.335q1.139-.306,2.8-.584a21.356,21.356,0,0,1,3.5-.276,9.406,9.406,0,0,1,3.413.583,7.13,7.13,0,0,1,2.568,1.676,7.4,7.4,0,0,1,1.629,2.644,10.1,10.1,0,0,1,.569,3.489m-3.812.062a5.985,5.985,0,0,0-1.123-3.874,4.384,4.384,0,0,0-3.612-1.383c-.349,0-.711.016-1.092.046a5.876,5.876,0,0,0-1.122.2V51.11a5.712,5.712,0,0,0,1.307.631,5.1,5.1,0,0,0,1.736.292,3.33,3.33,0,0,0,2.967-1.383,6.541,6.541,0,0,0,.938-3.72" transform="translate(-99.587 -31.035)" fill="#fbfcfd"/>
  <path id="Trazado_1386" data-name="Trazado 1386" d="M227.882,54.879q-1.076.275-2.8.569a22.852,22.852,0,0,1-3.782.292,8.359,8.359,0,0,1-3.243-.553,5.2,5.2,0,0,1-2.09-1.538,6.031,6.031,0,0,1-1.123-2.351,12.5,12.5,0,0,1-.338-3V39.291h3.72v8.424a6.8,6.8,0,0,0,.752,3.69,2.951,2.951,0,0,0,2.629,1.106c.451,0,.928-.019,1.43-.06a7.525,7.525,0,0,0,1.122-.155v-13h3.72Z" transform="translate(-134.76 -31.513)" fill="#fbfcfd"/>
  <path id="Trazado_1387" data-name="Trazado 1387" d="M257.6,52.13a4.917,4.917,0,0,0,2.153-.353,1.26,1.26,0,0,0,.677-1.215,1.578,1.578,0,0,0-.723-1.322,10.68,10.68,0,0,0-2.383-1.137,18.8,18.8,0,0,1-1.86-.784A6.365,6.365,0,0,1,254,46.351a3.954,3.954,0,0,1-.968-1.339,4.647,4.647,0,0,1-.355-1.92,4.191,4.191,0,0,1,1.63-3.491,7,7,0,0,1,4.427-1.275,13.619,13.619,0,0,1,2.706.261,13.2,13.2,0,0,1,1.936.507l-.675,3.013a9.077,9.077,0,0,0-1.569-.507,9.4,9.4,0,0,0-2.213-.231,3.85,3.85,0,0,0-1.846.385,1.26,1.26,0,0,0-.706,1.183,1.709,1.709,0,0,0,.138.706,1.546,1.546,0,0,0,.477.569,4.891,4.891,0,0,0,.892.523,13.573,13.573,0,0,0,1.353.537,20.76,20.76,0,0,1,2.243.97,6.066,6.066,0,0,1,1.523,1.076,3.7,3.7,0,0,1,.876,1.367,5.482,5.482,0,0,1,.277,1.846,3.972,3.972,0,0,1-1.707,3.489,8.5,8.5,0,0,1-4.873,1.183,13.33,13.33,0,0,1-3.412-.353,17.316,17.316,0,0,1-1.814-.569l.645-3.105a16.51,16.51,0,0,0,1.983.646,10.254,10.254,0,0,0,2.629.307" transform="translate(-156.944 -30.948)" fill="#fbfcfd"/>
  <path id="Trazado_1388" data-name="Trazado 1388" d="M82.335,26.558v5.82a9.3,9.3,0,0,0-1.537-.615,6.992,6.992,0,0,0-2.06-.276,7.3,7.3,0,0,0-3.043.6,6.214,6.214,0,0,0-2.245,1.706,7.586,7.586,0,0,0-1.4,2.66,11.784,11.784,0,0,0-.477,3.458,10.1,10.1,0,0,0,.569,3.489,7.385,7.385,0,0,0,1.631,2.644A7.11,7.11,0,0,0,76.34,47.72a9.4,9.4,0,0,0,3.412.583,21.647,21.647,0,0,0,3.521-.276,22.222,22.222,0,0,0,2.782-.615V26.558Zm0,18.271A10.107,10.107,0,0,1,81.3,45a12.611,12.611,0,0,1-1.521.077,3.978,3.978,0,0,1-3.229-1.4,5.837,5.837,0,0,1-1.168-3.86,6.588,6.588,0,0,1,.938-3.75,3.326,3.326,0,0,1,2.966-1.383,5.114,5.114,0,0,1,1.738.292,5.8,5.8,0,0,1,1.305.63Z" transform="translate(-50.946 -24.047)" fill="#fbfcfd"/>
  <path id="Trazado_1389" data-name="Trazado 1389" d="M201.36,47.339a10.111,10.111,0,0,1-2.752-.369A4.218,4.218,0,0,1,196.871,46a3.423,3.423,0,0,1-.908-1.568A7.951,7.951,0,0,1,195.7,42.3V25.686l3.72-.615V41.59a5.131,5.131,0,0,0,.108,1.137,1.806,1.806,0,0,0,.385.784,1.721,1.721,0,0,0,.752.493,5.925,5.925,0,0,0,1.215.261Z" transform="translate(-123.732 -23.175)" fill="#fbfcfd"/>
  <path id="Trazado_1390" data-name="Trazado 1390" d="M40.111,41.768Q39.024,38.887,38,36.312t-2.038-4.9q-1.011-2.329-2.085-4.6H30.186q-1.073,2.269-2.083,4.6t-2.037,4.9q-1.025,2.574-2.1,5.456T21.7,48.052H25.72q.427-1.226.876-2.468t.876-2.528l.991-3.127q.981-2.727,1.886-5.057t1.608-3.954q.675,1.563,1.594,3.923t1.9,5.088l.991,3.127q.43,1.287.891,2.513t.891,2.483h4.169q-1.2-3.4-2.284-6.284" transform="translate(-21.703 -24.195)" fill="#fbfcfd"/>
  <path id="Trazado_1391" data-name="Trazado 1391" d="M288.637,23.466h-2.912V20.488l-2.255.374v2.605H280.49v2.256h2.979v2.912h2.255V25.722h2.912Z" transform="translate(-173.45 -20.488)" fill="#ee9531"/>
  <g id="Grupo_330" data-name="Grupo 330" transform="translate(107.04 0)">
    <g id="Grupo_329" data-name="Grupo 329" transform="translate(0 0)" clip-path="url(#clip-path)">
      <rect id="Rectángulo_119" data-name="Rectángulo 119" width="8.147" height="8.147" fill="#fbfcfd"/>
      <path id="Trazado_1392" data-name="Trazado 1392" d="M288.739,24.906a3.829,3.829,0,1,1-3.829-3.829,3.829,3.829,0,0,1,3.829,3.829" transform="translate(-280.837 -20.833)" fill="#fbfcfd"/>
      <path id="Trazado_1393" data-name="Trazado 1393" d="M288.775,25.03a3.742,3.742,0,1,1-3.742-3.742,3.742,3.742,0,0,1,3.742,3.742" transform="translate(-280.96 -20.957)" fill="#fbfcfd"/>
      <path id="Trazado_1394" data-name="Trazado 1394" d="M288.811,25.153a3.655,3.655,0,1,1-3.655-3.655,3.655,3.655,0,0,1,3.655,3.655" transform="translate(-281.083 -21.08)" fill="#fbfcfd"/>
      <path id="Trazado_1395" data-name="Trazado 1395" d="M288.848,25.277a3.568,3.568,0,1,1-3.568-3.568,3.568,3.568,0,0,1,3.568,3.568" transform="translate(-281.206 -21.204)" fill="#fbfcfd"/>
      <path id="Trazado_1396" data-name="Trazado 1396" d="M288.884,25.4a3.481,3.481,0,1,1-3.481-3.481,3.481,3.481,0,0,1,3.481,3.481" transform="translate(-281.33 -21.327)" fill="#fbfcfd"/>
      <path id="Trazado_1397" data-name="Trazado 1397" d="M288.921,25.523a3.394,3.394,0,1,1-3.394-3.394,3.394,3.394,0,0,1,3.394,3.394" transform="translate(-281.453 -21.45)" fill="#fbfcfd"/>
      <path id="Trazado_1398" data-name="Trazado 1398" d="M288.957,25.647a3.307,3.307,0,1,1-3.307-3.307,3.307,3.307,0,0,1,3.307,3.307" transform="translate(-281.576 -21.574)" fill="#fbfcfd"/>
      <path id="Trazado_1399" data-name="Trazado 1399" d="M288.993,25.77a3.22,3.22,0,1,1-3.22-3.22,3.22,3.22,0,0,1,3.22,3.22" transform="translate(-281.7 -21.697)" fill="#fbfcfd"/>
      <path id="Trazado_1400" data-name="Trazado 1400" d="M289.03,25.894a3.133,3.133,0,1,1-3.133-3.133,3.133,3.133,0,0,1,3.133,3.133" transform="translate(-281.823 -21.821)" fill="#fbfcfd"/>
      <path id="Trazado_1401" data-name="Trazado 1401" d="M289.066,26.017a3.046,3.046,0,1,1-3.046-3.046,3.046,3.046,0,0,1,3.046,3.046" transform="translate(-281.947 -21.944)" fill="#fbfcfd"/>
      <path id="Trazado_1402" data-name="Trazado 1402" d="M289.1,26.14a2.959,2.959,0,1,1-2.959-2.959A2.959,2.959,0,0,1,289.1,26.14" transform="translate(-282.07 -22.067)" fill="#fbfcfd"/>
      <path id="Trazado_1403" data-name="Trazado 1403" d="M289.139,26.264a2.872,2.872,0,1,1-2.872-2.872,2.872,2.872,0,0,1,2.872,2.872" transform="translate(-282.193 -22.191)" fill="#fbfcfd"/>
      <path id="Trazado_1404" data-name="Trazado 1404" d="M289.175,26.387A2.785,2.785,0,1,1,286.39,23.6a2.785,2.785,0,0,1,2.785,2.785" transform="translate(-282.316 -22.314)" fill="#fbfcfd"/>
      <path id="Trazado_1405" data-name="Trazado 1405" d="M289.212,26.511a2.7,2.7,0,1,1-2.7-2.7,2.7,2.7,0,0,1,2.7,2.7" transform="translate(-282.44 -22.438)" fill="#fbfcfd"/>
      <path id="Trazado_1406" data-name="Trazado 1406" d="M289.248,26.634a2.611,2.611,0,1,1-2.611-2.611,2.611,2.611,0,0,1,2.611,2.611" transform="translate(-282.563 -22.561)" fill="#fbfcfd"/>
      <path id="Trazado_1407" data-name="Trazado 1407" d="M289.284,26.757a2.524,2.524,0,1,1-2.524-2.524,2.524,2.524,0,0,1,2.524,2.524" transform="translate(-282.687 -22.684)" fill="#fbfcfd"/>
      <path id="Trazado_1408" data-name="Trazado 1408" d="M289.32,26.881a2.437,2.437,0,1,1-2.437-2.437,2.437,2.437,0,0,1,2.437,2.437" transform="translate(-282.81 -22.808)" fill="#fbfcfd"/>
      <path id="Trazado_1409" data-name="Trazado 1409" d="M289.357,27a2.35,2.35,0,1,1-2.35-2.35,2.35,2.35,0,0,1,2.35,2.35" transform="translate(-282.933 -22.931)" fill="#fbfcfd"/>
      <path id="Trazado_1410" data-name="Trazado 1410" d="M289.393,27.128a2.263,2.263,0,1,1-2.263-2.263,2.263,2.263,0,0,1,2.263,2.263" transform="translate(-283.057 -23.054)" fill="#fbfcfd"/>
      <path id="Trazado_1411" data-name="Trazado 1411" d="M289.429,27.251a2.176,2.176,0,1,1-2.176-2.176,2.176,2.176,0,0,1,2.176,2.176" transform="translate(-283.18 -23.178)" fill="#fbfcfd"/>
      <path id="Trazado_1412" data-name="Trazado 1412" d="M289.466,27.374a2.089,2.089,0,1,1-2.089-2.089,2.089,2.089,0,0,1,2.089,2.089" transform="translate(-283.304 -23.301)" fill="#fbfcfd"/>
      <path id="Trazado_1413" data-name="Trazado 1413" d="M289.5,27.5a2,2,0,1,1-2-2,2,2,0,0,1,2,2" transform="translate(-283.428 -23.424)" fill="#fbfcfd"/>
      <path id="Trazado_1414" data-name="Trazado 1414" d="M289.538,27.621a1.915,1.915,0,1,1-1.915-1.915,1.915,1.915,0,0,1,1.915,1.915" transform="translate(-283.55 -23.548)" fill="#fbfcfd"/>
      <path id="Trazado_1415" data-name="Trazado 1415" d="M289.575,27.744a1.828,1.828,0,1,1-1.827-1.827,1.827,1.827,0,0,1,1.827,1.827" transform="translate(-283.674 -23.671)" fill="#fbfcfd"/>
      <path id="Trazado_1416" data-name="Trazado 1416" d="M289.611,27.868a1.741,1.741,0,1,1-1.741-1.741,1.741,1.741,0,0,1,1.741,1.741" transform="translate(-283.797 -23.794)" fill="#fbfcfd"/>
      <path id="Trazado_1417" data-name="Trazado 1417" d="M289.648,27.991a1.653,1.653,0,1,1-1.654-1.654,1.654,1.654,0,0,1,1.654,1.654" transform="translate(-283.921 -23.918)" fill="#fbfcfd"/>
      <path id="Trazado_1418" data-name="Trazado 1418" d="M289.685,28.114a1.566,1.566,0,1,1-1.567-1.566,1.567,1.567,0,0,1,1.567,1.566" transform="translate(-284.045 -24.041)" fill="#fbfcfd"/>
      <path id="Trazado_1419" data-name="Trazado 1419" d="M289.72,28.238a1.48,1.48,0,1,1-1.48-1.48,1.48,1.48,0,0,1,1.48,1.48" transform="translate(-284.167 -24.164)" fill="#fbfcfd"/>
      <path id="Trazado_1420" data-name="Trazado 1420" d="M289.757,28.361a1.392,1.392,0,1,1-1.392-1.392,1.392,1.392,0,0,1,1.392,1.392" transform="translate(-284.291 -24.288)" fill="#fbfcfd"/>
      <path id="Trazado_1421" data-name="Trazado 1421" d="M289.793,28.484a1.305,1.305,0,1,1-1.305-1.305,1.305,1.305,0,0,1,1.305,1.305" transform="translate(-284.414 -24.411)" fill="#fbfcfd"/>
      <path id="Trazado_1422" data-name="Trazado 1422" d="M289.83,28.608a1.218,1.218,0,1,1-1.219-1.219,1.219,1.219,0,0,1,1.219,1.219" transform="translate(-284.538 -24.534)" fill="#fbfcfd"/>
      <path id="Trazado_1423" data-name="Trazado 1423" d="M289.866,28.731a1.131,1.131,0,1,1-1.132-1.131,1.132,1.132,0,0,1,1.132,1.131" transform="translate(-284.661 -24.658)" fill="#fbfcfd"/>
      <path id="Trazado_1424" data-name="Trazado 1424" d="M289.9,28.854a1.044,1.044,0,1,1-1.044-1.044,1.044,1.044,0,0,1,1.044,1.044" transform="translate(-284.784 -24.781)" fill="#fbfcfd"/>
      <path id="Trazado_1425" data-name="Trazado 1425" d="M289.939,28.978a.957.957,0,1,1-.957-.957.957.957,0,0,1,.957.957" transform="translate(-284.908 -24.905)" fill="#fbfcfd"/>
      <path id="Trazado_1426" data-name="Trazado 1426" d="M289.975,29.1a.87.87,0,1,1-.87-.87.87.87,0,0,1,.87.87" transform="translate(-285.031 -25.028)" fill="#fbfcfd"/>
      <path id="Trazado_1427" data-name="Trazado 1427" d="M290.011,29.224a.783.783,0,1,1-.783-.783.783.783,0,0,1,.783.783" transform="translate(-285.155 -25.151)" fill="#fbfcfd"/>
      <path id="Trazado_1428" data-name="Trazado 1428" d="M290.048,29.348a.7.7,0,1,1-.7-.7.7.7,0,0,1,.7.7" transform="translate(-285.278 -25.275)" fill="#fbfcfd"/>
      <path id="Trazado_1429" data-name="Trazado 1429" d="M290.084,29.471a.609.609,0,1,1-.609-.609.609.609,0,0,1,.609.609" transform="translate(-285.401 -25.398)" fill="#fbfcfd"/>
      <path id="Trazado_1430" data-name="Trazado 1430" d="M290.12,29.595a.522.522,0,1,1-.522-.522.522.522,0,0,1,.522.522" transform="translate(-285.525 -25.522)" fill="#fbfcfd"/>
      <path id="Trazado_1431" data-name="Trazado 1431" d="M290.156,29.718a.435.435,0,1,1-.435-.435.435.435,0,0,1,.435.435" transform="translate(-285.648 -25.645)" fill="#fbfcfd"/>
      <path id="Trazado_1432" data-name="Trazado 1432" d="M290.193,29.841a.348.348,0,1,1-.348-.348.348.348,0,0,1,.348.348" transform="translate(-285.771 -25.768)" fill="#fbfcfd"/>
      <path id="Trazado_1433" data-name="Trazado 1433" d="M290.229,29.965a.261.261,0,1,1-.261-.261.261.261,0,0,1,.261.261" transform="translate(-285.895 -25.892)" fill="#fbfcfd"/>
      <path id="Trazado_1434" data-name="Trazado 1434" d="M290.265,30.088a.174.174,0,1,1-.174-.174.174.174,0,0,1,.174.174" transform="translate(-286.018 -26.015)" fill="#fbfcfd"/>
      <path id="Trazado_1435" data-name="Trazado 1435" d="M290.3,30.212a.087.087,0,1,1-.087-.087.087.087,0,0,1,.087.087" transform="translate(-286.141 -26.139)" fill="#fbfcfd"/>
    </g>
  </g>
</svg>
