<svg id="Capa_1" data-name="Capa 1" xmlns="http://www.w3.org/2000/svg" xmlns:xlink="http://www.w3.org/1999/xlink" width="278.48" height="96.31" viewBox="0 0 278.48 96.31"><defs><style>.cls-1{fill:none;}.cls-2{fill:#828282;}.cls-3{fill:#044666;}.cls-4{fill:#ee9531;}.cls-5{clip-path:url(#clip-path);}</style><clipPath id="clip-path" transform="translate(-21.7 -20.49)"><polygon class="cls-1" points="287.69 21.39 287.69 27.69 280.49 27.69 280.49 33.14 287.69 33.14 287.69 40.18 293.15 40.18 293.15 33.14 300.19 33.14 300.19 27.69 293.15 27.69 293.15 20.49 287.69 21.39"/></clipPath></defs><path class="cls-2" d="M123.81,116.79a11,11,0,0,1-4.3-.83,9.75,9.75,0,0,1-3.45-2.41,11.4,11.4,0,0,1-2.31-3.92,15.5,15.5,0,0,1-.85-5.34,14.49,14.49,0,0,1,.91-5.33A11.87,11.87,0,0,1,116.25,95a10,10,0,0,1,3.52-2.4,11.07,11.07,0,0,1,4.18-.81,15.28,15.28,0,0,1,2.45.17,13.46,13.46,0,0,1,1.94.43,11.58,11.58,0,0,1,1.41.52,7.23,7.23,0,0,1,.9.46l-.76,2a15.27,15.27,0,0,0-2.19-1,10.77,10.77,0,0,0-7.22.26,7.66,7.66,0,0,0-2.81,2.14,9.33,9.33,0,0,0-1.72,3.28,14.66,14.66,0,0,0-.56,4.22,15.13,15.13,0,0,0,.56,4.3,9.41,9.41,0,0,0,1.68,3.26,7.36,7.36,0,0,0,2.71,2.07,8.92,8.92,0,0,0,3.68.73,14.27,14.27,0,0,0,3.82-.44,10.62,10.62,0,0,0,2.33-.88l.65,2a4.41,4.41,0,0,1-.83.39,14.74,14.74,0,0,1-1.48.47,17.75,17.75,0,0,1-2.07.4,21,21,0,0,1-2.63.15" transform="translate(-21.7 -20.49)"/><path class="cls-2" d="M148.61,107.37a11.61,11.61,0,0,1-.61,3.83,8.51,8.51,0,0,1-1.69,2.93,7.46,7.46,0,0,1-2.57,1.88,8.25,8.25,0,0,1-6.56,0,7.6,7.6,0,0,1-2.58-1.88,8.51,8.51,0,0,1-1.69-2.93,12.56,12.56,0,0,1,0-7.67,8.8,8.8,0,0,1,1.69-3,7.65,7.65,0,0,1,2.58-1.9,8.36,8.36,0,0,1,6.56,0,7.52,7.52,0,0,1,2.57,1.9,8.8,8.8,0,0,1,1.69,3,11.63,11.63,0,0,1,.61,3.84m-2.39,0a8.4,8.4,0,0,0-1.55-5.34,5.46,5.46,0,0,0-8.43,0,8.46,8.46,0,0,0-1.55,5.34,8.37,8.37,0,0,0,1.55,5.31,5.49,5.49,0,0,0,8.43,0,8.31,8.31,0,0,0,1.55-5.31" transform="translate(-21.7 -20.49)"/><path class="cls-2" d="M152.09,99c.67-.18,1.57-.39,2.7-.62a21.11,21.11,0,0,1,4.14-.34,8.65,8.65,0,0,1,3.4.58,5.27,5.27,0,0,1,2.18,1.68,6.77,6.77,0,0,1,1.15,2.61,15.09,15.09,0,0,1,.35,3.34v10h-2.25V107a17.13,17.13,0,0,0-.25-3.21,5.31,5.31,0,0,0-.87-2.14,3.27,3.27,0,0,0-1.59-1.19,7,7,0,0,0-2.46-.37,18.17,18.17,0,0,0-2.75.18,7.35,7.35,0,0,0-1.5.31v15.67h-2.25Z" transform="translate(-21.7 -20.49)"/><path class="cls-2" d="M174,114.69a7.1,7.1,0,0,0,3.19-.64,2.24,2.24,0,0,0,1.26-2.16,3.09,3.09,0,0,0-.22-1.24,2.51,2.51,0,0,0-.74-.94,6.53,6.53,0,0,0-1.37-.79l-2.09-.9c-.66-.27-1.3-.56-1.9-.84a8.06,8.06,0,0,1-1.58-1,4.43,4.43,0,0,1-1.11-1.36,4.2,4.2,0,0,1-.41-1.93,4.34,4.34,0,0,1,1.64-3.53,6.92,6.92,0,0,1,4.5-1.34,12.22,12.22,0,0,1,3,.31,10,10,0,0,1,1.67.55l-.52,2a12.33,12.33,0,0,0-1.4-.55,9.15,9.15,0,0,0-2.88-.34,6.53,6.53,0,0,0-1.43.15,3.87,3.87,0,0,0-1.19.49,2.36,2.36,0,0,0-.83.83,2.23,2.23,0,0,0-.31,1.22,2.68,2.68,0,0,0,.27,1.25,2.93,2.93,0,0,0,.81.92,7.3,7.3,0,0,0,1.32.74c.51.23,1.11.48,1.77.75s1.36.56,2,.85a7.12,7.12,0,0,1,1.67,1,4.74,4.74,0,0,1,1.18,1.45,4.51,4.51,0,0,1,.45,2.13,4.17,4.17,0,0,1-1.81,3.66,8.75,8.75,0,0,1-5,1.24,12.22,12.22,0,0,1-3.59-.4,13.24,13.24,0,0,1-1.66-.6l.59-2a3.1,3.1,0,0,0,.45.22,8.63,8.63,0,0,0,.93.35,9.37,9.37,0,0,0,1.4.33,11.54,11.54,0,0,0,1.88.14" transform="translate(-21.7 -20.49)"/><path class="cls-2" d="M197.47,115.65c-.67.19-1.57.39-2.7.62a21,21,0,0,1-4.14.35,8.44,8.44,0,0,1-3.35-.59,5.39,5.39,0,0,1-2.17-1.65,6.8,6.8,0,0,1-1.2-2.59,14.58,14.58,0,0,1-.36-3.35v-10h2.25v9.29a16.16,16.16,0,0,0,.27,3.21,5.42,5.42,0,0,0,.9,2.13,3.46,3.46,0,0,0,1.61,1.17,7,7,0,0,0,2.4.36,18.62,18.62,0,0,0,2.76-.17,7.84,7.84,0,0,0,1.48-.31V98.42h2.25Z" transform="translate(-21.7 -20.49)"/><path class="cls-2" d="M206.55,116.59a8.1,8.1,0,0,1-2-.3,3.6,3.6,0,0,1-1.41-.79,3.47,3.47,0,0,1-.87-1.38A6.76,6.76,0,0,1,202,112V89.89l2.25-.41v22.44a4.72,4.72,0,0,0,.15,1.33,1.76,1.76,0,0,0,.47.8,1.84,1.84,0,0,0,.81.43,10.79,10.79,0,0,0,1.19.24Z" transform="translate(-21.7 -20.49)"/><path class="cls-2" d="M211.56,98.42h7.11v1.9h-7.11v9.5a9.88,9.88,0,0,0,.25,2.47,3.4,3.4,0,0,0,.75,1.46,2.27,2.27,0,0,0,1.17.69,6,6,0,0,0,1.52.18,6.55,6.55,0,0,0,2.28-.33,10.11,10.11,0,0,0,1.35-.61l.55,1.87a8.29,8.29,0,0,1-1.69.71,8.53,8.53,0,0,1-2.63.39,7.77,7.77,0,0,1-2.78-.43,3.93,3.93,0,0,1-1.79-1.31,5.35,5.35,0,0,1-.95-2.19,14.88,14.88,0,0,1-.28-3.11V93.17l2.25-.41Z" transform="translate(-21.7 -20.49)"/><path class="cls-2" d="M236.66,107.37a11.61,11.61,0,0,1-.6,3.83,8.53,8.53,0,0,1-1.7,2.93,7.46,7.46,0,0,1-2.57,1.88,8.25,8.25,0,0,1-6.56,0,7.46,7.46,0,0,1-2.57-1.88A8.36,8.36,0,0,1,221,111.2a12.36,12.36,0,0,1,0-7.67,8.63,8.63,0,0,1,1.69-3,7.52,7.52,0,0,1,2.57-1.9,8.36,8.36,0,0,1,6.56,0,7.52,7.52,0,0,1,2.57,1.9,8.82,8.82,0,0,1,1.7,3,11.63,11.63,0,0,1,.6,3.84m-2.38,0a8.4,8.4,0,0,0-1.56-5.34,5.45,5.45,0,0,0-8.42,0,8.4,8.4,0,0,0-1.56,5.34,8.31,8.31,0,0,0,1.56,5.31,5.48,5.48,0,0,0,8.42,0,8.31,8.31,0,0,0,1.56-5.31" transform="translate(-21.7 -20.49)"/><path class="cls-2" d="M246.23,98.08a11.72,11.72,0,0,1,2.09.17,7.19,7.19,0,0,1,1.36.34l-.45,1.94a5.36,5.36,0,0,0-1.12-.3,13.35,13.35,0,0,0-2.23-.15,10.4,10.4,0,0,0-2.33.21,6.19,6.19,0,0,0-1.16.34v15.64h-2.24v-17a17.45,17.45,0,0,1,2.38-.78,15.1,15.1,0,0,1,3.7-.39" transform="translate(-21.7 -20.49)"/><path class="cls-2" d="M250.61,107.33a11.53,11.53,0,0,1,.67-4.09,9.13,9.13,0,0,1,1.76-2.92,7,7,0,0,1,2.49-1.74,7.6,7.6,0,0,1,2.89-.57,6.73,6.73,0,0,1,5.23,2.14c1.3,1.43,2,3.62,2,6.59,0,.19,0,.37,0,.56s0,.35-.05.51H253a7.89,7.89,0,0,0,1.63,5q1.51,1.76,4.83,1.76a9.73,9.73,0,0,0,2.9-.35,11,11,0,0,0,1.56-.59l.41,1.94a9.56,9.56,0,0,1-1.81.65,11.22,11.22,0,0,1-3.13.38,10.38,10.38,0,0,1-4-.69,7.09,7.09,0,0,1-2.73-1.93,7.67,7.67,0,0,1-1.56-3,13.84,13.84,0,0,1-.48-3.75m12.67-1.42a7.06,7.06,0,0,0-1.31-4.35,4.26,4.26,0,0,0-3.52-1.55,4.7,4.7,0,0,0-2.16.48,5.8,5.8,0,0,0-1.66,1.3,6,6,0,0,0-1.1,1.88,7.65,7.65,0,0,0-.47,2.24Z" transform="translate(-21.7 -20.49)"/><path class="cls-2" d="M272.88,114.69a7.15,7.15,0,0,0,3.2-.64,2.24,2.24,0,0,0,1.26-2.16,3.08,3.08,0,0,0-.23-1.24,2.41,2.41,0,0,0-.74-.94,6.43,6.43,0,0,0-1.36-.79l-2.09-.9c-.67-.27-1.3-.56-1.9-.84a7.85,7.85,0,0,1-1.59-1,4.26,4.26,0,0,1-1.1-1.36,4.08,4.08,0,0,1-.42-1.93,4.37,4.37,0,0,1,1.64-3.53A7,7,0,0,1,274.06,98a12.13,12.13,0,0,1,3,.31,10,10,0,0,1,1.67.55l-.51,2a14.13,14.13,0,0,0-1.4-.55A9.27,9.27,0,0,0,274,100a6.6,6.6,0,0,0-1.43.15,3.87,3.87,0,0,0-1.19.49,2.44,2.44,0,0,0-.83.83,2.23,2.23,0,0,0-.31,1.22,2.57,2.57,0,0,0,.28,1.25,2.7,2.7,0,0,0,.81.92,6.87,6.87,0,0,0,1.31.74c.52.23,1.11.48,1.78.75s1.35.56,2,.85a7.19,7.19,0,0,1,1.68,1,4.86,4.86,0,0,1,1.17,1.45,4.51,4.51,0,0,1,.45,2.13,4.15,4.15,0,0,1-1.81,3.66,8.73,8.73,0,0,1-5,1.24,12.26,12.26,0,0,1-3.59-.4,13.24,13.24,0,0,1-1.66-.6l.59-2a3.1,3.1,0,0,0,.45.22,8.63,8.63,0,0,0,.93.35,9.37,9.37,0,0,0,1.4.33,11.54,11.54,0,0,0,1.88.14" transform="translate(-21.7 -20.49)"/><path class="cls-3" d="M112.9,58.91a24.54,24.54,0,0,1,1.52-9,19,19,0,0,1,4.06-6.43,16.74,16.74,0,0,1,5.79-3.87A18.12,18.12,0,0,1,131,38.33c5.36,0,9.53,1.65,12.53,5s4.5,8.27,4.5,14.86c0,.49,0,1,0,1.67s-.06,1.18-.11,1.67H122.19a10.24,10.24,0,0,0,3.31,7.25c2,1.71,4.79,2.57,8.51,2.57a27.88,27.88,0,0,0,6-.6,24.8,24.8,0,0,0,4.27-1.26l1.19,7.36a14,14,0,0,1-2.05.78,28,28,0,0,1-3,.74c-1.11.23-2.32.41-3.6.56a34.1,34.1,0,0,1-4,.22A24,24,0,0,1,124,77.61a16.69,16.69,0,0,1-6.25-4.24A17.42,17.42,0,0,1,114.09,67a26.18,26.18,0,0,1-1.19-8.07m26.09-4a11.73,11.73,0,0,0-.52-3.53,8.53,8.53,0,0,0-1.52-2.9,7.22,7.22,0,0,0-2.45-1.93,7.85,7.85,0,0,0-3.46-.71,8.11,8.11,0,0,0-3.65.78,8.3,8.3,0,0,0-2.63,2,9.38,9.38,0,0,0-1.68,2.9,15.5,15.5,0,0,0-.81,3.34Z" transform="translate(-21.7 -20.49)"/><path class="cls-3" d="M189.53,58.76a27.46,27.46,0,0,1-1.15,8.18,19.15,19.15,0,0,1-3.3,6.39,14.57,14.57,0,0,1-5.39,4.16A17.24,17.24,0,0,1,172.36,79a17.94,17.94,0,0,1-5.05-.67,18.73,18.73,0,0,1-3.79-1.48V91.92h-9V40.55c1.84-.49,4.09-1,6.77-1.41a52.2,52.2,0,0,1,8.47-.67A22.94,22.94,0,0,1,178,39.88a17.31,17.31,0,0,1,6.21,4.06,17.81,17.81,0,0,1,3.94,6.39,24.52,24.52,0,0,1,1.37,8.43m-9.21.15q0-6-2.72-9.36t-8.73-3.35q-1.26,0-2.64.12a13.87,13.87,0,0,0-2.71.48V69a13.5,13.5,0,0,0,3.16,1.53,12.34,12.34,0,0,0,4.2.7q4.91,0,7.17-3.34t2.27-9" transform="translate(-21.7 -20.49)"/><path class="cls-3" d="M246.84,77c-1.73.44-4,.9-6.76,1.37a55,55,0,0,1-9.15.71,20.2,20.2,0,0,1-7.84-1.34A12.54,12.54,0,0,1,218,74a14.71,14.71,0,0,1-2.72-5.68,30.48,30.48,0,0,1-.81-7.25V39.29h9V59.66q0,6.24,1.82,8.92c1.22,1.78,3.33,2.67,6.36,2.67,1.09,0,2.24,0,3.45-.14a18.1,18.1,0,0,0,2.72-.38V39.29h9Z" transform="translate(-21.7 -20.49)"/><path class="cls-3" d="M265.05,71.7a12.05,12.05,0,0,0,5.21-.85,3.07,3.07,0,0,0,1.63-2.94,3.81,3.81,0,0,0-1.75-3.2A25.5,25.5,0,0,0,264.38,62a44.31,44.31,0,0,1-4.49-1.89,15,15,0,0,1-3.53-2.34A9.49,9.49,0,0,1,254,54.49a11.08,11.08,0,0,1-.86-4.64,10.13,10.13,0,0,1,3.94-8.44q3.93-3.07,10.7-3.08a33,33,0,0,1,6.54.63A32.27,32.27,0,0,1,279,40.18l-1.63,7.29a21.38,21.38,0,0,0-3.79-1.23,23,23,0,0,0-5.35-.56,9.29,9.29,0,0,0-4.46.93,3.05,3.05,0,0,0-1.71,2.87,4.13,4.13,0,0,0,.33,1.7,3.76,3.76,0,0,0,1.15,1.38,12.11,12.11,0,0,0,2.16,1.26,31.77,31.77,0,0,0,3.27,1.3,51.23,51.23,0,0,1,5.43,2.35,14.58,14.58,0,0,1,3.68,2.6,8.87,8.87,0,0,1,2.11,3.3,13.12,13.12,0,0,1,.68,4.46,9.62,9.62,0,0,1-4.13,8.44q-4.12,2.87-11.78,2.86a32.26,32.26,0,0,1-8.25-.85,41.81,41.81,0,0,1-4.39-1.38l1.56-7.51A40.48,40.48,0,0,0,258.7,71a24.89,24.89,0,0,0,6.35.74" transform="translate(-21.7 -20.49)"/><path class="cls-3" d="M97.59,26.56V40.63a22.34,22.34,0,0,0-3.71-1.49,17.05,17.05,0,0,0-5-.67,17.74,17.74,0,0,0-7.36,1.45,15,15,0,0,0-5.43,4.13,18.17,18.17,0,0,0-3.38,6.43,28.34,28.34,0,0,0-1.16,8.36A24.38,24.38,0,0,0,73,67.28a17.9,17.9,0,0,0,3.94,6.39,17.16,17.16,0,0,0,6.21,4,22.69,22.69,0,0,0,8.25,1.41,51.77,51.77,0,0,0,8.51-.67A53,53,0,0,0,106.58,77V26.56Zm0,44.17a23,23,0,0,1-2.49.41,29.59,29.59,0,0,1-3.68.19A9.62,9.62,0,0,1,83.62,68q-2.84-3.39-2.83-9.34,0-5.72,2.27-9.06t7.17-3.35a12.35,12.35,0,0,1,4.2.71,14.14,14.14,0,0,1,3.16,1.52Z" transform="translate(-21.7 -20.49)"/><path class="cls-3" d="M209.38,78.91a24.53,24.53,0,0,1-6.65-.89,10.34,10.34,0,0,1-4.2-2.34,8.31,8.31,0,0,1-2.2-3.8,19.29,19.29,0,0,1-.63-5.16V26.56l9-1.49V65a11.87,11.87,0,0,0,.27,2.75,4.31,4.31,0,0,0,.93,1.89,4.12,4.12,0,0,0,1.82,1.2,14.47,14.47,0,0,0,2.93.63Z" transform="translate(-21.7 -20.49)"/><path class="cls-3" d="M66.21,63q-2.62-7-5.12-13.19c-1.65-4.15-3.3-8.1-4.92-11.85s-3.31-7.46-5-11.12H42.21q-2.6,5.49-5,11.12T32.25,49.78Q29.78,56,27.18,63T21.7,78.17h9.71q1-3,2.12-6t2.12-6.11l2.4-7.56q2.37-6.6,4.55-12.23t3.89-9.56q1.63,3.78,3.86,9.49t4.59,12.3l2.4,7.56c.69,2.07,1.41,4.1,2.15,6.07s1.47,4,2.16,6H71.73q-2.9-8.23-5.52-15.2" transform="translate(-21.7 -20.49)"/><polygon class="cls-4" points="278.48 7.2 271.44 7.2 271.44 0 265.99 0.9 265.99 7.2 258.79 7.2 258.79 12.66 265.99 12.66 265.99 19.7 271.44 19.7 271.44 12.66 278.48 12.66 278.48 7.2"/><g class="cls-5"><rect class="cls-4" x="258.79" width="19.7" height="19.7"/><path class="cls-4" d="M299.6,30.34a9.26,9.26,0,1,1-9.26-9.26,9.26,9.26,0,0,1,9.26,9.26" transform="translate(-21.7 -20.49)"/><path class="cls-4" d="M299.39,30.34a9,9,0,1,1-9.05-9,9.05,9.05,0,0,1,9.05,9.05" transform="translate(-21.7 -20.49)"/><path class="cls-4" d="M299.18,30.34a8.84,8.84,0,1,1-8.84-8.84,8.83,8.83,0,0,1,8.84,8.84" transform="translate(-21.7 -20.49)"/><path class="cls-4" d="M299,30.34a8.63,8.63,0,1,1-8.62-8.63A8.62,8.62,0,0,1,299,30.34" transform="translate(-21.7 -20.49)"/><path class="cls-4" d="M298.75,30.34a8.42,8.42,0,1,1-8.41-8.42,8.41,8.41,0,0,1,8.41,8.42" transform="translate(-21.7 -20.49)"/><path class="cls-4" d="M298.54,30.34a8.21,8.21,0,1,1-8.2-8.21,8.2,8.2,0,0,1,8.2,8.21" transform="translate(-21.7 -20.49)"/><path class="cls-4" d="M298.33,30.34a8,8,0,1,1-8-8,8,8,0,0,1,8,8" transform="translate(-21.7 -20.49)"/><path class="cls-4" d="M298.12,30.34a7.79,7.79,0,1,1-7.78-7.79,7.78,7.78,0,0,1,7.78,7.79" transform="translate(-21.7 -20.49)"/><path class="cls-4" d="M297.91,30.34a7.58,7.58,0,1,1-7.57-7.58,7.57,7.57,0,0,1,7.57,7.58" transform="translate(-21.7 -20.49)"/><path class="cls-4" d="M297.7,30.34A7.37,7.37,0,1,1,290.34,23a7.36,7.36,0,0,1,7.36,7.37" transform="translate(-21.7 -20.49)"/><path class="cls-4" d="M297.49,30.34a7.16,7.16,0,1,1-7.15-7.16,7.15,7.15,0,0,1,7.15,7.16" transform="translate(-21.7 -20.49)"/><path class="cls-4" d="M297.28,30.34a6.94,6.94,0,1,1-6.94-6.95,6.94,6.94,0,0,1,6.94,7" transform="translate(-21.7 -20.49)"/><path class="cls-4" d="M297.07,30.34a6.73,6.73,0,1,1-6.73-6.74,6.73,6.73,0,0,1,6.73,6.74" transform="translate(-21.7 -20.49)"/><path class="cls-4" d="M296.86,30.34a6.52,6.52,0,1,1-6.52-6.53,6.52,6.52,0,0,1,6.52,6.53" transform="translate(-21.7 -20.49)"/><path class="cls-4" d="M296.65,30.34A6.31,6.31,0,1,1,290.34,24a6.32,6.32,0,0,1,6.31,6.32" transform="translate(-21.7 -20.49)"/><path class="cls-4" d="M296.44,30.34a6.1,6.1,0,1,1-6.1-6.11,6.1,6.1,0,0,1,6.1,6.11" transform="translate(-21.7 -20.49)"/><path class="cls-4" d="M296.23,30.34a5.89,5.89,0,1,1-5.89-5.9,5.89,5.89,0,0,1,5.89,5.9" transform="translate(-21.7 -20.49)"/><path class="cls-4" d="M296,30.34a5.68,5.68,0,1,1-5.68-5.69A5.68,5.68,0,0,1,296,30.34" transform="translate(-21.7 -20.49)"/><path class="cls-4" d="M295.81,30.34a5.47,5.47,0,1,1-5.47-5.47,5.47,5.47,0,0,1,5.47,5.47" transform="translate(-21.7 -20.49)"/><path class="cls-4" d="M295.6,30.34a5.26,5.26,0,1,1-5.26-5.26,5.27,5.27,0,0,1,5.26,5.26" transform="translate(-21.7 -20.49)"/><path class="cls-4" d="M295.39,30.34a5,5,0,1,1-5.05-5.05,5.06,5.06,0,0,1,5.05,5.05" transform="translate(-21.7 -20.49)"/><path class="cls-4" d="M295.18,30.34a4.84,4.84,0,1,1-4.84-4.84,4.84,4.84,0,0,1,4.84,4.84" transform="translate(-21.7 -20.49)"/><path class="cls-4" d="M295,30.34a4.63,4.63,0,1,1-4.63-4.63A4.62,4.62,0,0,1,295,30.34" transform="translate(-21.7 -20.49)"/><path class="cls-4" d="M294.76,30.34a4.42,4.42,0,1,1-4.42-4.42,4.41,4.41,0,0,1,4.42,4.42" transform="translate(-21.7 -20.49)"/><path class="cls-4" d="M294.55,30.34a4.21,4.21,0,1,1-4.21-4.21,4.21,4.21,0,0,1,4.21,4.21" transform="translate(-21.7 -20.49)"/><path class="cls-4" d="M294.34,30.34a4,4,0,1,1-4-4,4,4,0,0,1,4,4" transform="translate(-21.7 -20.49)"/><path class="cls-4" d="M294.13,30.34a3.79,3.79,0,1,1-3.79-3.79,3.79,3.79,0,0,1,3.79,3.79" transform="translate(-21.7 -20.49)"/><path class="cls-4" d="M293.92,30.34a3.58,3.58,0,1,1-3.58-3.58,3.58,3.58,0,0,1,3.58,3.58" transform="translate(-21.7 -20.49)"/><path class="cls-4" d="M293.7,30.34A3.37,3.37,0,1,1,290.34,27a3.36,3.36,0,0,1,3.36,3.37" transform="translate(-21.7 -20.49)"/><path class="cls-4" d="M293.49,30.34a3.16,3.16,0,1,1-3.15-3.16,3.15,3.15,0,0,1,3.15,3.16" transform="translate(-21.7 -20.49)"/><path class="cls-4" d="M293.28,30.34a2.95,2.95,0,1,1-2.94-2.95,2.94,2.94,0,0,1,2.94,2.95" transform="translate(-21.7 -20.49)"/><path class="cls-4" d="M293.07,30.34a2.74,2.74,0,1,1-2.73-2.74,2.73,2.73,0,0,1,2.73,2.74" transform="translate(-21.7 -20.49)"/><path class="cls-4" d="M292.86,30.34a2.53,2.53,0,1,1-2.52-2.53,2.52,2.52,0,0,1,2.52,2.53" transform="translate(-21.7 -20.49)"/><path class="cls-4" d="M292.65,30.34A2.32,2.32,0,1,1,290.34,28a2.31,2.31,0,0,1,2.31,2.32" transform="translate(-21.7 -20.49)"/><path class="cls-4" d="M292.44,30.34a2.11,2.11,0,1,1-2.1-2.11,2.1,2.1,0,0,1,2.1,2.11" transform="translate(-21.7 -20.49)"/><path class="cls-4" d="M292.23,30.34a1.9,1.9,0,1,1-1.89-1.9,1.89,1.89,0,0,1,1.89,1.9" transform="translate(-21.7 -20.49)"/><path class="cls-4" d="M292,30.34a1.68,1.68,0,1,1-1.68-1.69A1.68,1.68,0,0,1,292,30.34" transform="translate(-21.7 -20.49)"/><path class="cls-4" d="M291.81,30.34a1.47,1.47,0,1,1-1.47-1.48,1.47,1.47,0,0,1,1.47,1.48" transform="translate(-21.7 -20.49)"/><path class="cls-4" d="M291.6,30.34a1.26,1.26,0,1,1-1.26-1.27,1.26,1.26,0,0,1,1.26,1.27" transform="translate(-21.7 -20.49)"/><path class="cls-4" d="M291.39,30.34a1.05,1.05,0,1,1-1.05-1.06,1,1,0,0,1,1.05,1.06" transform="translate(-21.7 -20.49)"/><path class="cls-4" d="M291.18,30.34a.84.84,0,1,1-.84-.85.85.85,0,0,1,.84.85" transform="translate(-21.7 -20.49)"/><path class="cls-4" d="M291,30.34a.63.63,0,1,1-.63-.64.63.63,0,0,1,.63.64" transform="translate(-21.7 -20.49)"/><path class="cls-4" d="M290.76,30.34a.42.42,0,1,1-.42-.43.42.42,0,0,1,.42.43" transform="translate(-21.7 -20.49)"/><path class="cls-4" d="M290.55,30.34a.22.22,0,0,1-.21.21.21.21,0,0,1-.21-.21.21.21,0,0,1,.21-.21.21.21,0,0,1,.21.21" transform="translate(-21.7 -20.49)"/></g></svg>