<?xml version="1.0" encoding="utf-8"?>
<!-- Generator: Adobe Illustrator 25.2.0, SVG Export Plug-In . SVG Version: 6.00 Build 0)  -->
<svg version="1.1" id="Capa_1" xmlns="http://www.w3.org/2000/svg" xmlns:xlink="http://www.w3.org/1999/xlink" x="0px" y="0px"
	 viewBox="0 0 62.5 57.7" style="enable-background:new 0 0 62.5 57.7;" xml:space="preserve">
<style type="text/css">
	.st0{fill:#044666;}
	.st1{fill:#EE9531;}
	.st2{clip-path:url(#SVGID_1_);fill:#EE9531;}
</style>
<g>
	<g>
		<path class="st0" d="M44.5,42.5c-1.8-4.6-3.5-9-5.1-13.2c-1.7-4.2-3.3-8.1-4.9-11.9c-1.6-3.8-3.3-7.5-5-11.1h-8.9
			c-1.7,3.7-3.4,7.4-5,11.1c-1.6,3.8-3.3,7.7-4.9,11.9c-1.7,4.1-3.3,8.5-5.1,13.2C3.8,47.1,1.9,52.2,0,57.7h9.7c0.7-2,1.4-4,2.1-6
			c0.7-2,1.4-4,2.1-6.1l2.4-7.6c1.6-4.4,3.1-8.5,4.6-12.2c1.5-3.8,2.8-6.9,3.9-9.6c1.1,2.5,2.4,5.7,3.9,9.5c1.5,3.8,3,7.9,4.6,12.3
			l2.4,7.6c0.7,2.1,1.4,4.1,2.2,6.1c0.7,2,1.5,4,2.2,6H50C48.1,52.2,46.3,47.1,44.5,42.5"/>
		<polygon class="st1" points="62.5,7.2 55.4,7.2 55.4,0 50,0.9 50,7.2 42.8,7.2 42.8,12.7 50,12.7 50,19.7 55.4,19.7 55.4,12.7 
			62.5,12.7 		"/>
	</g>
	<g>
		<defs>
			<polygon id="SVGID_3_" points="50,0.9 50,7.2 42.8,7.2 42.8,12.7 50,12.7 50,19.7 55.4,19.7 55.4,12.7 62.5,12.7 62.5,7.2 
				55.4,7.2 55.4,0 			"/>
		</defs>
		<clipPath id="SVGID_1_">
			<use xlink:href="#SVGID_3_"  style="overflow:visible;"/>
		</clipPath>
		<rect x="42.8" y="0" class="st2" width="19.7" height="19.7"/>
		<path class="st2" d="M61.9,9.8c0,5.1-4.1,9.3-9.3,9.3c-5.1,0-9.3-4.1-9.3-9.3c0-5.1,4.1-9.3,9.3-9.3C57.7,0.6,61.9,4.7,61.9,9.8"
			/>
		<path class="st2" d="M61.7,9.8c0,5-4.1,9-9,9c-5,0-9-4.1-9-9c0-5,4.1-9,9-9C57.6,0.8,61.7,4.9,61.7,9.8"/>
		<path class="st2" d="M61.5,9.8c0,4.9-4,8.8-8.8,8.8c-4.9,0-8.8-4-8.8-8.8c0-4.9,4-8.8,8.8-8.8C57.5,1,61.5,5,61.5,9.8"/>
		<path class="st2" d="M61.3,9.8c0,4.8-3.9,8.6-8.6,8.6c-4.8,0-8.6-3.9-8.6-8.6c0-4.8,3.9-8.6,8.6-8.6C57.4,1.2,61.3,5.1,61.3,9.8"
			/>
		<path class="st2" d="M61.1,9.8c0,4.6-3.8,8.4-8.4,8.4s-8.4-3.8-8.4-8.4c0-4.6,3.8-8.4,8.4-8.4S61.1,5.2,61.1,9.8"/>
		<path class="st2" d="M60.8,9.8c0,4.5-3.7,8.2-8.2,8.2c-4.5,0-8.2-3.7-8.2-8.2c0-4.5,3.7-8.2,8.2-8.2C57.2,1.6,60.8,5.3,60.8,9.8"
			/>
		<path class="st2" d="M60.6,9.8c0,4.4-3.6,8-8,8c-4.4,0-8-3.6-8-8c0-4.4,3.6-8,8-8C57.1,1.9,60.6,5.4,60.6,9.8"/>
		<path class="st2" d="M60.4,9.8c0,4.3-3.5,7.8-7.8,7.8c-4.3,0-7.8-3.5-7.8-7.8c0-4.3,3.5-7.8,7.8-7.8C56.9,2.1,60.4,5.5,60.4,9.8"
			/>
		<path class="st2" d="M60.2,9.8c0,4.2-3.4,7.6-7.6,7.6c-4.2,0-7.6-3.4-7.6-7.6c0-4.2,3.4-7.6,7.6-7.6C56.8,2.3,60.2,5.7,60.2,9.8"
			/>
		<path class="st2" d="M60,9.8c0,4.1-3.3,7.4-7.4,7.4s-7.4-3.3-7.4-7.4c0-4.1,3.3-7.4,7.4-7.4S60,5.8,60,9.8"/>
		<path class="st2" d="M59.8,9.8c0,4-3.2,7.2-7.2,7.2c-3.9,0-7.2-3.2-7.2-7.2c0-4,3.2-7.2,7.2-7.2C56.6,2.7,59.8,5.9,59.8,9.8"/>
		<path class="st2" d="M59.6,9.8c0,3.8-3.1,6.9-6.9,6.9c-3.8,0-6.9-3.1-6.9-6.9c0-3.8,3.1-6.9,6.9-6.9C56.5,2.9,59.6,6,59.6,9.8"/>
		<path class="st2" d="M59.4,9.8c0,3.7-3,6.7-6.7,6.7c-3.7,0-6.7-3-6.7-6.7c0-3.7,3-6.7,6.7-6.7C56.4,3.1,59.4,6.1,59.4,9.8"/>
		<path class="st2" d="M59.2,9.8c0,3.6-2.9,6.5-6.5,6.5c-3.6,0-6.5-2.9-6.5-6.5c0-3.6,2.9-6.5,6.5-6.5C56.2,3.3,59.2,6.2,59.2,9.8"
			/>
		<path class="st2" d="M58.9,9.8c0,3.5-2.8,6.3-6.3,6.3s-6.3-2.8-6.3-6.3c0-3.5,2.8-6.3,6.3-6.3S58.9,6.4,58.9,9.8"/>
		<path class="st2" d="M58.7,9.8c0,3.4-2.7,6.1-6.1,6.1c-3.4,0-6.1-2.7-6.1-6.1c0-3.4,2.7-6.1,6.1-6.1C56,3.7,58.7,6.5,58.7,9.8"/>
		<path class="st2" d="M58.5,9.8c0,3.3-2.6,5.9-5.9,5.9c-3.3,0-5.9-2.6-5.9-5.9c0-3.3,2.6-5.9,5.9-5.9C55.9,4,58.5,6.6,58.5,9.8"/>
		<path class="st2" d="M58.3,9.8c0,3.1-2.5,5.7-5.7,5.7c-3.1,0-5.7-2.5-5.7-5.7c0-3.1,2.5-5.7,5.7-5.7C55.8,4.2,58.3,6.7,58.3,9.8"
			/>
		<path class="st2" d="M58.1,9.8c0,3-2.4,5.5-5.5,5.5c-3,0-5.5-2.4-5.5-5.5c0-3,2.4-5.5,5.5-5.5C55.7,4.4,58.1,6.8,58.1,9.8"/>
		<path class="st2" d="M57.9,9.8c0,2.9-2.4,5.3-5.3,5.3s-5.3-2.4-5.3-5.3c0-2.9,2.4-5.3,5.3-5.3S57.9,6.9,57.9,9.8"/>
		<path class="st2" d="M57.7,9.8c0,2.8-2.3,5.1-5.1,5.1s-5-2.3-5-5.1c0-2.8,2.3-5,5-5S57.7,7.1,57.7,9.8"/>
		<path class="st2" d="M57.5,9.8c0,2.7-2.2,4.8-4.8,4.8c-2.7,0-4.8-2.2-4.8-4.8C47.8,7.2,50,5,52.6,5C55.3,5,57.5,7.2,57.5,9.8"/>
		<path class="st2" d="M57.3,9.8c0,2.6-2.1,4.6-4.6,4.6c-2.6,0-4.6-2.1-4.6-4.6c0-2.6,2.1-4.6,4.6-4.6C55.2,5.2,57.3,7.3,57.3,9.8"
			/>
		<path class="st2" d="M57.1,9.8c0,2.4-2,4.4-4.4,4.4c-2.4,0-4.4-2-4.4-4.4c0-2.4,2-4.4,4.4-4.4C55.1,5.4,57.1,7.4,57.1,9.8"/>
		<path class="st2" d="M56.8,9.8c0,2.3-1.9,4.2-4.2,4.2s-4.2-1.9-4.2-4.2c0-2.3,1.9-4.2,4.2-4.2S56.8,7.5,56.8,9.8"/>
		<path class="st2" d="M56.6,9.8c0,2.2-1.8,4-4,4c-2.2,0-4-1.8-4-4c0-2.2,1.8-4,4-4C54.8,5.8,56.6,7.6,56.6,9.8"/>
		<path class="st2" d="M56.4,9.8c0,2.1-1.7,3.8-3.8,3.8c-2.1,0-3.8-1.7-3.8-3.8c0-2.1,1.7-3.8,3.8-3.8C54.7,6.1,56.4,7.8,56.4,9.8"
			/>
		<path class="st2" d="M56.2,9.8c0,2-1.6,3.6-3.6,3.6c-2,0-3.6-1.6-3.6-3.6c0-2,1.6-3.6,3.6-3.6C54.6,6.3,56.2,7.9,56.2,9.8"/>
		<path class="st2" d="M56,9.8c0,1.9-1.5,3.4-3.4,3.4c-1.9,0-3.4-1.5-3.4-3.4c0-1.9,1.5-3.4,3.4-3.4C54.5,6.5,56,8,56,9.8"/>
		<path class="st2" d="M55.8,9.8c0,1.7-1.4,3.2-3.2,3.2c-1.7,0-3.2-1.4-3.2-3.2c0-1.7,1.4-3.2,3.2-3.2C54.4,6.7,55.8,8.1,55.8,9.8"
			/>
		<path class="st2" d="M55.6,9.8c0,1.6-1.3,2.9-2.9,2.9c-1.6,0-2.9-1.3-2.9-2.9c0-1.6,1.3-2.9,2.9-2.9C54.3,6.9,55.6,8.2,55.6,9.8"
			/>
		<path class="st2" d="M55.4,9.8c0,1.5-1.2,2.7-2.7,2.7c-1.5,0-2.7-1.2-2.7-2.7c0-1.5,1.2-2.7,2.7-2.7C54.1,7.1,55.4,8.3,55.4,9.8"
			/>
		<path class="st2" d="M55.2,9.8c0,1.4-1.1,2.5-2.5,2.5c-1.4,0-2.5-1.1-2.5-2.5c0-1.4,1.1-2.5,2.5-2.5C54,7.3,55.2,8.5,55.2,9.8"/>
		<path class="st2" d="M54.9,9.8c0,1.3-1,2.3-2.3,2.3c-1.3,0-2.3-1-2.3-2.3c0-1.3,1-2.3,2.3-2.3C53.9,7.5,54.9,8.6,54.9,9.8"/>
		<path class="st2" d="M54.7,9.8c0,1.2-0.9,2.1-2.1,2.1c-1.2,0-2.1-0.9-2.1-2.1c0-1.2,0.9-2.1,2.1-2.1C53.8,7.7,54.7,8.7,54.7,9.8"
			/>
		<path class="st2" d="M54.5,9.8c0,1-0.8,1.9-1.9,1.9c-1,0-1.9-0.8-1.9-1.9c0-1,0.8-1.9,1.9-1.9C53.7,8,54.5,8.8,54.5,9.8"/>
		<path class="st2" d="M54.3,9.8c0,0.9-0.8,1.7-1.7,1.7c-0.9,0-1.7-0.8-1.7-1.7c0-0.9,0.8-1.7,1.7-1.7C53.6,8.2,54.3,8.9,54.3,9.8"
			/>
		<path class="st2" d="M54.1,9.8c0,0.8-0.7,1.5-1.5,1.5c-0.8,0-1.5-0.7-1.5-1.5c0-0.8,0.7-1.5,1.5-1.5C53.4,8.4,54.1,9,54.1,9.8"/>
		<path class="st2" d="M53.9,9.8c0,0.7-0.6,1.3-1.3,1.3c-0.7,0-1.3-0.6-1.3-1.3c0-0.7,0.6-1.3,1.3-1.3C53.3,8.6,53.9,9.2,53.9,9.8"
			/>
		<path class="st2" d="M53.7,9.8c0,0.6-0.5,1.1-1.1,1.1c-0.6,0-1.1-0.5-1.1-1.1c0-0.6,0.5-1.1,1.1-1.1C53.2,8.8,53.7,9.3,53.7,9.8"
			/>
		<path class="st2" d="M53.5,9.8c0,0.5-0.4,0.8-0.8,0.8c-0.5,0-0.8-0.4-0.8-0.8c0-0.5,0.4-0.8,0.8-0.8C53.1,9,53.5,9.4,53.5,9.8"/>
		<path class="st2" d="M53.3,9.8c0,0.3-0.3,0.6-0.6,0.6c-0.3,0-0.6-0.3-0.6-0.6c0-0.3,0.3-0.6,0.6-0.6C53,9.2,53.3,9.5,53.3,9.8"/>
		<path class="st2" d="M53.1,9.8c0,0.2-0.2,0.4-0.4,0.4c-0.2,0-0.4-0.2-0.4-0.4c0-0.2,0.2-0.4,0.4-0.4C52.9,9.4,53.1,9.6,53.1,9.8"
			/>
		<path class="st2" d="M52.8,9.8c0,0.1-0.1,0.2-0.2,0.2c-0.1,0-0.2-0.1-0.2-0.2c0-0.1,0.1-0.2,0.2-0.2C52.8,9.6,52.8,9.7,52.8,9.8"
			/>
	</g>
</g>
</svg>
